<?xml version="1.0" standalone="no"?>
<!DOCTYPE svg PUBLIC "-//W3C//DTD SVG 1.1//EN" "http://www.w3.org/Graphics/SVG/1.1/DTD/svg11.dtd" >
<svg>
<metadata>
Created by FontForge 20090622 at Fri Mar 16 06:59:59 2018
 By deploy user
Copyright 2012 Adobe Systems Incorporated. All rights reserved.
</metadata>
<defs>
<font id="SharpSansNoOne-Regular" horiz-adv-x="588" >
  <font-face 
    font-family="Sharp Sans No1 Regular"
    font-weight="400"
    font-stretch="normal"
    units-per-em="1000"
    panose-1="0 0 0 0 0 0 0 0 0 0"
    ascent="750"
    descent="-250"
    x-height="500"
    cap-height="730"
    bbox="-74 -277 1333 1076"
    underline-thickness="50"
    underline-position="-50"
    unicode-range="U+0020-U+FF3F"
  />
<missing-glyph horiz-adv-x="0" 
 />
    <glyph glyph-name="interrobang" unicode="&#x21;&#x3f;" horiz-adv-x="539" 
d="M243 191q-3 133 -3 422v74q-88 -12 -133 -95l-51 24q28 55 83.5 89.5t131.5 34.5q91 0 150.5 -49.5t59.5 -128.5q0 -51 -20 -86.5t-48 -57l-56 -45t-48 -67.5t-20 -107v-8h-46zM423 563q0 49 -35.5 83t-91.5 41v-74q0 -84 -6 -250q16 25 41.5 50t44 41t33 44t14.5 65z
M237 0v137h58v-137h-58z" />
    <glyph glyph-name="interrobangdown" unicode="&#xa1;&#xbf;" horiz-adv-x="539" 
d="M269 -240q-91 0 -151 49.5t-60 128.5q0 51 20 86.5t48 57l56 45t48 67.5t20 107v8h47q2 -89 2 -422v-74q88 12 134 95l51 -24q-28 -55 -84 -89.5t-131 -34.5zM117 -63q0 -49 35.5 -83t90.5 -41v74q0 84 6 248q-16 -25 -41.5 -50t-44 -40t-32.5 -43t-14 -65zM303 500v-137
h-58v137h58z" />
    <glyph glyph-name=".notdef" horiz-adv-x="0" 
 />
    <glyph glyph-name=".null" horiz-adv-x="0" 
 />
    <glyph glyph-name="nonmarkingreturn" horiz-adv-x="333" 
 />
    <glyph glyph-name="space" unicode=" " horiz-adv-x="254" 
 />
    <glyph glyph-name="exclam" unicode="!" horiz-adv-x="242" 
d="M106 202q-13 186 -13 411v117h58v-117q0 -239 -12 -411h-33zM93 0v137h58v-137h-58z" />
    <glyph glyph-name="quotedbl" unicode="&#x22;" horiz-adv-x="286" 
d="M80 500q-16 100 -16 146v84h51v-84q0 -52 -15 -146h-20zM187 500q-16 100 -16 146v84h51v-84q0 -52 -15 -146h-20z" />
    <glyph glyph-name="numbersign" unicode="#" horiz-adv-x="835" 
d="M525 0v204h-217v-204h-58v204h-202v55h202v220h-202v55h202v196h58v-196h217v196h58v-196h204v-55h-204v-220h204v-55h-204v-204h-58zM308 479v-220h217v220h-217z" />
    <glyph glyph-name="dollar" unicode="$" 
d="M540 196q0 -80 -59.5 -138.5t-154.5 -66.5v-111h-57v111q-142 10 -229 113l44 41q68 -91 185 -101v321q-46 14 -75.5 26.5t-63 34.5t-50.5 54.5t-17 75.5q0 77 56.5 127.5t149.5 55.5v101h57v-102q128 -11 201 -106l-46 -35q-54 79 -155 91v-286q49 -16 78 -28.5t65 -36
t53.5 -59t17.5 -82.5zM481 195q0 60 -40.5 93t-114.5 58v-302q69 8 112 49t43 102zM122 556q0 -53 37.5 -82t109.5 -54v269q-65 -5 -106 -41t-41 -92z" />
    <glyph glyph-name="percent" unicode="%" horiz-adv-x="858" 
d="M126 574q0 -49 34.5 -83.5t81.5 -34.5q48 0 82 34.5t34 83.5t-34 83t-82 34t-82 -34.5t-34 -82.5zM466 156q0 69 48 117.5t118 48.5q69 0 117.5 -48.5t48.5 -117.5t-48.5 -118t-117.5 -49t-117.5 49t-48.5 118zM87 0l627 730h73l-627 -730h-73zM516 156q0 -49 34 -83.5
t82 -34.5t82 34.5t34 83.5q0 48 -34 82.5t-82 34.5t-82 -34t-34 -83zM76 574q0 69 48.5 117.5t117.5 48.5t117.5 -48.5t48.5 -117.5t-48.5 -118t-117.5 -49t-117.5 49t-48.5 118z" />
    <glyph glyph-name="ampersand" unicode="&#x26;" horiz-adv-x="762" 
d="M636 0l-79 78q-101 -89 -224 -89q-72 0 -128.5 21.5t-89 57t-49 76t-16.5 82.5q0 74 38 131.5t104 91.5q-47 63 -47 127q0 68 49 116t133 48q57 0 101 -24.5t69 -63.5l-47 -31q-45 69 -123 69q-56 0 -90 -33t-34 -81q0 -43 25.5 -79.5t96.5 -107.5l236 -236
q86 101 97 226h-143v54h199v-23q0 -72 -31.5 -151t-86.5 -142l118 -117h-78zM333 40q103 0 188 73l-242 242l-54 54q-117 -62 -117 -183q0 -72 58 -129t167 -57z" />
    <glyph glyph-name="quotesingle" unicode="'" horiz-adv-x="179" 
d="M100 500h-20q-16 100 -16 146v84h51v-84q0 -52 -15 -146z" />
    <glyph glyph-name="parenleft" unicode="(" horiz-adv-x="419" 
d="M328 -248q-274 190 -274 498q0 304 270 497l40 -44q-248 -172 -248 -453q0 -282 251 -453z" />
    <glyph glyph-name="parenright" unicode=")" horiz-adv-x="419" 
d="M303 250q0 282 -248 452l40 45q270 -193 270 -498q0 -309 -274 -497l-39 45q251 171 251 453z" />
    <glyph glyph-name="asterisk" unicode="*" horiz-adv-x="438" 
d="M357 443l-125 89l14 -156h-54l14 156l-128 -90l-26 46l141 66l-141 67l26 45l128 -91l-14 155h54l-14 -153l126 88l26 -46l-142 -65l142 -65z" />
    <glyph glyph-name="plus" unicode="+" horiz-adv-x="475" 
d="M53 340v50h160v159h50v-159h160v-50h-160v-161h-50v161h-160z" />
    <glyph glyph-name="comma" unicode="," horiz-adv-x="191" 
d="M32 -117l43 204h63l-60 -204h-46z" />
    <glyph glyph-name="hyphen" unicode="-" horiz-adv-x="475" 
d="M53 226v51h370v-51h-370z" />
    <glyph glyph-name="period" unicode="." horiz-adv-x="191" 
d="M66 0v137h58v-137h-58z" />
    <glyph glyph-name="slash" unicode="/" horiz-adv-x="463" 
d="M28 0l346 730h62l-346 -730h-62z" />
    <glyph glyph-name="zero" unicode="0" 
d="M293 43q81 0 126 46.5t45 129.5v282q0 88 -44.5 137t-124.5 49t-125.5 -50t-45.5 -136v-278q0 -85 44.5 -132.5t124.5 -47.5zM294 -10q-107 0 -167.5 62.5t-60.5 170.5v278q0 106 63.5 172.5t164.5 66.5q103 0 165.5 -67t62.5 -172v-282q0 -108 -61 -168.5t-167 -60.5z
" />
    <glyph glyph-name="one" unicode="1" 
d="M48 0v55h213v551q-15 -25 -49 -40t-71 -15h-12v59h5q66 0 97.5 37t31.5 83h56v-675h221v-55h-492z" />
    <glyph glyph-name="two" unicode="2" 
d="M63 0v59q0 41 16 77.5t51 71.5t62.5 57t76.5 57q5 3 14 10q45 32 67.5 49.5t53 46.5t43.5 56t13 57q0 65 -46 106t-120 41q-62 0 -108 -32.5t-73 -86.5l-50 27q31 64 92 104t138 40q100 0 163 -57.5t63 -142.5q0 -32 -13.5 -63.5t-29 -53.5t-49.5 -51.5t-53.5 -43.5
l-61.5 -44q-41 -29 -58 -42t-48 -39.5t-44.5 -45t-25.5 -45t-12 -53.5v-4h406v-55h-467z" />
    <glyph glyph-name="three" unicode="3" 
d="M285 -9q-157 0 -238 100l46 38q70 -87 192 -87q81 0 133 44t52 112q0 70 -54 112t-135 42h-75v54h75q77 0 124.5 38.5t47.5 102.5q0 65 -47 103t-124 38q-52 0 -101.5 -23.5t-74.5 -56.5l-47 34q35 41 95 69.5t129 28.5q103 0 165 -53.5t62 -139.5q0 -59 -31 -102.5
t-86 -65.5q63 -22 98.5 -68.5t35.5 -112.5q0 -92 -66 -149.5t-176 -57.5z" />
    <glyph glyph-name="four" unicode="4" 
d="M381 0v178h-332l-2 53l334 499h58v-500h105v-52h-105v-178h-58zM109 230h272v405z" />
    <glyph glyph-name="five" unicode="5" 
d="M291 -10q-76 0 -137.5 32t-95.5 87l53 35q63 -100 180 -100q81 0 133.5 53.5t52.5 136.5q0 90 -57 140t-134 50q-50 0 -94.5 -22.5t-68.5 -57.5l-57 18l56 368h365v-54h-316l-40 -256q66 57 155 57q103 0 176.5 -62.5t73.5 -180.5q0 -107 -68.5 -175.5t-176.5 -68.5z" />
    <glyph glyph-name="six" unicode="6" 
d="M294 -10q-104 0 -173 69.5t-69 169.5q0 83 48 153l228 348h70l-184 -278q42 16 87 16q100 0 167.5 -69t67.5 -170t-69.5 -170t-172.5 -69zM294 43q77 0 131 54.5t54 131.5t-54 131.5t-132 54.5q-76 0 -130 -54t-54 -131t54 -132t131 -55z" />
    <glyph glyph-name="seven" unicode="7" 
d="M164 0l310 675h-425v55h490v-50l-312 -680h-63z" />
    <glyph glyph-name="eight" unicode="8" 
d="M295 -10q-114 0 -178 59.5t-64 152.5q0 62 34.5 111.5t95.5 75.5q-49 24 -76 66.5t-27 95.5q0 82 59 135.5t155 53.5q94 0 154.5 -54t60.5 -135q0 -53 -27.5 -95.5t-76.5 -66.5q61 -26 95.5 -75t34.5 -112q0 -92 -64.5 -152t-175.5 -60zM295 43q84 0 134.5 45.5
t50.5 113.5t-49.5 114t-136.5 46q-86 0 -135.5 -46.5t-49.5 -113.5q0 -68 50.5 -113.5t135.5 -45.5zM294 413q75 0 118 39.5t43 98.5q0 60 -43.5 99t-117.5 39q-73 0 -117 -39.5t-44 -98.5t43 -98.5t118 -39.5z" />
    <glyph glyph-name="nine" unicode="9" 
d="M260 0h-70l182 277q-39 -15 -85 -15q-99 0 -167 69t-68 170q0 100 70.5 169.5t171.5 69.5q103 0 172.5 -69.5t69.5 -169.5q0 -83 -48 -153zM295 315q76 0 130 54t54 131t-54 132t-130 55q-77 0 -131.5 -54.5t-54.5 -131.5t54.5 -131.5t131.5 -54.5z" />
    <glyph glyph-name="colon" unicode=":" horiz-adv-x="190" 
d="M66 0v137h58v-137h-58zM66 363v137h58v-137h-58z" />
    <glyph glyph-name="semicolon" unicode=";" horiz-adv-x="191" 
d="M66 363v137h58v-137h-58zM32 -117l43 204h63l-60 -204h-46z" />
    <glyph glyph-name="less" unicode="&#x3c;" horiz-adv-x="475" 
d="M423 196l-370 146v49l370 142v-52l-310 -114l310 -118v-53z" />
    <glyph glyph-name="equal" unicode="=" horiz-adv-x="475" 
d="M53 419v50h370v-50h-370zM53 258v49h370v-49h-370z" />
    <glyph glyph-name="greater" unicode="&#x3e;" horiz-adv-x="475" 
d="M53 196v53l310 118l-310 114v52l370 -142v-49z" />
    <glyph glyph-name="question" unicode="?" horiz-adv-x="539" 
d="M228 191v8q0 59 14.5 104t36 69t47 46.5t47 38.5t36 43.5t14.5 63.5q0 55 -44 90t-110 35q-110 0 -162 -97l-51 24q28 55 83.5 89.5t130.5 34.5q91 0 151 -49t60 -128q0 -44 -14.5 -76.5t-37 -50.5l-48 -39.5t-48 -43t-37 -61t-14.5 -93.5v-8h-54zM226 0v137h58v-137h-58
z" />
    <glyph glyph-name="at" unicode="@" horiz-adv-x="856" 
d="M427 -125q-155 0 -264 109.5t-109 265.5q0 155 113 265t269 110q157 0 261 -100.5t104 -236.5q0 -88 -40.5 -148.5t-112.5 -60.5q-85 0 -111 69q-19 -32 -53.5 -52t-80.5 -20q-66 0 -114 49.5t-40 132.5q11 85 62.5 131.5t117.5 46.5q81 0 116 -63l6 57h55l-20 -181
q-7 -62 10 -89.5t56 -27.5q44 0 70 43.5t26 111.5q0 115 -88.5 200.5t-224.5 85.5q-134 0 -229 -95t-95 -228q0 -134 91.5 -228.5t224.5 -94.5q137 0 232 98l40 -35q-49 -52 -120.5 -83.5t-151.5 -31.5zM414 128q51 0 82 37.5t36 92.5q6 53 -19 90.5t-75 37.5t-86.5 -35
t-42.5 -93q-8 -54 23 -92t82 -38z" />
    <glyph glyph-name="A" unicode="A" horiz-adv-x="698" 
d="M37 0l281 730h62l281 -730h-61l-79 204h-345l-78 -204h-61zM349 653l-152 -394h303z" />
    <glyph glyph-name="B" unicode="B" horiz-adv-x="639" 
d="M75 0v730h279q94 0 153.5 -53t59.5 -136q0 -55 -27 -98t-76 -64q57 -21 89 -67.5t32 -110.5q0 -90 -60.5 -145.5t-156.5 -55.5h-293zM366 350h-233v-297h234q70 0 115 42t45 106q0 66 -44 107.5t-117 41.5zM353 677h-220v-274h230q66 0 106 39t40 99q0 59 -44 97.5
t-112 38.5z" />
    <glyph glyph-name="C" unicode="C" horiz-adv-x="796" 
d="M428 -10q-155 0 -265 110t-110 265t110 265t265 110q101 0 186 -50t136 -134l-50 -29q-42 72 -113.5 115.5t-158.5 43.5q-133 0 -224.5 -94t-91.5 -227t91.5 -226.5t224.5 -93.5q94 0 167.5 45.5t113.5 122.5l51 -26q-49 -90 -136.5 -143.5t-195.5 -53.5z" />
    <glyph glyph-name="D" unicode="D" horiz-adv-x="711" 
d="M75 0v730h205q164 0 271 -104.5t107 -260.5t-108.5 -260.5t-267.5 -104.5h-207zM276 677h-143v-623h145q137 0 229 89t92 222q0 134 -90.5 223t-232.5 89z" />
    <glyph glyph-name="E" unicode="E" horiz-adv-x="583" 
d="M75 0v730h447v-55h-389v-282h389v-54h-389v-284h389v-55h-447z" />
    <glyph glyph-name="F" unicode="F" horiz-adv-x="547" 
d="M75 0v730h413v-55h-355v-282h355v-55h-355v-338h-58z" />
    <glyph glyph-name="G" unicode="G" horiz-adv-x="850" 
d="M430 -10q-159 0 -268 109.5t-109 265.5q0 157 109.5 266t271.5 109q103 0 187.5 -49.5t134.5 -134.5l-50 -29q-40 74 -111.5 116.5t-160.5 42.5q-140 0 -231 -93.5t-91 -227.5t90.5 -227t227.5 -93q133 0 216 79t95 203h-316v54h374v-15q0 -158 -100.5 -267t-268.5 -109z
" />
    <glyph glyph-name="H" unicode="H" horiz-adv-x="688" 
d="M555 0v339h-422v-339h-58v730h58v-336h422v336h58v-730h-58z" />
    <glyph glyph-name="I" unicode="I" horiz-adv-x="227" 
d="M85 0v730h57v-730h-57z" />
    <glyph glyph-name="J" unicode="J" horiz-adv-x="476" 
d="M219 -10q-64 0 -111 27.5t-71 75.5l52 33q37 -83 129 -83q60 0 94 39t34 106v542h58v-541q0 -92 -49.5 -145.5t-135.5 -53.5z" />
    <glyph glyph-name="K" unicode="K" horiz-adv-x="649" 
d="M555 0l-264 397l-158 -181v-216h-57v730h57v-437l382 437h71l-254 -293l290 -437h-67z" />
    <glyph glyph-name="L" unicode="L" horiz-adv-x="533" 
d="M75 0v730h58v-675h347v-55h-405z" />
    <glyph glyph-name="M" unicode="M" horiz-adv-x="866" 
d="M75 0v730h57l296 -410l307 410h55v-730h-57v638l-306 -413l-294 404v-629h-58z" />
    <glyph glyph-name="N" unicode="N" horiz-adv-x="742" 
d="M75 0v730h64l470 -640v640h58v-730h-62l-472 643v-643h-58z" />
    <glyph glyph-name="O" unicode="O" horiz-adv-x="855" 
d="M428 -10q-155 0 -265 110t-110 265t110 265t265 110t265 -110t110 -265t-110 -265t-265 -110zM428 45q133 0 224 93.5t91 226.5t-91 226.5t-224 93.5t-224.5 -93.5t-91.5 -226.5t91.5 -226.5t224.5 -93.5z" />
    <glyph glyph-name="P" unicode="P" horiz-adv-x="617" 
d="M75 0v730h221q119 0 193 -70.5t74 -177.5t-74 -178t-193 -71h-163v-233h-58zM293 677h-160v-390h160q96 0 153.5 55t57.5 140q0 86 -57 140.5t-154 54.5z" />
    <glyph glyph-name="Q" unicode="Q" horiz-adv-x="856" 
d="M706 0l-255 301h72l132 -155q89 94 89 219q0 133 -91.5 226.5t-224.5 93.5t-224.5 -93.5t-91.5 -226.5t91.5 -226.5t224.5 -93.5q77 0 147 38l36 -43q-84 -50 -183 -50q-155 0 -265 110t-110 265t110 265t265 110t265 -110t110 -265q0 -150 -111 -263l88 -102h-74z" />
    <glyph glyph-name="R" unicode="R" horiz-adv-x="591" 
d="M75 0v730h223q102 0 171 -66.5t69 -161.5q0 -82 -52 -144.5t-136 -77.5l192 -280h-68l-220 325h39q81 0 134 53t53 124q0 75 -52 125t-134 50h-161v-677h-58z" />
    <glyph glyph-name="S" unicode="S" horiz-adv-x="557" 
d="M273 -10q-154 0 -243 120l48 37q71 -104 195 -104q75 0 125 42.5t50 111.5q0 35 -14 61.5t-45 45.5t-56 29t-71 25q-38 12 -61 21t-54 26t-48 36t-29.5 48.5t-12.5 65.5q0 80 62.5 132.5t154.5 52.5q136 0 215 -100l-45 -35q-59 84 -170 84q-67 0 -112.5 -37.5
t-45.5 -96.5q0 -23 6 -41.5t21.5 -33.5t27.5 -24.5t39 -20.5t40.5 -16t47.5 -16q38 -13 62 -22.5t54.5 -27t48.5 -37.5t30.5 -50.5t12.5 -68.5q0 -87 -66 -147t-167 -60z" />
    <glyph glyph-name="T" unicode="T" horiz-adv-x="610" 
d="M276 0v677h-228v53h514v-53h-228v-677h-58z" />
    <glyph glyph-name="U" unicode="U" horiz-adv-x="641" 
d="M320 -10q-106 0 -177 71.5t-71 176.5v492h58v-495q0 -79 55 -134.5t135 -55.5t135.5 55.5t55.5 135.5v494h58v-492q0 -105 -71.5 -176.5t-177.5 -71.5z" />
    <glyph glyph-name="V" unicode="V" horiz-adv-x="681" 
d="M311 0l-274 730h60l243 -649l243 649h61l-275 -730h-58z" />
    <glyph glyph-name="W" unicode="W" horiz-adv-x="1072" 
d="M257 0l-215 730h61l186 -641l218 641h55l216 -641l193 641h60l-223 -730h-59l-216 640l-217 -640h-59z" />
    <glyph glyph-name="X" unicode="X" horiz-adv-x="652" 
d="M551 0l-225 331l-225 -331h-65l257 377l-238 353h66l206 -305l206 305h65l-237 -350l255 -380h-65z" />
    <glyph glyph-name="Y" unicode="Y" horiz-adv-x="612" 
d="M278 0v347l-245 383h65l208 -328l208 328h65l-243 -381v-349h-58z" />
    <glyph glyph-name="Z" unicode="Z" horiz-adv-x="600" 
d="M58 0v53l415 622h-399v55h467v-53l-415 -622h417v-55h-485z" />
    <glyph glyph-name="bracketleft" unicode="[" horiz-adv-x="378" 
d="M53 -230v960h273v-54h-215v-852h215v-54h-273z" />
    <glyph glyph-name="backslash" unicode="\" horiz-adv-x="463" 
d="M374 0l-346 730h62l346 -730h-62z" />
    <glyph glyph-name="bracketright" unicode="]" horiz-adv-x="378" 
d="M53 -230v53h215v853h-215v54h273v-960h-273z" />
    <glyph glyph-name="asciicircum" unicode="^" horiz-adv-x="502" 
d="M105 516l123 167h44l126 -167h-60l-88 117l-85 -117h-60z" />
    <glyph glyph-name="underscore" unicode="_" horiz-adv-x="542" 
d="M53 -60v50h437v-50h-437z" />
    <glyph glyph-name="grave" unicode="`" horiz-adv-x="502" 
d="M287 565l-140 155h74l120 -155h-54z" />
    <glyph glyph-name="a" unicode="a" horiz-adv-x="637" 
d="M307 -10q-109 0 -183 76t-74 184t74 184t183 76q59 0 115.5 -30.5t86.5 -83.5v104h57v-500h-57v104q-30 -53 -86.5 -83.5t-115.5 -30.5zM310 42q87 0 146 60.5t59 147.5q0 86 -59.5 147t-145.5 61q-85 0 -144 -61t-59 -147t59 -147t144 -61z" />
    <glyph glyph-name="b" unicode="b" horiz-adv-x="636" 
d="M329 -10q-60 0 -116 30.5t-86 83.5v-104h-55v730h56v-333q30 52 86 82.5t115 30.5q110 0 184 -76t74 -184t-74.5 -184t-183.5 -76zM327 42q85 0 143.5 61t58.5 147t-58.5 147t-143.5 61q-87 0 -146.5 -61t-59.5 -147q0 -87 59.5 -147.5t146.5 -60.5z" />
    <glyph glyph-name="c" unicode="c" horiz-adv-x="593" 
d="M312 -10q-112 0 -187 75.5t-75 184.5q0 111 75.5 185.5t185.5 74.5q80 0 143.5 -41.5t92.5 -110.5l-52 -22q-25 57 -73 89.5t-112 32.5q-86 0 -144.5 -60.5t-58.5 -147.5t59.5 -147.5t146.5 -60.5q64 0 112 35t72 92l53 -22q-30 -72 -92 -114.5t-146 -42.5z" />
    <glyph glyph-name="d" unicode="d" horiz-adv-x="636" 
d="M307 -10q-109 0 -183 76t-74 184t74 184t183 76q59 0 115.5 -30.5t86.5 -83.5v334h55v-730h-55v104q-30 -53 -86.5 -83.5t-115.5 -30.5zM310 42q87 0 146 60.5t59 147.5q0 86 -59.5 147t-145.5 61q-85 0 -144 -61t-59 -147t59 -147t144 -61z" />
    <glyph glyph-name="e" unicode="e" horiz-adv-x="615" 
d="M313 -10q-119 0 -191 72.5t-72 184.5t74 187.5t185 75.5q110 0 183 -71t73 -183v-25h-461q6 -83 63 -136.5t145 -53.5q135 0 189 125l50 -24q-71 -152 -238 -152zM309 459q-78 0 -134.5 -49.5t-68.5 -126.5h400q-8 80 -61.5 128t-135.5 48z" />
    <glyph glyph-name="f" unicode="f" horiz-adv-x="343" 
d="M33 449v51h86v48q0 108 37.5 145t142.5 37h5v-53q-82 0 -105 -23.5t-23 -106.5v-47h128v-51h-128v-449h-57v449h-86z" />
    <glyph glyph-name="g" unicode="g" horiz-adv-x="637" 
d="M307 -10q-109 0 -183 76t-74 184t74 184t183 76q59 0 115.5 -30.5t86.5 -83.5v104h57v-490q0 -115 -67.5 -184t-179.5 -69q-175 0 -234 138l56 19q44 -106 178 -106q87 0 139 55t52 145v98q-30 -54 -86.5 -85t-116.5 -31zM310 42q87 0 146 60.5t59 147.5q0 86 -59.5 147
t-145.5 61q-85 0 -144 -61t-59 -147t59 -147t144 -61z" />
    <glyph glyph-name="h" unicode="h" horiz-adv-x="603" 
d="M72 0v730h56v-322q27 46 76 74t110 28q101 0 161 -62t60 -168v-280h-58v280q0 82 -45 130t-126 48q-75 0 -126 -51.5t-51 -127.5v-279h-57z" />
    <glyph glyph-name="i" unicode="i" horiz-adv-x="199" 
d="M71 0v500h57v-500h-57zM71 585v145h57v-145h-57z" />
    <glyph glyph-name="j" unicode="j" horiz-adv-x="199" 
d="M-58 -229v55q81 0 105 23t24 105v546h57v-547q0 -106 -37.5 -144t-139.5 -38h-9zM71 585v145h57v-145h-57z" />
    <glyph glyph-name="k" unicode="k" horiz-adv-x="524" 
d="M427 0l-187 256l-112 -117v-139h-56v730h56v-525l284 295h73l-204 -210l213 -290h-67z" />
    <glyph glyph-name="l" unicode="l" horiz-adv-x="202" 
d="M72 0v730h58v-730h-58z" />
    <glyph glyph-name="m" unicode="m" horiz-adv-x="977" 
d="M71 0v500h55v-88q25 45 70.5 71.5t105.5 26.5q72 0 120.5 -31.5t68.5 -86.5q23 54 74.5 86t119.5 32q104 0 163.5 -60t59.5 -160v-290h-57v294q0 73 -45.5 119t-121.5 46q-72 0 -120 -45.5t-48 -121.5v-292h-57v303q0 71 -43.5 113.5t-117.5 42.5q-75 0 -123 -48.5
t-48 -127.5v-283h-56z" />
    <glyph glyph-name="n" unicode="n" horiz-adv-x="602" 
d="M71 0v500h55v-94q26 47 75 75.5t111 28.5q101 0 161 -61.5t60 -168.5v-280h-57v280q0 81 -45 129.5t-126 48.5q-76 0 -127 -51.5t-51 -127.5v-279h-56z" />
    <glyph glyph-name="o" unicode="o" horiz-adv-x="619" 
d="M309 -10q-108 0 -183.5 75.5t-75.5 184.5t75.5 184.5t183.5 75.5t184 -75.5t76 -184.5t-76 -184.5t-184 -75.5zM309 42q85 0 143.5 61t58.5 147t-58.5 147t-143.5 61t-143.5 -61t-58.5 -147t58.5 -147t143.5 -61z" />
    <glyph glyph-name="p" unicode="p" horiz-adv-x="635" 
d="M328 -10q-64 0 -119 29t-83 81v-330h-55v730h54v-105q29 53 86 84t117 31q109 0 183 -76t74 -184t-74 -184t-183 -76zM325 42q85 0 143.5 61t58.5 147t-58.5 147t-143.5 61q-86 0 -145.5 -61t-59.5 -147q0 -87 59 -147.5t146 -60.5z" />
    <glyph glyph-name="q" unicode="q" horiz-adv-x="635" 
d="M307 -10q-109 0 -183 76t-74 184t74 184t183 76q59 0 115.5 -30.5t86.5 -83.5v104h55v-730h-55v330q-29 -52 -84.5 -81t-117.5 -29zM310 42q87 0 146 60.5t59 147.5q0 86 -59.5 147t-145.5 61q-85 0 -144 -61t-59 -147t59 -147t144 -61z" />
    <glyph glyph-name="r" unicode="r" horiz-adv-x="383" 
d="M71 0v500h56v-97q47 97 163 97h47v-53h-47q-79 0 -120.5 -48t-41.5 -138v-261h-57z" />
    <glyph glyph-name="s" unicode="s" horiz-adv-x="467" 
d="M230 -10q-63 0 -115.5 25.5t-84.5 68.5l45 36q59 -80 157 -80q62 0 95.5 29t33.5 71q0 21 -10 36t-30.5 25t-39.5 15.5t-50 13.5q-9 2 -13 3q-37 9 -60.5 17.5t-50.5 24t-40 40t-13 57.5q0 58 48.5 98.5t126.5 40.5q114 0 179 -74l-43 -35q-52 60 -136 60q-55 0 -87 -25
t-32 -64q0 -17 8.5 -30.5t18.5 -21.5t33.5 -17t35.5 -12l43 -11q39 -10 62 -18t51 -23.5t41.5 -40.5t13.5 -59q0 -58 -48 -104t-139 -46z" />
    <glyph glyph-name="t" unicode="t" horiz-adv-x="349" 
d="M32 449v51h86v117l58 34v-151h127v-51h-127v-266q0 -83 24 -106.5t103 -23.5v-53h-8q-104 0 -140.5 37t-36.5 145v267h-86z" />
    <glyph glyph-name="u" unicode="u" horiz-adv-x="602" 
d="M292 -10q-105 0 -164 61t-59 169v280h57v-280q0 -81 45 -129.5t126 -48.5q75 0 126 51.5t51 127.5v279h57v-500h-56v92q-26 -47 -74.5 -74.5t-108.5 -27.5z" />
    <glyph glyph-name="v" unicode="v" horiz-adv-x="516" 
d="M230 0l-196 500h63l162 -422l162 422h61l-195 -500h-57z" />
    <glyph glyph-name="w" unicode="w" horiz-adv-x="845" 
d="M201 0l-162 500h61l132 -416l163 416h54l161 -417l136 417h60l-167 -500h-54l-164 419l-165 -419h-55z" />
    <glyph glyph-name="x" unicode="x" horiz-adv-x="529" 
d="M28 0l201 255l-192 245h68l159 -204l160 204h68l-193 -245l202 -255h-70l-167 212l-166 -212h-70z" />
    <glyph glyph-name="y" unicode="y" horiz-adv-x="559" 
d="M141 -231l115 259l-221 472h63l189 -407l176 407h62l-323 -731h-61z" />
    <glyph glyph-name="z" unicode="z" horiz-adv-x="536" 
d="M49 0v54l363 393h-351v53h422v-54l-364 -394h368v-52h-438z" />
    <glyph glyph-name="braceleft" unicode="{" horiz-adv-x="405" 
d="M363 -230h-11q-125 0 -172.5 47t-47.5 170v128q0 62 -17 84t-77 22v55q60 0 77 22.5t17 84.5v130q0 123 47.5 170t172.5 47h11v-52q-105 0 -139.5 -33.5t-34.5 -132.5v-130q0 -56 -14 -87.5t-50 -45.5q37 -14 50.5 -45t13.5 -88v-128q0 -99 34.5 -132.5t139.5 -33.5v-52z
" />
    <glyph glyph-name="bar" unicode="|" horiz-adv-x="190" 
d="M66 -230v960h58v-960h-58z" />
    <glyph glyph-name="braceright" unicode="}" horiz-adv-x="405" 
d="M43 -230v53q105 0 139.5 33.5t34.5 131.5v128q0 56 13.5 87.5t49.5 45.5q-35 14 -49 45.5t-14 87.5v130q0 98 -34.5 131.5t-139.5 33.5v53h11q125 0 172.5 -47t47.5 -170v-130q0 -62 17 -84.5t77 -22.5v-55q-60 0 -77 -22t-17 -84v-128q0 -123 -47.5 -170t-172.5 -47h-11
z" />
    <glyph glyph-name="asciitilde" unicode="~" horiz-adv-x="455" 
d="M67 558q2 46 27 73.5t64 27.5q36 0 78 -27q4 -2 12 -7l13 -8t12.5 -6.5t14 -5t13.5 -1.5q40 0 46 50h46q-2 -47 -26 -74t-65 -27q-6 0 -12 0.5t-12 2t-10.5 2.5t-10.5 4t-9 4t-9.5 5t-8 5t-8.5 5t-8 5q-38 21 -56 21q-37 0 -43 -49h-48z" />
    <glyph glyph-name="exclamdown" unicode="&#xa1;" horiz-adv-x="242" 
d="M93 -230v117q0 241 12 411h34q12 -170 12 -411v-117h-58zM93 363v137h58v-137h-58z" />
    <glyph glyph-name="cent" unicode="&#xa2;" 
d="M277 -130v122q-99 10 -161 80t-62 178t63 178t160 80v122h58v-122q71 -7 126 -47.5t78 -105.5l-52 -22q-21 60 -69 92.5t-111 32.5q-84 0 -139.5 -57.5t-55.5 -150.5q0 -94 56 -151t141 -57q65 0 113 34.5t68 94.5l53 -22q-25 -69 -79 -110t-129 -48v-121h-58z" />
    <glyph glyph-name="sterling" unicode="&#xa3;" 
d="M75 337v47h97q-58 90 -58 169q0 81 55 134t137 53q132 0 197 -111l-51 -30q-50 88 -148 88q-57 0 -94.5 -37.5t-37.5 -96.5q0 -31 10 -62.5t21 -52.5t32 -54h211v-47h-183q52 -91 52 -170q0 -32 -10 -65q25 -21 37.5 -30.5t33 -19t38.5 -9.5q28 0 39.5 14.5t11.5 45.5v66
h58v-65q0 -61 -28.5 -87.5t-82.5 -26.5q-52 0 -130 66q-44 -66 -122 -66q-52 0 -82 26.5t-30 68.5q0 41 28 67t73 26q55 0 115 -44q2 20 2 30q0 78 -63 173h-128zM159 36q62 0 89 49q-57 46 -96 46q-24 0 -38.5 -13.5t-14.5 -34.5q0 -22 16.5 -34.5t43.5 -12.5z" />
    <glyph glyph-name="currency" unicode="&#xa4;" horiz-adv-x="773" 
d="M391 102q-93 0 -164 57l-93 -97l-35 35l93 97q-60 71 -60 168t60 168l-93 97l34 35l94 -98q71 58 164 58q92 0 162 -57l88 92l34 -35l-87 -90q63 -74 63 -170q0 -99 -64 -171l87 -89l-35 -35l-88 90q-69 -55 -160 -55zM391 154q85 0 143.5 61t58.5 147t-58.5 147
t-143.5 61q-84 0 -142.5 -60.5t-58.5 -147.5t58.5 -147.5t142.5 -60.5z" />
    <glyph glyph-name="yen" unicode="&#xa5;" 
d="M97 338v48h171v6l-216 338h65l179 -282l179 282h64l-214 -337v-7h169v-48h-169v-120h169v-48h-169v-170h-57v170h-171v48h171v120h-171z" />
    <glyph glyph-name="brokenbar" unicode="&#xa6;" horiz-adv-x="217" 
d="M66 310v420h58v-420h-58zM66 -230v420h58v-420h-58z" />
    <glyph glyph-name="section" unicode="&#xa7;" horiz-adv-x="606" 
d="M302 -10q-104 0 -162 46t-64 111l58 13q3 -54 46 -88.5t124 -34.5q60 0 105 25.5t45 74.5q0 23 -11.5 38.5t-36 26t-51.5 17.5t-69 16q-7 1 -11 2q-110 23 -162.5 54t-52.5 88q0 39 25.5 71.5t69.5 46.5q-58 34 -58 96q0 69 55 108.5t142 38.5q99 0 152.5 -43.5
t60.5 -106.5l-56 -11q-10 115 -158 115q-60 0 -101 -24.5t-41 -74.5q0 -15 5 -27.5t18.5 -22t25.5 -16t37 -13.5t41.5 -11t49.5 -11q110 -24 161.5 -53.5t51.5 -87.5q0 -37 -25.5 -69.5t-67.5 -47.5q60 -33 60 -97q0 -68 -59 -109t-147 -40zM305 281q63 -13 93 -23
q43 12 65.5 36.5t22.5 54.5q0 21 -14 37t-43.5 28t-57 19.5t-73.5 16.5q-55 11 -93 24q-42 -6 -66.5 -31t-23.5 -57q0 -23 14 -40t45 -29.5t56.5 -19t74.5 -16.5z" />
    <glyph glyph-name="dieresis" unicode="&#xa8;" horiz-adv-x="506" 
d="M277 570v139h56v-139h-56zM160 570v139h56v-139h-56z" />
    <glyph glyph-name="copyright" unicode="&#xa9;" horiz-adv-x="858" 
d="M429 -10q-155 0 -265 110t-110 265t110 265t265 110t265 -110t110 -265t-110 -265t-265 -110zM429 41q134 0 226.5 95t92.5 229t-92.5 229t-226.5 95t-226.5 -95t-92.5 -229t92.5 -229t226.5 -95zM433 167q-84 0 -141.5 57.5t-57.5 140.5q0 82 58 140t141 58
q54 0 100 -26.5t71 -69.5l-49 -31q-17 32 -50 52.5t-73 20.5q-59 0 -101 -42.5t-42 -101.5q0 -60 42 -102.5t101 -42.5q43 0 76.5 22t49.5 57l50 -28q-24 -47 -71.5 -75.5t-103.5 -28.5z" />
    <glyph glyph-name="ordfeminine" unicode="&#xaa;" horiz-adv-x="418" 
d="M205 435q-57 0 -101 42t-44 108q0 67 44.5 109t101.5 42q73 0 112 -54v48h44v-289h-44v48q-39 -54 -113 -54zM213 476q45 0 75.5 32t30.5 78q0 45 -30.5 77t-75.5 32q-46 0 -77 -31.5t-31 -77.5t31 -78t77 -32z" />
    <glyph glyph-name="guillemotleft" unicode="&#xab;" horiz-adv-x="451" 
d="M222 115l-155 117v36l155 117v-45l-119 -91l119 -90v-44zM383 115l-154 117v36l154 117v-45l-118 -91l118 -90v-44z" />
    <glyph glyph-name="logicalnot" unicode="&#xac;" horiz-adv-x="603" 
d="M505 201v255h-471v55h529v-310h-58z" />
    <glyph glyph-name="uni00AD" unicode="&#xad;" horiz-adv-x="475" 
d="M53 226v51h370v-51h-370z" />
    <glyph glyph-name="registered" unicode="&#xae;" horiz-adv-x="858" 
d="M429 -125q-155 0 -265 110t-110 265t110 265t265 110t265 -110t110 -265t-110 -265t-265 -110zM429 -74q134 0 226.5 95t92.5 229t-92.5 229t-226.5 95t-226.5 -95t-92.5 -229t92.5 -229t226.5 -95zM299 69v374h148q62 0 100 -34.5t38 -84.5q0 -44 -24 -78t-66 -44
l90 -133h-64l-109 169h27q39 0 64.5 23.5t25.5 60.5q0 35 -25 54.5t-63 19.5h-88v-327h-54z" />
    <glyph glyph-name="macron" unicode="&#xaf;" horiz-adv-x="502" 
d="M120 565v50h264v-50h-264z" />
    <glyph glyph-name="degree" unicode="&#xb0;" horiz-adv-x="433" 
d="M217 517q-47 0 -79.5 32.5t-32.5 79.5q0 46 33 78.5t79 32.5t78.5 -32.5t32.5 -78.5q0 -47 -32.5 -79.5t-78.5 -32.5zM217 565q25 0 44 18.5t19 44.5t-19 44.5t-44 18.5t-44 -18.5t-19 -44.5t19 -44.5t44 -18.5z" />
    <glyph glyph-name="plusminus" unicode="&#xb1;" horiz-adv-x="475" 
d="M53 437v50h160v160h50v-160h160v-50h-160v-160h-50v160h-160zM53 131v50h370v-50h-370z" />
    <glyph glyph-name="twosuperior" unicode="&#xb2;" horiz-adv-x="344" 
d="M39 308v50q0 25 9.5 46.5t30 42t35 32.5t43.5 32q33 22 49 34.5t32 33.5t16 41q0 31 -22 50.5t-60 19.5q-62 0 -93 -65l-45 23q42 88 138 88q61 0 98 -33t37 -83q0 -31 -19 -60t-38 -44t-56 -41q-27 -18 -39 -27t-30 -25.5t-25.5 -32t-7.5 -32.5h216v-50h-269z" />
    <glyph glyph-name="threesuperior" unicode="&#xb3;" horiz-adv-x="329" 
d="M158 302q-85 0 -133 57l44 34q32 -43 89 -43q38 0 62.5 21t24.5 55q0 35 -25.5 55.5t-66.5 20.5h-42v48h42q40 0 62.5 20t22.5 52q0 31 -22.5 49.5t-59.5 18.5q-55 0 -83 -44l-44 25q19 29 52.5 47t74.5 18q61 0 96.5 -31t35.5 -83q0 -63 -57 -95q66 -30 66 -101
q0 -55 -37.5 -89.5t-101.5 -34.5z" />
    <glyph glyph-name="acute" unicode="&#xb4;" horiz-adv-x="502" 
d="M147 565l119 155h75l-140 -155h-54z" />
    <glyph glyph-name="mu" unicode="&#xb5;" horiz-adv-x="604" 
d="M71 -230v730h58v-276q0 -81 48 -131.5t123 -50.5q76 0 126.5 51t50.5 128v279h57v-500h-56v93q-26 -47 -74.5 -75t-109.5 -28q-104 0 -166 83v-303h-57z" />
    <glyph glyph-name="paragraph" unicode="&#xb6;" horiz-adv-x="575" 
d="M346 0v302h-91q-93 0 -155 62t-62 152t62 152t154 62h255v-730h-52v678h-60v-678h-51z" />
    <glyph glyph-name="periodcentered" unicode="&#xb7;" horiz-adv-x="191" 
d="M66 181v137h58v-137h-58z" />
    <glyph glyph-name="cedilla" unicode="&#xb8;" horiz-adv-x="502" 
d="M248 -227q-83 0 -139 53l46 28q45 -38 93 -38q35 0 57.5 14t22.5 36q0 20 -22 32t-61 12h-33v90h49v-53q54 -1 87.5 -22.5t33.5 -56.5q0 -42 -38.5 -68.5t-95.5 -26.5z" />
    <glyph glyph-name="onesuperior" unicode="&#xb9;" horiz-adv-x="286" 
d="M37 308v49h84v285q-9 -15 -29.5 -25.5t-40.5 -10.5h-6v55h3q38 0 56 21t18 48h51v-373h81v-49h-217z" />
    <glyph glyph-name="ordmasculine" unicode="&#xba;" horiz-adv-x="421" 
d="M210 435q-62 0 -106 44t-44 106q0 63 44 107t106 44q63 0 107 -44t44 -107q0 -62 -44 -106t-107 -44zM210 478q45 0 75.5 31t30.5 76t-30.5 76.5t-75.5 31.5q-44 0 -74.5 -31.5t-30.5 -76.5q0 -44 31 -75.5t74 -31.5z" />
    <glyph glyph-name="guillemotright" unicode="&#xbb;" horiz-adv-x="451" 
d="M67 116v44l119 90l-119 90v45l155 -117v-35zM229 116v44l119 90l-119 90v45l154 -117v-35z" />
    <glyph glyph-name="onequarter" unicode="&#xbc;" horiz-adv-x="781" 
d="M627 0v97h-195v48l193 277h54v-277h61v-48h-61v-97h-52zM105 0l527 730h68l-527 -730h-68zM37 308v49h84v285q-9 -15 -29.5 -25.5t-40.5 -10.5h-6v55h3q38 0 56 21t18 48h51v-373h81v-49h-217zM489 145h138v196z" />
    <glyph glyph-name="onehalf" unicode="&#xbd;" horiz-adv-x="831" 
d="M523 0v50q0 25 9.5 46.5t30 42t35 32.5t43.5 32q33 22 49 34.5t32 33.5t16 41q0 31 -22 50.5t-60 19.5q-62 0 -93 -65l-45 23q42 88 138 88q61 0 98 -33t37 -83q0 -31 -19 -60t-38 -44t-56 -41q-27 -18 -39 -27t-30 -25.5t-25.5 -32t-7.5 -32.5h216v-50h-269zM37 308v49
h84v285q-9 -15 -29.5 -25.5t-40.5 -10.5h-6v55h3q38 0 56 21t18 48h51v-373h81v-49h-217zM105 0l527 730h68l-527 -730h-68z" />
    <glyph glyph-name="threequarters" unicode="&#xbe;" horiz-adv-x="811" 
d="M158 302q-85 0 -133 57l44 34q32 -43 89 -43q38 0 62.5 21t24.5 55q0 35 -25.5 55.5t-66.5 20.5h-42v48h42q40 0 62.5 20t22.5 52q0 31 -22.5 49.5t-59.5 18.5q-55 0 -83 -44l-44 25q19 29 52.5 47t74.5 18q61 0 96.5 -31t35.5 -83q0 -63 -57 -95q66 -30 66 -101
q0 -55 -37.5 -89.5t-101.5 -34.5zM136 0l527 730h68l-527 -730h-68zM658 0v97h-195v48l193 277h54v-277h61v-48h-61v-97h-52zM520 145h138v196z" />
    <glyph glyph-name="questiondown" unicode="&#xbf;" horiz-adv-x="539" 
d="M267 -240q-91 0 -151 49t-60 128q0 44 14.5 76.5t37 50.5l48 39.5t48 43t37 61t14.5 93.5v8h53v-8q0 -70 -20 -119t-48.5 -75t-57 -47.5t-48.5 -51.5t-20 -72q0 -55 44 -90t109 -35q109 0 163 97l51 -24q-28 -55 -83.5 -89.5t-130.5 -34.5zM252 363v137h58v-137h-58z" />
    <glyph glyph-name="Agrave" unicode="&#xc0;" horiz-adv-x="698" 
d="M37 0l281 730h62l281 -730h-61l-79 204h-345l-78 -204h-61zM349 653l-152 -394h303zM318 795l-140 155h74l120 -155h-54z" />
    <glyph glyph-name="Aacute" unicode="&#xc1;" horiz-adv-x="698" 
d="M37 0l281 730h62l281 -730h-61l-79 204h-345l-78 -204h-61zM349 653l-152 -394h303zM315 795l119 155h75l-140 -155h-54z" />
    <glyph glyph-name="Acircumflex" unicode="&#xc2;" horiz-adv-x="698" 
d="M37 0l281 730h62l281 -730h-61l-79 204h-345l-78 -204h-61zM349 653l-152 -394h303zM200 795l119 155h49l119 -155h-61l-83 110l-83 -110h-60z" />
    <glyph glyph-name="Atilde" unicode="&#xc3;" horiz-adv-x="698" 
d="M37 0l281 730h62l281 -730h-61l-79 204h-345l-78 -204h-61zM349 653l-152 -394h303zM170 795q0 49 26 78.5t67 29.5q37 0 86 -30q52 -31 72 -31q50 0 50 58h46q0 -51 -25 -80t-70 -29q-35 0 -94 35q-4 2 -13 7.5t-13.5 8t-11.5 5.5t-13.5 4.5t-13.5 1.5q-21 0 -33.5 -15
t-12.5 -43h-47z" />
    <glyph glyph-name="Adieresis" unicode="&#xc4;" horiz-adv-x="698" 
d="M37 0l281 730h62l281 -730h-61l-79 204h-345l-78 -204h-61zM349 653l-152 -394h303zM377 800v139h56v-139h-56zM260 800v139h56v-139h-56z" />
    <glyph glyph-name="Aring" unicode="&#xc5;" horiz-adv-x="698" 
d="M37 0l268 697q-27 11 -43 36t-16 55q0 42 28.5 71t69.5 29q43 0 72 -29t29 -71q0 -59 -54 -88l270 -700h-61l-79 204h-345l-78 -204h-61zM349 653l-152 -394h303zM344 734q23 0 39.5 16t16.5 38q0 23 -16.5 39t-39.5 16q-22 0 -38 -16.5t-16 -38.5t16 -38t38 -16z" />
    <glyph glyph-name="AE" unicode="&#xc6;" horiz-adv-x="1037" 
d="M31 0l370 730h561v-55h-485l63 -282h422v-54h-410l63 -284h347v-55h-393l-45 199h-327l-100 -199h-66zM424 647l-200 -395h288z" />
    <glyph glyph-name="Ccedilla" unicode="&#xc7;" horiz-adv-x="796" 
d="M430 -227q-83 0 -139 53l46 28q45 -38 93 -38q35 0 57.5 14t22.5 36q0 20 -22 32t-61 12h-33v82q-144 13 -242.5 120t-98.5 253q0 155 110 265t265 110q101 0 186 -50t136 -134l-50 -29q-42 72 -113.5 115.5t-158.5 43.5q-133 0 -224.5 -94t-91.5 -227t91.5 -226.5
t224.5 -93.5q94 0 167.5 45.5t113.5 122.5l51 -26q-47 -87 -130.5 -140t-186.5 -57v-43q54 -1 87.5 -22.5t33.5 -56.5q0 -42 -38.5 -68.5t-95.5 -26.5z" />
    <glyph glyph-name="Egrave" unicode="&#xc8;" horiz-adv-x="587" 
d="M75 0v730h447v-55h-389v-282h389v-54h-389v-284h389v-55h-447zM280 795l-140 155h74l120 -155h-54z" />
    <glyph glyph-name="Eacute" unicode="&#xc9;" horiz-adv-x="587" 
d="M253 795l119 155h75l-140 -155h-54zM75 0v730h447v-55h-389v-282h389v-54h-389v-284h389v-55h-447z" />
    <glyph glyph-name="Ecircumflex" unicode="&#xca;" horiz-adv-x="587" 
d="M151 795l119 155h49l119 -155h-61l-83 110l-83 -110h-60zM75 0v730h447v-55h-389v-282h389v-54h-389v-284h389v-55h-447z" />
    <glyph glyph-name="Edieresis" unicode="&#xcb;" horiz-adv-x="587" 
d="M328 800v139h56v-139h-56zM211 800v139h56v-139h-56zM75 0v730h447v-55h-389v-282h389v-54h-389v-284h389v-55h-447z" />
    <glyph glyph-name="Igrave" unicode="&#xcc;" horiz-adv-x="227" 
d="M85 0v730h57v-730h-57zM87 795l-140 155h74l120 -155h-54z" />
    <glyph glyph-name="Iacute" unicode="&#xcd;" horiz-adv-x="227" 
d="M85 0v730h57v-730h-57zM83 795l119 155h75l-140 -155h-54z" />
    <glyph glyph-name="Icircumflex" unicode="&#xce;" horiz-adv-x="227" 
d="M85 0v730h57v-730h-57zM-31 795l119 155h49l119 -155h-61l-83 110l-83 -110h-60z" />
    <glyph glyph-name="Idieresis" unicode="&#xcf;" horiz-adv-x="227" 
d="M185 800v139h56v-139h-56zM-15 800v139h56v-139h-56zM85 0v730h57v-730h-57z" />
    <glyph glyph-name="Eth" unicode="&#xd0;" horiz-adv-x="731" 
d="M22 341v56h75v333h203q165 0 272 -104.5t107 -260.5t-108.5 -260.5t-268.5 -104.5h-205v341h-75zM295 677h-140v-280h231v-56h-231v-287h142q138 0 231 89t93 222q0 134 -92 223t-234 89z" />
    <glyph glyph-name="Ntilde" unicode="&#xd1;" horiz-adv-x="742" 
d="M75 0v730h64l470 -640v640h58v-730h-62l-472 643v-643h-58zM197 795q0 49 26 78.5t67 29.5q37 0 86 -30q52 -31 72 -31q50 0 50 58h46q0 -51 -25 -80t-70 -29q-35 0 -94 35q-4 2 -13 7.5t-13.5 8t-11.5 5.5t-13.5 4.5t-13.5 1.5q-21 0 -33.5 -15t-12.5 -43h-47z" />
    <glyph glyph-name="Ograve" unicode="&#xd2;" horiz-adv-x="855" 
d="M428 -10q-155 0 -265 110t-110 265t110 265t265 110t265 -110t110 -265t-110 -265t-265 -110zM428 45q133 0 224 93.5t91 226.5t-91 226.5t-224 93.5t-224.5 -93.5t-91.5 -226.5t91.5 -226.5t224.5 -93.5zM398 795l-140 155h74l120 -155h-54z" />
    <glyph glyph-name="Oacute" unicode="&#xd3;" horiz-adv-x="855" 
d="M391 795l119 155h75l-140 -155h-54zM428 -10q-155 0 -265 110t-110 265t110 265t265 110t265 -110t110 -265t-110 -265t-265 -110zM428 45q133 0 224 93.5t91 226.5t-91 226.5t-224 93.5t-224.5 -93.5t-91.5 -226.5t91.5 -226.5t224.5 -93.5z" />
    <glyph glyph-name="Ocircumflex" unicode="&#xd4;" horiz-adv-x="855" 
d="M280 795l119 155h49l119 -155h-61l-83 110l-83 -110h-60zM428 -10q-155 0 -265 110t-110 265t110 265t265 110t265 -110t110 -265t-110 -265t-265 -110zM428 45q133 0 224 93.5t91 226.5t-91 226.5t-224 93.5t-224.5 -93.5t-91.5 -226.5t91.5 -226.5t224.5 -93.5z" />
    <glyph glyph-name="Otilde" unicode="&#xd5;" horiz-adv-x="855" 
d="M428 -10q-155 0 -265 110t-110 265t110 265t265 110t265 -110t110 -265t-110 -265t-265 -110zM428 45q133 0 224 93.5t91 226.5t-91 226.5t-224 93.5t-224.5 -93.5t-91.5 -226.5t91.5 -226.5t224.5 -93.5zM248 795q0 49 26 78.5t67 29.5q37 0 86 -30q52 -31 72 -31
q50 0 50 58h46q0 -51 -25 -80t-70 -29q-35 0 -94 35q-4 2 -13 7.5t-13.5 8t-11.5 5.5t-13.5 4.5t-13.5 1.5q-21 0 -33.5 -15t-12.5 -43h-47z" />
    <glyph glyph-name="Odieresis" unicode="&#xd6;" horiz-adv-x="855" 
d="M456 800v139h56v-139h-56zM339 800v139h56v-139h-56zM428 -10q-155 0 -265 110t-110 265t110 265t265 110t265 -110t110 -265t-110 -265t-265 -110zM428 45q133 0 224 93.5t91 226.5t-91 226.5t-224 93.5t-224.5 -93.5t-91.5 -226.5t91.5 -226.5t224.5 -93.5z" />
    <glyph glyph-name="multiply" unicode="&#xd7;" horiz-adv-x="475" 
d="M110 202l-34 34l128 128l-128 129l34 34l128 -129l128 128l34 -34l-128 -128l128 -127l-34 -34l-128 127z" />
    <glyph glyph-name="Oslash" unicode="&#xd8;" horiz-adv-x="855" 
d="M120 0l62 82q-60 53 -94.5 126.5t-34.5 156.5q0 155 110 265t265 110q111 0 203 -60l38 50h68l-63 -83q60 -53 94.5 -126t34.5 -156q0 -155 -110 -265t-265 -110q-113 0 -203 59l-37 -49h-68zM112 365q0 -70 27 -132t76 -106l383 508q-77 50 -170 50q-133 0 -224.5 -93.5
t-91.5 -226.5zM428 45q133 0 224 93.5t91 226.5q0 142 -103 237l-382 -508q77 -49 170 -49z" />
    <glyph glyph-name="Ugrave" unicode="&#xd9;" horiz-adv-x="641" 
d="M320 -10q-106 0 -177 71.5t-71 176.5v492h58v-495q0 -79 55 -134.5t135 -55.5t135.5 55.5t55.5 135.5v494h58v-492q0 -105 -71.5 -176.5t-177.5 -71.5zM297 795l-140 155h74l120 -155h-54z" />
    <glyph glyph-name="Uacute" unicode="&#xda;" horiz-adv-x="641" 
d="M280 795l119 155h75l-140 -155h-54zM320 -10q-106 0 -177 71.5t-71 176.5v492h58v-495q0 -79 55 -134.5t135 -55.5t135.5 55.5t55.5 135.5v494h58v-492q0 -105 -71.5 -176.5t-177.5 -71.5z" />
    <glyph glyph-name="Ucircumflex" unicode="&#xdb;" horiz-adv-x="641" 
d="M174 795l119 155h49l119 -155h-61l-83 110l-83 -110h-60zM320 -10q-106 0 -177 71.5t-71 176.5v492h58v-495q0 -79 55 -134.5t135 -55.5t135.5 55.5t55.5 135.5v494h58v-492q0 -105 -71.5 -176.5t-177.5 -71.5z" />
    <glyph glyph-name="Udieresis" unicode="&#xdc;" horiz-adv-x="641" 
d="M350 800v139h56v-139h-56zM233 800v139h56v-139h-56zM320 -10q-106 0 -177 71.5t-71 176.5v492h58v-495q0 -79 55 -134.5t135 -55.5t135.5 55.5t55.5 135.5v494h58v-492q0 -105 -71.5 -176.5t-177.5 -71.5z" />
    <glyph glyph-name="Yacute" unicode="&#xdd;" horiz-adv-x="612" 
d="M278 0v347l-245 383h65l208 -328l208 328h65l-243 -381v-349h-58zM272 795l119 155h75l-140 -155h-54z" />
    <glyph glyph-name="Thorn" unicode="&#xde;" horiz-adv-x="571" 
d="M73 0v730h58v-153h157q102 0 164 -57t62 -147t-62 -147.5t-164 -57.5h-157v-168h-58zM284 523h-153v-302h153q78 0 124.5 42t46.5 110q0 67 -46.5 108.5t-124.5 41.5z" />
    <glyph glyph-name="germandbls" unicode="&#xdf;" horiz-adv-x="550" 
d="M-50 -229v54q68 0 94.5 31t26.5 101v583q-1 87 53.5 141.5t142.5 54.5q84 0 139.5 -54t55.5 -135q0 -53 -26.5 -95t-72.5 -65q63 -21 100 -70t37 -116q0 -90 -57 -149t-150 -59q-63 0 -102 22l3 54q42 -24 99 -24q62 0 105.5 45.5t43.5 110.5t-47.5 109.5t-122.5 44.5
h-18v54h18q53 0 92.5 40t39.5 100q0 57 -39.5 98t-98.5 41t-99.5 -39t-40.5 -103v-588q0 -99 -38.5 -143t-127.5 -44h-10z" />
    <glyph glyph-name="agrave" unicode="&#xe0;" horiz-adv-x="637" 
d="M307 -10q-109 0 -183 76t-74 184t74 184t183 76q59 0 115.5 -30.5t86.5 -83.5v104h57v-500h-57v104q-30 -53 -86.5 -83.5t-115.5 -30.5zM310 42q87 0 146 60.5t59 147.5q0 86 -59.5 147t-145.5 61q-85 0 -144 -61t-59 -147t59 -147t144 -61zM287 565l-140 155h74
l120 -155h-54z" />
    <glyph glyph-name="aacute" unicode="&#xe1;" horiz-adv-x="637" 
d="M307 -10q-109 0 -183 76t-74 184t74 184t183 76q59 0 115.5 -30.5t86.5 -83.5v104h57v-500h-57v104q-30 -53 -86.5 -83.5t-115.5 -30.5zM310 42q87 0 146 60.5t59 147.5q0 86 -59.5 147t-145.5 61q-85 0 -144 -61t-59 -147t59 -147t144 -61zM272 565l119 155h75
l-140 -155h-54z" />
    <glyph glyph-name="acircumflex" unicode="&#xe2;" horiz-adv-x="637" 
d="M307 -10q-109 0 -183 76t-74 184t74 184t183 76q59 0 115.5 -30.5t86.5 -83.5v104h57v-500h-57v104q-30 -53 -86.5 -83.5t-115.5 -30.5zM310 42q87 0 146 60.5t59 147.5q0 86 -59.5 147t-145.5 61q-85 0 -144 -61t-59 -147t59 -147t144 -61zM179 565l119 155h49l119 -155
h-61l-83 110l-83 -110h-60z" />
    <glyph glyph-name="atilde" unicode="&#xe3;" horiz-adv-x="637" 
d="M307 -10q-109 0 -183 76t-74 184t74 184t183 76q59 0 115.5 -30.5t86.5 -83.5v104h57v-500h-57v104q-30 -53 -86.5 -83.5t-115.5 -30.5zM310 42q87 0 146 60.5t59 147.5q0 86 -59.5 147t-145.5 61q-85 0 -144 -61t-59 -147t59 -147t144 -61zM153 565q0 49 26 78.5
t67 29.5q37 0 86 -30q52 -31 72 -31q50 0 50 58h46q0 -51 -25 -80t-70 -29q-35 0 -94 35q-4 2 -13 7.5t-13.5 8t-11.5 5.5t-13.5 4.5t-13.5 1.5q-21 0 -33.5 -15t-12.5 -43h-47z" />
    <glyph glyph-name="adieresis" unicode="&#xe4;" horiz-adv-x="637" 
d="M307 -10q-109 0 -183 76t-74 184t74 184t183 76q59 0 115.5 -30.5t86.5 -83.5v104h57v-500h-57v104q-30 -53 -86.5 -83.5t-115.5 -30.5zM310 42q87 0 146 60.5t59 147.5q0 86 -59.5 147t-145.5 61q-85 0 -144 -61t-59 -147t59 -147t144 -61zM351 570v139h56v-139h-56z
M234 570v139h56v-139h-56z" />
    <glyph glyph-name="aring" unicode="&#xe5;" horiz-adv-x="637" 
d="M307 -10q-109 0 -183 76t-74 184t74 184t183 76q59 0 115.5 -30.5t86.5 -83.5v104h57v-500h-57v104q-30 -53 -86.5 -83.5t-115.5 -30.5zM310 42q87 0 146 60.5t59 147.5q0 86 -59.5 147t-145.5 61q-85 0 -144 -61t-59 -147t59 -147t144 -61zM312 558q-41 0 -69.5 29
t-28.5 70q0 42 28.5 71t69.5 29q43 0 72 -29t29 -71q0 -41 -29 -70t-72 -29zM312 603q23 0 39.5 16t16.5 38q0 23 -16.5 39t-39.5 16q-22 0 -38 -16.5t-16 -38.5t16 -38t38 -16z" />
    <glyph glyph-name="ae" unicode="&#xe6;" horiz-adv-x="974" 
d="M670 -10q-76 0 -135.5 33t-92.5 90q-28 -51 -85 -87t-133 -36q-89 0 -131.5 37t-43.5 98q0 35 13.5 61.5t41 44t58 28t72.5 19.5l29.5 6t30 6.5l27.5 6.5t26.5 7.5l22 8.5t19 10.5t13.5 12.5t10 15.5t3 18.5q0 42 -37 68t-107 26q-74 0 -116.5 -36t-42.5 -95v-3h-53v2
q0 81 57 129.5t154 48.5q75 0 124 -26.5t66 -73.5q35 47 89 73.5t117 26.5q110 0 183.5 -71.5t73.5 -182.5v-22h-461q5 -84 63.5 -138.5t144.5 -54.5q69 0 119 36.5t72 96.5l51 -23q-29 -75 -92 -118t-150 -43zM666 459q-77 0 -133 -48.5t-68 -124.5h399q-9 78 -62.5 125.5
t-135.5 47.5zM226 38q70 0 121 39.5t71 89.5q-11 39 -11 80q0 21 3 42q-14 -18 -47.5 -29t-104.5 -25q-76 -14 -113.5 -37t-37.5 -72q0 -39 29 -63.5t90 -24.5z" />
    <glyph glyph-name="ccedilla" unicode="&#xe7;" horiz-adv-x="593" 
d="M317 -227q-83 0 -139 53l46 28q45 -38 93 -38q35 0 57.5 14t22.5 36q0 20 -22 32t-61 12h-33v82q-100 11 -165.5 84t-65.5 174q0 111 75.5 185.5t185.5 74.5q80 0 143.5 -41.5t92.5 -110.5l-52 -22q-25 57 -73 89.5t-112 32.5q-86 0 -144.5 -60.5t-58.5 -147.5
t59.5 -147.5t146.5 -60.5q64 0 112 35t72 92l53 -22q-29 -68 -86 -110t-134 -46v-44q54 -1 87.5 -22.5t33.5 -56.5q0 -42 -38.5 -68.5t-95.5 -26.5z" />
    <glyph glyph-name="egrave" unicode="&#xe8;" horiz-adv-x="615" 
d="M313 -10q-119 0 -191 72.5t-72 184.5t74 187.5t185 75.5q110 0 183 -71t73 -183v-25h-461q6 -83 63 -136.5t145 -53.5q135 0 189 125l50 -24q-71 -152 -238 -152zM309 459q-78 0 -134.5 -49.5t-68.5 -126.5h400q-8 80 -61.5 128t-135.5 48zM287 565l-140 155h74l120 -155
h-54z" />
    <glyph glyph-name="eacute" unicode="&#xe9;" horiz-adv-x="615" 
d="M272 565l119 155h75l-140 -155h-54zM313 -10q-119 0 -191 72.5t-72 184.5t74 187.5t185 75.5q110 0 183 -71t73 -183v-25h-461q6 -83 63 -136.5t145 -53.5q135 0 189 125l50 -24q-71 -152 -238 -152zM309 459q-78 0 -134.5 -49.5t-68.5 -126.5h400q-8 80 -61.5 128
t-135.5 48z" />
    <glyph glyph-name="ecircumflex" unicode="&#xea;" horiz-adv-x="615" 
d="M313 -10q-119 0 -191 72.5t-72 184.5t74 187.5t185 75.5q110 0 183 -71t73 -183v-25h-461q6 -83 63 -136.5t145 -53.5q135 0 189 125l50 -24q-71 -152 -238 -152zM309 459q-78 0 -134.5 -49.5t-68.5 -126.5h400q-8 80 -61.5 128t-135.5 48zM166 565l119 155h49l119 -155
h-61l-83 110l-83 -110h-60z" />
    <glyph glyph-name="edieresis" unicode="&#xeb;" horiz-adv-x="615" 
d="M313 -10q-119 0 -191 72.5t-72 184.5t74 187.5t185 75.5q110 0 183 -71t73 -183v-25h-461q6 -83 63 -136.5t145 -53.5q135 0 189 125l50 -24q-71 -152 -238 -152zM309 459q-78 0 -134.5 -49.5t-68.5 -126.5h400q-8 80 -61.5 128t-135.5 48zM225 570v139h56v-139h-56z
M342 570v139h56v-139h-56z" />
    <glyph glyph-name="igrave" unicode="&#xec;" horiz-adv-x="199" 
d="M71 0v500h57v-500h-57zM77 565l-140 155h74l120 -155h-54z" />
    <glyph glyph-name="iacute" unicode="&#xed;" horiz-adv-x="199" 
d="M72 565l119 155h75l-140 -155h-54zM71 0v500h57v-500h-57z" />
    <glyph glyph-name="icircumflex" unicode="&#xee;" horiz-adv-x="199" 
d="M-45 565l119 155h49l119 -155h-61l-83 110l-83 -110h-60zM71 0v500h57v-500h-57z" />
    <glyph glyph-name="idieresis" unicode="&#xef;" horiz-adv-x="199" 
d="M170 570v139h57v-139h-57zM-28 570v139h56v-139h-56zM71 0v500h57v-500h-57z" />
    <glyph glyph-name="eth" unicode="&#xf0;" horiz-adv-x="611" 
d="M152 544l128 90q-54 46 -123 96h88l78 -65l93 65h67l-130 -92q206 -196 206 -395q0 -105 -73.5 -177.5t-180.5 -72.5q-106 0 -179.5 72t-73.5 178q0 105 72.5 177.5t174.5 72.5q106 0 163 -71q-44 89 -152 186l-90 -64h-68zM306 46q81 0 138 57.5t57 139.5
q0 81 -57 138.5t-138 57.5q-80 0 -138 -57.5t-58 -138.5t58 -139t138 -58z" />
    <glyph glyph-name="ntilde" unicode="&#xf1;" horiz-adv-x="602" 
d="M71 0v500h55v-94q26 47 75 75.5t111 28.5q101 0 161 -61.5t60 -168.5v-280h-57v280q0 81 -45 129.5t-126 48.5q-76 0 -127 -51.5t-51 -127.5v-279h-56zM122 565q0 49 26 78.5t67 29.5q37 0 86 -30q52 -31 72 -31q50 0 50 58h46q0 -51 -25 -80t-70 -29q-35 0 -94 35
q-4 2 -13 7.5t-13.5 8t-11.5 5.5t-13.5 4.5t-13.5 1.5q-21 0 -33.5 -15t-12.5 -43h-47z" />
    <glyph glyph-name="ograve" unicode="&#xf2;" horiz-adv-x="619" 
d="M309 -10q-108 0 -183.5 75.5t-75.5 184.5t75.5 184.5t183.5 75.5t184 -75.5t76 -184.5t-76 -184.5t-184 -75.5zM309 42q85 0 143.5 61t58.5 147t-58.5 147t-143.5 61t-143.5 -61t-58.5 -147t58.5 -147t143.5 -61zM285 565l-140 155h74l120 -155h-54z" />
    <glyph glyph-name="oacute" unicode="&#xf3;" horiz-adv-x="619" 
d="M273 565l119 155h75l-140 -155h-54zM309 -10q-108 0 -183.5 75.5t-75.5 184.5t75.5 184.5t183.5 75.5t184 -75.5t76 -184.5t-76 -184.5t-184 -75.5zM309 42q85 0 143.5 61t58.5 147t-58.5 147t-143.5 61t-143.5 -61t-58.5 -147t58.5 -147t143.5 -61z" />
    <glyph glyph-name="ocircumflex" unicode="&#xf4;" horiz-adv-x="619" 
d="M309 -10q-108 0 -183.5 75.5t-75.5 184.5t75.5 184.5t183.5 75.5t184 -75.5t76 -184.5t-76 -184.5t-184 -75.5zM309 42q85 0 143.5 61t58.5 147t-58.5 147t-143.5 61t-143.5 -61t-58.5 -147t58.5 -147t143.5 -61zM164 565l119 155h49l119 -155h-61l-83 110l-83 -110h-60z
" />
    <glyph glyph-name="otilde" unicode="&#xf5;" horiz-adv-x="619" 
d="M309 -10q-108 0 -183.5 75.5t-75.5 184.5t75.5 184.5t183.5 75.5t184 -75.5t76 -184.5t-76 -184.5t-184 -75.5zM309 42q85 0 143.5 61t58.5 147t-58.5 147t-143.5 61t-143.5 -61t-58.5 -147t58.5 -147t143.5 -61zM136 565q0 49 26 78.5t67 29.5q37 0 86 -30
q52 -31 72 -31q50 0 50 58h46q0 -51 -25 -80t-70 -29q-35 0 -94 35q-4 2 -13 7.5t-13.5 8t-11.5 5.5t-13.5 4.5t-13.5 1.5q-21 0 -33.5 -15t-12.5 -43h-47z" />
    <glyph glyph-name="odieresis" unicode="&#xf6;" horiz-adv-x="619" 
d="M341 570v139h56v-139h-56zM224 570v139h56v-139h-56zM309 -10q-108 0 -183.5 75.5t-75.5 184.5t75.5 184.5t183.5 75.5t184 -75.5t76 -184.5t-76 -184.5t-184 -75.5zM309 42q85 0 143.5 61t58.5 147t-58.5 147t-143.5 61t-143.5 -61t-58.5 -147t58.5 -147t143.5 -61z" />
    <glyph glyph-name="divide" unicode="&#xf7;" horiz-adv-x="475" 
d="M53 340v50h370v-50h-370zM213 444v122h50v-122h-50zM213 163v121h50v-121h-50z" />
    <glyph glyph-name="oslash" unicode="&#xf8;" horiz-adv-x="619" 
d="M309 -10q-74 0 -136 38l-21 -28h-62l43 57q-83 76 -83 193q0 109 75.5 184.5t183.5 75.5q73 0 136 -38l21 28h63l-44 -58q84 -76 84 -192q0 -109 -76 -184.5t-184 -75.5zM107 250q0 -88 59 -149l246 328q-48 29 -103 29q-85 0 -143.5 -61t-58.5 -147zM309 42
q85 0 143.5 61t58.5 147t-59 147l-247 -326q46 -29 104 -29z" />
    <glyph glyph-name="ugrave" unicode="&#xf9;" horiz-adv-x="602" 
d="M292 -10q-105 0 -164 61t-59 169v280h57v-280q0 -81 45 -129.5t126 -48.5q75 0 126 51.5t51 127.5v279h57v-500h-56v92q-26 -47 -74.5 -74.5t-108.5 -27.5zM281 565l-140 155h74l120 -155h-54z" />
    <glyph glyph-name="uacute" unicode="&#xfa;" horiz-adv-x="602" 
d="M292 -10q-105 0 -164 61t-59 169v280h57v-280q0 -81 45 -129.5t126 -48.5q75 0 126 51.5t51 127.5v279h57v-500h-56v92q-26 -47 -74.5 -74.5t-108.5 -27.5zM260 565l119 155h75l-140 -155h-54z" />
    <glyph glyph-name="ucircumflex" unicode="&#xfb;" horiz-adv-x="602" 
d="M292 -10q-105 0 -164 61t-59 169v280h57v-280q0 -81 45 -129.5t126 -48.5q75 0 126 51.5t51 127.5v279h57v-500h-56v92q-26 -47 -74.5 -74.5t-108.5 -27.5zM153 565l119 155h49l119 -155h-61l-83 110l-83 -110h-60z" />
    <glyph glyph-name="udieresis" unicode="&#xfc;" horiz-adv-x="602" 
d="M292 -10q-105 0 -164 61t-59 169v280h57v-280q0 -81 45 -129.5t126 -48.5q75 0 126 51.5t51 127.5v279h57v-500h-56v92q-26 -47 -74.5 -74.5t-108.5 -27.5zM214 570v139h56v-139h-56zM331 570v139h56v-139h-56z" />
    <glyph glyph-name="yacute" unicode="&#xfd;" horiz-adv-x="559" 
d="M141 -231l115 259l-221 472h63l189 -407l176 407h62l-323 -731h-61zM245 565l119 155h75l-140 -155h-54z" />
    <glyph glyph-name="thorn" unicode="&#xfe;" horiz-adv-x="637" 
d="M330 -10q-64 0 -118 29.5t-85 79.5v-329h-55v960h55v-332q32 51 86.5 81.5t117.5 30.5q110 0 183.5 -75t73.5 -184t-74.5 -185t-183.5 -76zM328 42q86 0 144 61.5t58 147.5t-57.5 146.5t-143.5 60.5t-145.5 -60.5t-59.5 -147.5q0 -85 60 -146.5t144 -61.5z" />
    <glyph glyph-name="ydieresis" unicode="&#xff;" horiz-adv-x="559" 
d="M141 -231l115 259l-221 472h63l189 -407l176 407h62l-323 -731h-61zM195 570v139h56v-139h-56zM312 570v139h56v-139h-56z" />
    <glyph glyph-name="Amacron" unicode="&#x100;" horiz-adv-x="698" 
d="M37 0l281 730h62l281 -730h-61l-79 204h-345l-78 -204h-61zM349 653l-152 -394h303zM214 795v50h264v-50h-264z" />
    <glyph glyph-name="amacron" unicode="&#x101;" horiz-adv-x="637" 
d="M307 -10q-109 0 -183 76t-74 184t74 184t183 76q59 0 115.5 -30.5t86.5 -83.5v104h57v-500h-57v104q-30 -53 -86.5 -83.5t-115.5 -30.5zM310 42q87 0 146 60.5t59 147.5q0 86 -59.5 147t-145.5 61q-85 0 -144 -61t-59 -147t59 -147t144 -61zM198 565v50h264v-50h-264z
" />
    <glyph glyph-name="Abreve" unicode="&#x102;" horiz-adv-x="698" 
d="M37 0l281 730h62l281 -730h-61l-79 204h-345l-78 -204h-61zM349 653l-152 -394h303zM344 791q-78 0 -119.5 45t-41.5 112h49q0 -49 29.5 -81t82.5 -32q52 0 81.5 32.5t29.5 80.5h51q0 -65 -44.5 -111t-117.5 -46z" />
    <glyph glyph-name="abreve" unicode="&#x103;" horiz-adv-x="637" 
d="M307 -10q-109 0 -183 76t-74 184t74 184t183 76q59 0 115.5 -30.5t86.5 -83.5v104h57v-500h-57v104q-30 -53 -86.5 -83.5t-115.5 -30.5zM310 42q87 0 146 60.5t59 147.5q0 86 -59.5 147t-145.5 61q-85 0 -144 -61t-59 -147t59 -147t144 -61zM317 558q-78 0 -119.5 45
t-41.5 112h49q0 -49 29.5 -81t82.5 -32q52 0 81.5 32.5t29.5 80.5h51q0 -65 -44.5 -111t-117.5 -46z" />
    <glyph glyph-name="Aogonek" unicode="&#x104;" horiz-adv-x="698" 
d="M610 -208q-57 0 -93 27t-36 68q0 71 113 128l-73 189h-345l-78 -204h-61l281 730h62l281 -730q-70 -38 -96 -62t-26 -48t20 -37.5t51 -13.5q41 0 86 39l45 -31q-61 -55 -131 -55zM349 653l-152 -394h303z" />
    <glyph glyph-name="aogonek" unicode="&#x105;" horiz-adv-x="637" 
d="M543 -218q-55 0 -84 29t-29 72q0 64 79 129v92q-30 -53 -86.5 -83.5t-115.5 -30.5q-109 0 -183 76t-74 184t74 184t183 76q59 0 115.5 -30.5t86.5 -83.5v104h57v-500q-82 -67 -82 -115q0 -24 16 -39t43 -15q36 0 73 32l33 -40q-50 -41 -106 -41zM310 42q87 0 146 60.5
t59 147.5q0 86 -59.5 147t-145.5 61q-85 0 -144 -61t-59 -147t59 -147t144 -61z" />
    <glyph glyph-name="Cacute" unicode="&#x106;" horiz-adv-x="796" 
d="M394 795l119 155h75l-140 -155h-54zM428 -10q-155 0 -265 110t-110 265t110 265t265 110q101 0 186 -50t136 -134l-50 -29q-42 72 -113.5 115.5t-158.5 43.5q-133 0 -224.5 -94t-91.5 -227t91.5 -226.5t224.5 -93.5q94 0 167.5 45.5t113.5 122.5l51 -26
q-49 -90 -136.5 -143.5t-195.5 -53.5z" />
    <glyph glyph-name="cacute" unicode="&#x107;" horiz-adv-x="593" 
d="M272 565l119 155h75l-140 -155h-54zM312 -10q-112 0 -187 75.5t-75 184.5q0 111 75.5 185.5t185.5 74.5q80 0 143.5 -41.5t92.5 -110.5l-52 -22q-25 57 -73 89.5t-112 32.5q-86 0 -144.5 -60.5t-58.5 -147.5t59.5 -147.5t146.5 -60.5q64 0 112 35t72 92l53 -22
q-30 -72 -92 -114.5t-146 -42.5z" />
    <glyph glyph-name="Ccircumflex" unicode="&#x108;" horiz-adv-x="796" 
d="M283 795l119 155h49l119 -155h-61l-83 110l-83 -110h-60zM428 -10q-155 0 -265 110t-110 265t110 265t265 110q101 0 186 -50t136 -134l-50 -29q-42 72 -113.5 115.5t-158.5 43.5q-133 0 -224.5 -94t-91.5 -227t91.5 -226.5t224.5 -93.5q94 0 167.5 45.5t113.5 122.5
l51 -26q-49 -90 -136.5 -143.5t-195.5 -53.5z" />
    <glyph glyph-name="ccircumflex" unicode="&#x109;" horiz-adv-x="593" 
d="M166 565l119 155h49l119 -155h-61l-83 110l-83 -110h-60zM312 -10q-112 0 -187 75.5t-75 184.5q0 111 75.5 185.5t185.5 74.5q80 0 143.5 -41.5t92.5 -110.5l-52 -22q-25 57 -73 89.5t-112 32.5q-86 0 -144.5 -60.5t-58.5 -147.5t59.5 -147.5t146.5 -60.5q64 0 112 35
t72 92l53 -22q-30 -72 -92 -114.5t-146 -42.5z" />
    <glyph glyph-name="Cdotaccent" unicode="&#x10a;" horiz-adv-x="796" 
d="M428 -10q-155 0 -265 110t-110 265t110 265t265 110q101 0 186 -50t136 -134l-50 -29q-42 72 -113.5 115.5t-158.5 43.5q-133 0 -224.5 -94t-91.5 -227t91.5 -226.5t224.5 -93.5q94 0 167.5 45.5t113.5 122.5l51 -26q-49 -90 -136.5 -143.5t-195.5 -53.5zM406 800v139h57
v-139h-57z" />
    <glyph glyph-name="cdotaccent" unicode="&#x10b;" horiz-adv-x="593" 
d="M312 -10q-112 0 -187 75.5t-75 184.5q0 111 75.5 185.5t185.5 74.5q80 0 143.5 -41.5t92.5 -110.5l-52 -22q-25 57 -73 89.5t-112 32.5q-86 0 -144.5 -60.5t-58.5 -147.5t59.5 -147.5t146.5 -60.5q64 0 112 35t72 92l53 -22q-30 -72 -92 -114.5t-146 -42.5zM281 570v139
h57v-139h-57z" />
    <glyph glyph-name="Ccaron" unicode="&#x10c;" horiz-adv-x="796" 
d="M428 -10q-155 0 -265 110t-110 265t110 265t265 110q101 0 186 -50t136 -134l-50 -29q-42 72 -113.5 115.5t-158.5 43.5q-133 0 -224.5 -94t-91.5 -227t91.5 -226.5t224.5 -93.5q94 0 167.5 45.5t113.5 122.5l51 -26q-49 -90 -136.5 -143.5t-195.5 -53.5zM397 795
l-119 155h60l82 -109l84 109h60l-119 -155h-48z" />
    <glyph glyph-name="ccaron" unicode="&#x10d;" horiz-adv-x="593" 
d="M312 -10q-112 0 -187 75.5t-75 184.5q0 111 75.5 185.5t185.5 74.5q80 0 143.5 -41.5t92.5 -110.5l-52 -22q-25 57 -73 89.5t-112 32.5q-86 0 -144.5 -60.5t-58.5 -147.5t59.5 -147.5t146.5 -60.5q64 0 112 35t72 92l53 -22q-30 -72 -92 -114.5t-146 -42.5zM282 565
l-119 155h60l82 -109l84 109h60l-119 -155h-48z" />
    <glyph glyph-name="Dcaron" unicode="&#x10e;" horiz-adv-x="711" 
d="M75 0v730h205q164 0 271 -104.5t107 -260.5t-108.5 -260.5t-267.5 -104.5h-207zM276 677h-143v-623h145q137 0 229 89t92 222q0 134 -90.5 223t-232.5 89zM275 795l-119 155h60l82 -109l84 109h60l-119 -155h-48z" />
    <glyph glyph-name="dcaron" unicode="&#x10f;" horiz-adv-x="668" 
d="M307 -10q-109 0 -183 76t-74 184t74 184t183 76q59 0 115.5 -30.5t86.5 -83.5v334h55v-730h-55v104q-30 -53 -86.5 -83.5t-115.5 -30.5zM310 42q87 0 146 60.5t59 147.5q0 86 -59.5 147t-145.5 61q-85 0 -144 -61t-59 -147t59 -147t144 -61zM629 557l49 172h55l-63 -172
h-41z" />
    <glyph glyph-name="Dcroat" unicode="&#x110;" horiz-adv-x="731" 
d="M22 341v56h75v333h203q165 0 272 -104.5t107 -260.5t-108.5 -260.5t-268.5 -104.5h-205v341h-75zM295 677h-140v-280h231v-56h-231v-287h142q138 0 231 89t93 222q0 134 -92 223t-234 89z" />
    <glyph glyph-name="dcroat" unicode="&#x111;" horiz-adv-x="650" 
d="M397 576v51h112v103h55v-103h57v-51h-57v-576h-55v104q-30 -53 -86.5 -83.5t-115.5 -30.5q-109 0 -183 76t-74 184t74 184t183 76q59 0 115.5 -30.5t86.5 -83.5v180h-112zM310 42q87 0 146 60.5t59 147.5q0 86 -59.5 147t-145.5 61q-85 0 -144 -61t-59 -147t59 -147
t144 -61z" />
    <glyph glyph-name="Emacron" unicode="&#x112;" horiz-adv-x="587" 
d="M75 0v730h447v-55h-389v-282h389v-54h-389v-284h389v-55h-447zM163 795v50h264v-50h-264z" />
    <glyph glyph-name="emacron" unicode="&#x113;" horiz-adv-x="615" 
d="M313 -10q-119 0 -191 72.5t-72 184.5t74 187.5t185 75.5q110 0 183 -71t73 -183v-25h-461q6 -83 63 -136.5t145 -53.5q135 0 189 125l50 -24q-71 -152 -238 -152zM309 459q-78 0 -134.5 -49.5t-68.5 -126.5h400q-8 80 -61.5 128t-135.5 48zM181 565v50h264v-50h-264z" />
    <glyph glyph-name="Ebreve" unicode="&#x114;" horiz-adv-x="587" 
d="M75 0v730h447v-55h-389v-282h389v-54h-389v-284h389v-55h-447zM298 791q-78 0 -119.5 45t-41.5 112h49q0 -49 29.5 -81t82.5 -32q52 0 81.5 32.5t29.5 80.5h51q0 -65 -44.5 -111t-117.5 -46z" />
    <glyph glyph-name="ebreve" unicode="&#x115;" horiz-adv-x="615" 
d="M313 -10q-119 0 -191 72.5t-72 184.5t74 187.5t185 75.5q110 0 183 -71t73 -183v-25h-461q6 -83 63 -136.5t145 -53.5q135 0 189 125l50 -24q-71 -152 -238 -152zM309 459q-78 0 -134.5 -49.5t-68.5 -126.5h400q-8 80 -61.5 128t-135.5 48zM311 558q-78 0 -119.5 45
t-41.5 112h49q0 -49 29.5 -81t82.5 -32q52 0 81.5 32.5t29.5 80.5h51q0 -65 -44.5 -111t-117.5 -46z" />
    <glyph glyph-name="Edotaccent" unicode="&#x116;" horiz-adv-x="587" 
d="M75 0v730h447v-55h-389v-282h389v-54h-389v-284h389v-55h-447zM278 800v139h57v-139h-57z" />
    <glyph glyph-name="edotaccent" unicode="&#x117;" horiz-adv-x="615" 
d="M313 -10q-119 0 -191 72.5t-72 184.5t74 187.5t185 75.5q110 0 183 -71t73 -183v-25h-461q6 -83 63 -136.5t145 -53.5q135 0 189 125l50 -24q-71 -152 -238 -152zM309 459q-78 0 -134.5 -49.5t-68.5 -126.5h400q-8 80 -61.5 128t-135.5 48zM285 570v139h57v-139h-57z" />
    <glyph glyph-name="Eogonek" unicode="&#x118;" horiz-adv-x="587" 
d="M75 0v730h447v-55h-389v-282h389v-54h-389v-284h389v-55q-70 -38 -96 -62t-26 -48t20 -37.5t51 -13.5q41 0 86 39l45 -31q-61 -55 -131 -55q-57 0 -93 27t-36 68q0 63 85 113h-352z" />
    <glyph glyph-name="eogonek" unicode="&#x119;" horiz-adv-x="615" 
d="M367 -199q-57 0 -93 27t-36 68q0 52 57 95q-112 6 -178.5 77t-66.5 179q0 112 74 187.5t185 75.5q110 0 183 -71t73 -183v-25h-461q6 -83 63 -136.5t145 -53.5q135 0 189 125l50 -24q-46 -100 -136 -135q-68 -37 -93.5 -60.5t-25.5 -47.5t20 -37.5t51 -13.5q41 0 86 39
l45 -31q-61 -55 -131 -55zM309 459q-78 0 -134.5 -49.5t-68.5 -126.5h400q-8 80 -61.5 128t-135.5 48z" />
    <glyph glyph-name="Ecaron" unicode="&#x11a;" horiz-adv-x="587" 
d="M75 0v730h447v-55h-389v-282h389v-54h-389v-284h389v-55h-447zM270 795l-119 155h60l82 -109l84 109h60l-119 -155h-48z" />
    <glyph glyph-name="ecaron" unicode="&#x11b;" horiz-adv-x="615" 
d="M313 -10q-119 0 -191 72.5t-72 184.5t74 187.5t185 75.5q110 0 183 -71t73 -183v-25h-461q6 -83 63 -136.5t145 -53.5q135 0 189 125l50 -24q-71 -152 -238 -152zM309 459q-78 0 -134.5 -49.5t-68.5 -126.5h400q-8 80 -61.5 128t-135.5 48zM289 565l-119 155h60l82 -109
l84 109h60l-119 -155h-48z" />
    <glyph glyph-name="Gcircumflex" unicode="&#x11c;" horiz-adv-x="850" 
d="M281 795l119 155h49l119 -155h-61l-83 110l-83 -110h-60zM430 -10q-159 0 -268 109.5t-109 265.5q0 157 109.5 266t271.5 109q103 0 187.5 -49.5t134.5 -134.5l-50 -29q-40 74 -111.5 116.5t-160.5 42.5q-140 0 -231 -93.5t-91 -227.5t90.5 -227t227.5 -93q133 0 216 79
t95 203h-316v54h374v-15q0 -158 -100.5 -267t-268.5 -109z" />
    <glyph glyph-name="gcircumflex" unicode="&#x11d;" horiz-adv-x="637" 
d="M307 -10q-109 0 -183 76t-74 184t74 184t183 76q59 0 115.5 -30.5t86.5 -83.5v104h57v-490q0 -115 -67.5 -184t-179.5 -69q-175 0 -234 138l56 19q44 -106 178 -106q87 0 139 55t52 145v98q-30 -54 -86.5 -85t-116.5 -31zM310 42q87 0 146 60.5t59 147.5q0 86 -59.5 147
t-145.5 61q-85 0 -144 -61t-59 -147t59 -147t144 -61zM171 565l119 155h49l119 -155h-61l-83 110l-83 -110h-60z" />
    <glyph glyph-name="Gbreve" unicode="&#x11e;" horiz-adv-x="850" 
d="M430 -10q-159 0 -268 109.5t-109 265.5q0 157 109.5 266t271.5 109q103 0 187.5 -49.5t134.5 -134.5l-50 -29q-40 74 -111.5 116.5t-160.5 42.5q-140 0 -231 -93.5t-91 -227.5t90.5 -227t227.5 -93q133 0 216 79t95 203h-316v54h374v-15q0 -158 -100.5 -267t-268.5 -109z
M423 791q-78 0 -119.5 45t-41.5 112h49q0 -49 29.5 -81t82.5 -32q52 0 81.5 32.5t29.5 80.5h51q0 -65 -44.5 -111t-117.5 -46z" />
    <glyph glyph-name="gbreve" unicode="&#x11f;" horiz-adv-x="637" 
d="M307 -10q-109 0 -183 76t-74 184t74 184t183 76q59 0 115.5 -30.5t86.5 -83.5v104h57v-490q0 -115 -67.5 -184t-179.5 -69q-175 0 -234 138l56 19q44 -106 178 -106q87 0 139 55t52 145v98q-30 -54 -86.5 -85t-116.5 -31zM310 42q87 0 146 60.5t59 147.5q0 86 -59.5 147
t-145.5 61q-85 0 -144 -61t-59 -147t59 -147t144 -61zM314 558q-78 0 -119.5 45t-41.5 112h49q0 -49 29.5 -81t82.5 -32q52 0 81.5 32.5t29.5 80.5h51q0 -65 -44.5 -111t-117.5 -46z" />
    <glyph glyph-name="Gdotaccent" unicode="&#x120;" horiz-adv-x="850" 
d="M430 -10q-159 0 -268 109.5t-109 265.5q0 157 109.5 266t271.5 109q103 0 187.5 -49.5t134.5 -134.5l-50 -29q-40 74 -111.5 116.5t-160.5 42.5q-140 0 -231 -93.5t-91 -227.5t90.5 -227t227.5 -93q133 0 216 79t95 203h-316v54h374v-15q0 -158 -100.5 -267t-268.5 -109z
M397 800v139h57v-139h-57z" />
    <glyph glyph-name="gdotaccent" unicode="&#x121;" horiz-adv-x="637" 
d="M307 -10q-109 0 -183 76t-74 184t74 184t183 76q59 0 115.5 -30.5t86.5 -83.5v104h57v-490q0 -115 -67.5 -184t-179.5 -69q-175 0 -234 138l56 19q44 -106 178 -106q87 0 139 55t52 145v98q-30 -54 -86.5 -85t-116.5 -31zM310 42q87 0 146 60.5t59 147.5q0 86 -59.5 147
t-145.5 61q-85 0 -144 -61t-59 -147t59 -147t144 -61zM274 570v139h57v-139h-57z" />
    <glyph glyph-name="Gcommaaccent" unicode="&#x122;" horiz-adv-x="850" 
d="M403 -269h-40l43 204h55zM430 -10q-159 0 -268 109.5t-109 265.5q0 157 109.5 266t271.5 109q103 0 187.5 -49.5t134.5 -134.5l-50 -29q-40 74 -111.5 116.5t-160.5 42.5q-140 0 -231 -93.5t-91 -227.5t90.5 -227t227.5 -93q133 0 216 79t95 203h-316v54h374v-15
q0 -158 -100.5 -267t-268.5 -109z" />
    <glyph glyph-name="gcommaaccent" unicode="&#x123;" horiz-adv-x="637" 
d="M307 -10q-109 0 -183 76t-74 184t74 184t183 76q59 0 115.5 -30.5t86.5 -83.5v104h57v-490q0 -115 -67.5 -184t-179.5 -69q-175 0 -234 138l56 19q44 -106 178 -106q87 0 139 55t52 145v98q-30 -54 -86.5 -85t-116.5 -31zM310 42q87 0 146 60.5t59 147.5q0 86 -59.5 147
t-145.5 61q-85 0 -144 -61t-59 -147t59 -147t144 -61zM325 550h-40l43 204h55z" />
    <glyph glyph-name="Hcircumflex" unicode="&#x124;" horiz-adv-x="688" 
d="M554 0v339h-422v-339h-58v730h58v-336h422v336h58v-730h-58zM199 795l119 155h49l119 -155h-61l-83 110l-83 -110h-60z" />
    <glyph glyph-name="hcircumflex" unicode="&#x125;" horiz-adv-x="603" 
d="M72 0v730h56v-322q27 46 76 74t110 28q101 0 161 -62t60 -168v-280h-58v280q0 82 -45 130t-126 48q-75 0 -126 -51.5t-51 -127.5v-279h-57zM-44 781l119 155h49l119 -155h-61l-83 110l-83 -110h-60z" />
    <glyph glyph-name="Hbar" unicode="&#x126;" horiz-adv-x="721" 
d="M20 540v45h70v145h58v-145h422v145h58v-145h65v-45h-65v-540h-58v339h-422v-339h-58v540h-70zM148 394h422v146h-422v-146z" />
    <glyph glyph-name="hbar" unicode="&#x127;" horiz-adv-x="617" 
d="M23 586v51h62v93h56v-93h105v-51h-105v-178q27 46 76 74t110 28q101 0 161 -62t60 -168v-280h-58v280q0 82 -45 130t-126 48q-75 0 -126 -51.5t-51 -127.5v-279h-57v586h-62z" />
    <glyph glyph-name="Itilde" unicode="&#x128;" horiz-adv-x="224" 
d="M84 0v730h57v-730h-57zM-54 795q0 49 26 78.5t67 29.5q37 0 86 -30q52 -31 72 -31q50 0 50 58h46q0 -51 -25 -80t-70 -29q-35 0 -94 35q-4 2 -13 7.5t-13.5 8t-11.5 5.5t-13.5 4.5t-13.5 1.5q-21 0 -33.5 -15t-12.5 -43h-47z" />
    <glyph glyph-name="itilde" unicode="&#x129;" horiz-adv-x="199" 
d="M71 0v500h57v-500h-57zM-74 565q0 49 26 78.5t67 29.5q37 0 86 -30q52 -31 72 -31q50 0 50 58h46q0 -51 -25 -80t-70 -29q-35 0 -94 35q-4 2 -13 7.5t-13.5 8t-11.5 5.5t-13.5 4.5t-13.5 1.5q-21 0 -33.5 -15t-12.5 -43h-47z" />
    <glyph glyph-name="Imacron" unicode="&#x12a;" horiz-adv-x="227" 
d="M85 0v730h57v-730h-57zM-19 795v50h264v-50h-264z" />
    <glyph glyph-name="imacron" unicode="&#x12b;" horiz-adv-x="199" 
d="M71 0v500h57v-500h-57zM-33 565v50h264v-50h-264z" />
    <glyph glyph-name="Ibreve" unicode="&#x12c;" horiz-adv-x="227" 
d="M85 0v730h57v-730h-57zM111 791q-78 0 -119.5 45t-41.5 112h49q0 -49 29.5 -81t82.5 -32q52 0 81.5 32.5t29.5 80.5h51q0 -65 -44.5 -111t-117.5 -46z" />
    <glyph glyph-name="ibreve" unicode="&#x12d;" horiz-adv-x="199" 
d="M71 0v500h57v-500h-57zM100 558q-78 0 -119.5 45t-41.5 112h49q0 -49 29.5 -81t82.5 -32q52 0 81.5 32.5t29.5 80.5h51q0 -65 -44.5 -111t-117.5 -46z" />
    <glyph glyph-name="Iogonek" unicode="&#x12e;" horiz-adv-x="227" 
d="M120 -218q-55 0 -84 29t-29 72q0 64 78 128v719h57v-730h1q-82 -67 -82 -115q0 -24 16 -39t43 -15q36 0 73 32l33 -40q-50 -41 -106 -41z" />
    <glyph glyph-name="iogonek" unicode="&#x12f;" horiz-adv-x="199" 
d="M106 -218q-55 0 -84 29t-29 72q0 64 78 128v489h57v-500h1q-82 -67 -82 -115q0 -24 16 -39t43 -15q36 0 73 32l33 -40q-50 -41 -106 -41zM71 585v145h57v-145h-57z" />
    <glyph glyph-name="Idotaccent" unicode="&#x130;" horiz-adv-x="227" 
d="M85 0v730h57v-730h-57zM85 800v139h57v-139h-57z" />
    <glyph glyph-name="dotlessi" unicode="&#x131;" horiz-adv-x="199" 
d="M71 0v500h57v-500h-57z" />
    <glyph glyph-name="IJ" unicode="&#x132;" horiz-adv-x="552" 
d="M224 0v54h79q61 0 93 36t32 102v538h58v-538q0 -91 -46 -141.5t-135 -50.5h-81zM66 0v730h58v-730h-58z" />
    <glyph glyph-name="ij" unicode="&#x133;" horiz-adv-x="370" 
d="M71 -199v55h48q78 0 100.5 23t22.5 99v522h57v-523q0 -101 -36.5 -138.5t-135.5 -37.5h-56zM71 0v500h57v-500h-57zM71 585v145h57v-145h-57zM242 585v145h57v-145h-57z" />
    <glyph glyph-name="Jcircumflex" unicode="&#x134;" horiz-adv-x="476" 
d="M231 795l119 155h49l119 -155h-61l-83 110l-83 -110h-60zM219 -10q-64 0 -111 27.5t-71 75.5l52 33q37 -83 129 -83q60 0 94 39t34 106v542h58v-541q0 -92 -49.5 -145.5t-135.5 -53.5z" />
    <glyph glyph-name="jcircumflex" unicode="&#x135;" horiz-adv-x="200" 
d="M-44 565l119 155h49l119 -155h-61l-83 110l-83 -110h-60zM-58 -229v55q81 0 105 23t24 105v546h58v-547q0 -107 -37 -144.5t-141 -37.5h-9z" />
    <glyph glyph-name="Kcommaaccent" unicode="&#x136;" horiz-adv-x="649" 
d="M555 0l-264 397l-158 -181v-216h-57v730h57v-437l382 437h71l-254 -293l290 -437h-67zM303 -269h-40l43 204h55z" />
    <glyph glyph-name="kcommaaccent" unicode="&#x137;" horiz-adv-x="524" 
d="M427 0l-187 256l-112 -117v-139h-56v730h56v-525l284 295h73l-204 -210l213 -290h-67zM238 -256h-40l43 204h55z" />
    <glyph glyph-name="kgreenlandic" unicode="&#x138;" horiz-adv-x="523" 
d="M426 0l-187 256l-112 -117v-139h-56v500h56v-295l284 295h73l-204 -210l213 -290h-67z" />
    <glyph glyph-name="Lacute" unicode="&#x139;" horiz-adv-x="533" 
d="M75 0v730h58v-675h347v-55h-405zM72 795l119 155h75l-140 -155h-54z" />
    <glyph glyph-name="lacute" unicode="&#x13a;" horiz-adv-x="202" 
d="M78 781l119 155h75l-140 -155h-54zM72 0v730h58v-730h-58z" />
    <glyph glyph-name="Lcommaaccent" unicode="&#x13b;" horiz-adv-x="533" 
d="M243 -269h-40l43 204h55zM75 0v730h58v-675h347v-55h-405z" />
    <glyph glyph-name="lcommaaccent" unicode="&#x13c;" horiz-adv-x="202" 
d="M78 -256h-40l43 204h55zM72 0v730h58v-730h-58z" />
    <glyph glyph-name="Lcaron" unicode="&#x13d;" horiz-adv-x="533" 
d="M281 557l49 172h55l-63 -172h-41zM75 0v730h58v-675h347v-55h-405z" />
    <glyph glyph-name="lcaron" unicode="&#x13e;" horiz-adv-x="230" 
d="M191 557l49 172h55l-63 -172h-41zM69 0v730h58v-730h-58z" />
    <glyph glyph-name="Ldot" unicode="&#x13f;" horiz-adv-x="542" 
d="M75 0v730h58v-675h347v-55h-405zM422 289v139h57v-139h-57z" />
    <glyph glyph-name="ldot" unicode="&#x140;" horiz-adv-x="336" 
d="M72 0v730h58v-730h-58zM236 207v139h57v-139h-57z" />
    <glyph glyph-name="Lslash" unicode="&#x141;" horiz-adv-x="561" 
d="M12 343v43l91 26v318h58v-301l143 42v-42l-143 -42v-332h347v-55h-405v370z" />
    <glyph glyph-name="lslash" unicode="&#x142;" horiz-adv-x="274" 
d="M11 310v44l97 38v338h58v-315l97 38v-45l-97 -38v-370h-58v347z" />
    <glyph glyph-name="Nacute" unicode="&#x143;" horiz-adv-x="742" 
d="M347 795l119 155h75l-140 -155h-54zM75 0v730h64l470 -640v640h58v-730h-62l-472 643v-643h-58z" />
    <glyph glyph-name="nacute" unicode="&#x144;" horiz-adv-x="602" 
d="M271 565l119 155h75l-140 -155h-54zM71 0v500h55v-94q26 47 75 75.5t111 28.5q101 0 161 -61.5t60 -168.5v-280h-57v280q0 81 -45 129.5t-126 48.5q-76 0 -127 -51.5t-51 -127.5v-279h-56z" />
    <glyph glyph-name="Ncommaaccent" unicode="&#x145;" horiz-adv-x="742" 
d="M75 0v730h64l470 -640v640h58v-730h-62l-472 643v-643h-58zM336 -269h-40l43 204h55z" />
    <glyph glyph-name="ncommaaccent" unicode="&#x146;" horiz-adv-x="602" 
d="M71 0v500h55v-94q26 47 75 75.5t111 28.5q101 0 161 -61.5t60 -168.5v-280h-57v280q0 81 -45 129.5t-126 48.5q-76 0 -127 -51.5t-51 -127.5v-279h-56zM284 -256h-40l43 204h55z" />
    <glyph glyph-name="Ncaron" unicode="&#x147;" horiz-adv-x="742" 
d="M75 0v730h64l470 -640v640h58v-730h-62l-472 643v-643h-58zM348 795l-119 155h60l82 -109l84 109h60l-119 -155h-48z" />
    <glyph glyph-name="ncaron" unicode="&#x148;" horiz-adv-x="602" 
d="M71 0v500h55v-94q26 47 75 75.5t111 28.5q101 0 161 -61.5t60 -168.5v-280h-57v280q0 81 -45 129.5t-126 48.5q-76 0 -127 -51.5t-51 -127.5v-279h-56zM276 565l-119 155h60l82 -109l84 109h60l-119 -155h-48z" />
    <glyph glyph-name="Eng" unicode="&#x14a;" horiz-adv-x="742" 
d="M453 -213v56h49q57 0 82 28t25 90v39l-476 643v-643h-58v730h64l470 -635v635h58v-771q0 -172 -160 -172h-54z" />
    <glyph glyph-name="eng" unicode="&#x14b;" horiz-adv-x="602" 
d="M346 -229v55q81 0 105.5 23t24.5 105v326q0 81 -45 129.5t-126 48.5q-76 0 -127 -51.5t-51 -127.5v-279h-56v500h55v-94q26 47 75 75.5t111 28.5q101 0 161 -61.5t60 -168.5v-327q0 -107 -37 -144.5t-141 -37.5h-9z" />
    <glyph glyph-name="Omacron" unicode="&#x14c;" horiz-adv-x="855" 
d="M292 795v50h264v-50h-264zM428 -10q-155 0 -265 110t-110 265t110 265t265 110t265 -110t110 -265t-110 -265t-265 -110zM428 45q133 0 224 93.5t91 226.5t-91 226.5t-224 93.5t-224.5 -93.5t-91.5 -226.5t91.5 -226.5t224.5 -93.5z" />
    <glyph glyph-name="omacron" unicode="&#x14d;" horiz-adv-x="619" 
d="M177 565v50h264v-50h-264zM309 -10q-108 0 -183.5 75.5t-75.5 184.5t75.5 184.5t183.5 75.5t184 -75.5t76 -184.5t-76 -184.5t-184 -75.5zM309 42q85 0 143.5 61t58.5 147t-58.5 147t-143.5 61t-143.5 -61t-58.5 -147t58.5 -147t143.5 -61z" />
    <glyph glyph-name="Obreve" unicode="&#x14e;" horiz-adv-x="855" 
d="M428 -10q-155 0 -265 110t-110 265t110 265t265 110t265 -110t110 -265t-110 -265t-265 -110zM428 45q133 0 224 93.5t91 226.5t-91 226.5t-224 93.5t-224.5 -93.5t-91.5 -226.5t91.5 -226.5t224.5 -93.5zM423 792q-78 0 -119.5 45t-41.5 112h49q0 -49 29.5 -81t82.5 -32
q52 0 81.5 32.5t29.5 80.5h51q0 -65 -44.5 -111t-117.5 -46z" />
    <glyph glyph-name="obreve" unicode="&#x14f;" horiz-adv-x="619" 
d="M309 -10q-108 0 -183.5 75.5t-75.5 184.5t75.5 184.5t183.5 75.5t184 -75.5t76 -184.5t-76 -184.5t-184 -75.5zM309 42q85 0 143.5 61t58.5 147t-58.5 147t-143.5 61t-143.5 -61t-58.5 -147t58.5 -147t143.5 -61zM308 558q-78 0 -119.5 45t-41.5 112h49q0 -49 29.5 -81
t82.5 -32q52 0 81.5 32.5t29.5 80.5h51q0 -65 -44.5 -111t-117.5 -46z" />
    <glyph glyph-name="Ohungarumlaut" unicode="&#x150;" horiz-adv-x="855" 
d="M328 795l119 155h71l-140 -155h-50zM449 795l120 155h71l-140 -155h-51zM428 -10q-155 0 -265 110t-110 265t110 265t265 110t265 -110t110 -265t-110 -265t-265 -110zM428 45q133 0 224 93.5t91 226.5t-91 226.5t-224 93.5t-224.5 -93.5t-91.5 -226.5t91.5 -226.5
t224.5 -93.5z" />
    <glyph glyph-name="ohungarumlaut" unicode="&#x151;" horiz-adv-x="619" 
d="M221 565l119 155h71l-140 -155h-50zM342 565l120 155h71l-140 -155h-51zM309 -10q-108 0 -183.5 75.5t-75.5 184.5t75.5 184.5t183.5 75.5t184 -75.5t76 -184.5t-76 -184.5t-184 -75.5zM309 42q85 0 143.5 61t58.5 147t-58.5 147t-143.5 61t-143.5 -61t-58.5 -147
t58.5 -147t143.5 -61z" />
    <glyph glyph-name="OE" unicode="&#x152;" horiz-adv-x="1255" 
d="M744 0v174q-48 -85 -131 -134.5t-186 -49.5q-155 0 -264.5 110t-109.5 265t109.5 265t264.5 110q103 0 186 -49.5t131 -134.5v174h446v-55h-388v-282h388v-54h-388v-284h388v-55h-446zM427 47q132 0 224.5 93t92.5 225t-92.5 225.5t-224.5 93.5q-131 0 -223.5 -93.5
t-92.5 -225.5q0 -131 92.5 -224.5t223.5 -93.5z" />
    <glyph glyph-name="oe" unicode="&#x153;" horiz-adv-x="1080" 
d="M309 -10q-108 0 -183.5 75.5t-75.5 184.5t75.5 184.5t183.5 75.5q77 0 138.5 -39.5t92.5 -105.5q30 66 91.5 105.5t140.5 39.5q110 0 183.5 -71.5t73.5 -182.5v-22h-462q4 -84 63 -138.5t145 -54.5q69 0 119.5 36.5t72.5 96.5l51 -23q-29 -75 -92.5 -118t-150.5 -43
q-82 0 -144 38t-93 103q-31 -64 -92.5 -102.5t-136.5 -38.5zM309 42q85 0 143.5 61t58.5 147t-58.5 147t-143.5 61t-143.5 -61t-58.5 -147t58.5 -147t143.5 -61zM772 459q-77 0 -133 -48.5t-69 -124.5h400q-10 78 -63.5 125.5t-134.5 47.5z" />
    <glyph glyph-name="Racute" unicode="&#x154;" horiz-adv-x="590" 
d="M225 795l119 155h75l-140 -155h-54zM75 0v730h223q102 0 171 -66.5t69 -161.5q0 -82 -52 -144.5t-136 -77.5l192 -280h-68l-220 325h39q81 0 134 53t53 124q0 75 -52 125t-134 50h-161v-677h-58z" />
    <glyph glyph-name="racute" unicode="&#x155;" horiz-adv-x="383" 
d="M184 565l119 155h75l-140 -155h-54zM71 0v500h56v-97q47 97 163 97h47v-53h-47q-79 0 -120.5 -48t-41.5 -138v-261h-57z" />
    <glyph glyph-name="Rcommaaccent" unicode="&#x156;" horiz-adv-x="590" 
d="M75 0v730h223q102 0 171 -66.5t69 -161.5q0 -82 -52 -144.5t-136 -77.5l192 -280h-68l-220 325h39q81 0 134 53t53 124q0 75 -52 125t-134 50h-161v-677h-58zM270 -269h-40l43 204h55z" />
    <glyph glyph-name="rcommaaccent" unicode="&#x157;" horiz-adv-x="383" 
d="M72 -256h-40l43 204h55zM71 0v500h56v-97q47 97 163 97h47v-53h-47q-79 0 -120.5 -48t-41.5 -138v-261h-57z" />
    <glyph glyph-name="Rcaron" unicode="&#x158;" horiz-adv-x="590" 
d="M75 0v730h223q102 0 171 -66.5t69 -161.5q0 -82 -52 -144.5t-136 -77.5l192 -280h-68l-220 325h39q81 0 134 53t53 124q0 75 -52 125t-134 50h-161v-677h-58zM251 795l-119 155h60l82 -109l84 109h60l-119 -155h-48z" />
    <glyph glyph-name="rcaron" unicode="&#x159;" horiz-adv-x="383" 
d="M71 0v500h56v-97q47 97 163 97h47v-53h-47q-79 0 -120.5 -48t-41.5 -138v-261h-57zM179 565l-119 155h60l82 -109l84 109h60l-119 -155h-48z" />
    <glyph glyph-name="Sacute" unicode="&#x15a;" horiz-adv-x="557" 
d="M247 794l119 155h75l-140 -155h-54zM273 -10q-154 0 -243 120l48 37q71 -104 195 -104q75 0 125 42.5t50 111.5q0 35 -14 61.5t-45 45.5t-56 29t-71 25q-38 12 -61 21t-54 26t-48 36t-29.5 48.5t-12.5 65.5q0 80 62.5 132.5t154.5 52.5q136 0 215 -100l-45 -35
q-59 84 -170 84q-67 0 -112.5 -37.5t-45.5 -96.5q0 -23 6 -41.5t21.5 -33.5t27.5 -24.5t39 -20.5t40.5 -16t47.5 -16q38 -13 62 -22.5t54.5 -27t48.5 -37.5t30.5 -50.5t12.5 -68.5q0 -87 -66 -147t-167 -60z" />
    <glyph glyph-name="sacute" unicode="&#x15b;" horiz-adv-x="467" 
d="M194 565l119 155h75l-140 -155h-54zM230 -10q-63 0 -115.5 25.5t-84.5 68.5l45 36q59 -80 157 -80q62 0 95.5 29t33.5 71q0 21 -10 36t-30.5 25t-39.5 15.5t-50 13.5q-9 2 -13 3q-37 9 -60.5 17.5t-50.5 24t-40 40t-13 57.5q0 58 48.5 98.5t126.5 40.5q114 0 179 -74
l-43 -35q-52 60 -136 60q-55 0 -87 -25t-32 -64q0 -17 8.5 -30.5t18.5 -21.5t33.5 -17t35.5 -12l43 -11q39 -10 62 -18t51 -23.5t41.5 -40.5t13.5 -59q0 -58 -48 -104t-139 -46z" />
    <glyph glyph-name="Scircumflex" unicode="&#x15c;" horiz-adv-x="557" 
d="M134 795l119 155h49l119 -155h-61l-83 110l-83 -110h-60zM273 -10q-154 0 -243 120l48 37q71 -104 195 -104q75 0 125 42.5t50 111.5q0 35 -14 61.5t-45 45.5t-56 29t-71 25q-38 12 -61 21t-54 26t-48 36t-29.5 48.5t-12.5 65.5q0 80 62.5 132.5t154.5 52.5
q136 0 215 -100l-45 -35q-59 84 -170 84q-67 0 -112.5 -37.5t-45.5 -96.5q0 -23 6 -41.5t21.5 -33.5t27.5 -24.5t39 -20.5t40.5 -16t47.5 -16q38 -13 62 -22.5t54.5 -27t48.5 -37.5t30.5 -50.5t12.5 -68.5q0 -87 -66 -147t-167 -60z" />
    <glyph glyph-name="scircumflex" unicode="&#x15d;" horiz-adv-x="467" 
d="M85 565l119 155h49l119 -155h-61l-83 110l-83 -110h-60zM230 -10q-63 0 -115.5 25.5t-84.5 68.5l45 36q59 -80 157 -80q62 0 95.5 29t33.5 71q0 21 -10 36t-30.5 25t-39.5 15.5t-50 13.5q-9 2 -13 3q-37 9 -60.5 17.5t-50.5 24t-40 40t-13 57.5q0 58 48.5 98.5
t126.5 40.5q114 0 179 -74l-43 -35q-52 60 -136 60q-55 0 -87 -25t-32 -64q0 -17 8.5 -30.5t18.5 -21.5t33.5 -17t35.5 -12l43 -11q39 -10 62 -18t51 -23.5t41.5 -40.5t13.5 -59q0 -58 -48 -104t-139 -46z" />
    <glyph glyph-name="Scedilla" unicode="&#x15e;" horiz-adv-x="557" 
d="M281 -227q-83 0 -139 53l46 28q45 -38 93 -38q35 0 57.5 14t22.5 36q0 20 -22 32t-61 12h-33v82q-136 10 -215 118l48 37q71 -104 195 -104q75 0 125 42.5t50 111.5q0 35 -14 61.5t-45 45.5t-56 29t-71 25q-38 12 -61 21t-54 26t-48 36t-29.5 48.5t-12.5 65.5
q0 80 62.5 132.5t154.5 52.5q136 0 215 -100l-45 -35q-59 84 -170 84q-67 0 -112.5 -37.5t-45.5 -96.5q0 -23 6 -41.5t21.5 -33.5t27.5 -24.5t39 -20.5t40.5 -16t47.5 -16q38 -13 62 -22.5t54.5 -27t48.5 -37.5t30.5 -50.5t12.5 -68.5q0 -82 -59.5 -140.5t-152.5 -65.5v-44
q54 -1 87.5 -22.5t33.5 -56.5q0 -42 -38.5 -68.5t-95.5 -26.5z" />
    <glyph glyph-name="scedilla" unicode="&#x15f;" horiz-adv-x="467" 
d="M236 -227q-83 0 -139 53l46 28q45 -38 93 -38q35 0 57.5 14t22.5 36q0 20 -22 32t-61 12h-33v82q-110 11 -170 92l45 36q59 -80 157 -80q62 0 95.5 29t33.5 71q0 21 -10 36t-30.5 25t-39.5 15.5t-50 13.5q-9 2 -13 3q-37 9 -60.5 17.5t-50.5 24t-40 40t-13 57.5
q0 58 48.5 98.5t126.5 40.5q114 0 179 -74l-43 -35q-52 60 -136 60q-55 0 -87 -25t-32 -64q0 -17 8.5 -30.5t18.5 -21.5t33.5 -17t35.5 -12l43 -11q39 -10 62 -18t51 -23.5t41.5 -40.5t13.5 -59q0 -55 -43.5 -99.5t-124.5 -49.5v-44q54 -1 87.5 -22.5t33.5 -56.5
q0 -42 -38.5 -68.5t-95.5 -26.5z" />
    <glyph glyph-name="Scaron" unicode="&#x160;" horiz-adv-x="557" 
d="M273 -10q-154 0 -243 120l48 37q71 -104 195 -104q75 0 125 42.5t50 111.5q0 35 -14 61.5t-45 45.5t-56 29t-71 25q-38 12 -61 21t-54 26t-48 36t-29.5 48.5t-12.5 65.5q0 80 62.5 132.5t154.5 52.5q136 0 215 -100l-45 -35q-59 84 -170 84q-67 0 -112.5 -37.5
t-45.5 -96.5q0 -23 6 -41.5t21.5 -33.5t27.5 -24.5t39 -20.5t40.5 -16t47.5 -16q38 -13 62 -22.5t54.5 -27t48.5 -37.5t30.5 -50.5t12.5 -68.5q0 -87 -66 -147t-167 -60zM255 795l-119 155h60l82 -109l84 109h60l-119 -155h-48z" />
    <glyph glyph-name="scaron" unicode="&#x161;" horiz-adv-x="467" 
d="M230 -10q-63 0 -115.5 25.5t-84.5 68.5l45 36q59 -80 157 -80q62 0 95.5 29t33.5 71q0 21 -10 36t-30.5 25t-39.5 15.5t-50 13.5q-9 2 -13 3q-37 9 -60.5 17.5t-50.5 24t-40 40t-13 57.5q0 58 48.5 98.5t126.5 40.5q114 0 179 -74l-43 -35q-52 60 -136 60q-55 0 -87 -25
t-32 -64q0 -17 8.5 -30.5t18.5 -21.5t33.5 -17t35.5 -12l43 -11q39 -10 62 -18t51 -23.5t41.5 -40.5t13.5 -59q0 -58 -48 -104t-139 -46zM202 565l-119 155h60l82 -109l84 109h60l-119 -155h-48z" />
    <glyph glyph-name="Tcommaaccent" unicode="&#x162;" horiz-adv-x="610" 
d="M278 -269h-40l43 204h55zM276 0v677h-228v53h514v-53h-228v-677h-58z" />
    <glyph glyph-name="tcommaaccent" unicode="&#x163;" horiz-adv-x="349" 
d="M32 449v51h86v117l58 34v-151h127v-51h-127v-266q0 -83 24 -106.5t103 -23.5v-53h-8q-104 0 -140.5 37t-36.5 145v267h-86zM171 -263h-40l43 204h55z" />
    <glyph glyph-name="Tcaron" unicode="&#x164;" horiz-adv-x="610" 
d="M276 0v677h-228v53h514v-53h-228v-677h-58zM277 795l-119 155h60l82 -109l84 109h60l-119 -155h-48z" />
    <glyph glyph-name="tcaron" unicode="&#x165;" horiz-adv-x="349" 
d="M32 449v51h86v117l58 34v-151h127v-51h-127v-266q0 -83 24 -106.5t103 -23.5v-53h-8q-104 0 -140.5 37t-36.5 145v267h-86zM238 566l49 172h55l-63 -172h-41z" />
    <glyph glyph-name="Tbar" unicode="&#x166;" horiz-adv-x="610" 
d="M166 372v53h110v252h-228v53h514v-53h-228v-252h116v-53h-116v-372h-58v372h-110z" />
    <glyph glyph-name="tbar" unicode="&#x167;" horiz-adv-x="349" 
d="M32 449v51h86v117l58 34v-151h127v-51h-127v-159h117v-49h-117v-58q0 -83 24 -106.5t103 -23.5v-53h-8q-104 0 -140.5 37t-36.5 145v59h-77v49h77v159h-86z" />
    <glyph glyph-name="Utilde" unicode="&#x168;" horiz-adv-x="641" 
d="M320 -10q-106 0 -177 71.5t-71 176.5v492h58v-495q0 -79 55 -134.5t135 -55.5t135.5 55.5t55.5 135.5v494h58v-492q0 -105 -71.5 -176.5t-177.5 -71.5zM149 795q0 49 26 78.5t67 29.5q37 0 86 -30q52 -31 72 -31q50 0 50 58h46q0 -51 -25 -80t-70 -29q-35 0 -94 35
q-4 2 -13 7.5t-13.5 8t-11.5 5.5t-13.5 4.5t-13.5 1.5q-21 0 -33.5 -15t-12.5 -43h-47z" />
    <glyph glyph-name="utilde" unicode="&#x169;" horiz-adv-x="602" 
d="M292 -10q-105 0 -164 61t-59 169v280h57v-280q0 -81 45 -129.5t126 -48.5q75 0 126 51.5t51 127.5v279h57v-500h-56v92q-26 -47 -74.5 -74.5t-108.5 -27.5zM124 565q0 49 26 78.5t67 29.5q37 0 86 -30q52 -31 72 -31q50 0 50 58h46q0 -51 -25 -80t-70 -29q-35 0 -94 35
q-4 2 -13 7.5t-13.5 8t-11.5 5.5t-13.5 4.5t-13.5 1.5q-21 0 -33.5 -15t-12.5 -43h-47z" />
    <glyph glyph-name="Umacron" unicode="&#x16a;" horiz-adv-x="641" 
d="M320 -10q-106 0 -177 71.5t-71 176.5v492h58v-495q0 -79 55 -134.5t135 -55.5t135.5 55.5t55.5 135.5v494h58v-492q0 -105 -71.5 -176.5t-177.5 -71.5zM187 795v50h264v-50h-264z" />
    <glyph glyph-name="umacron" unicode="&#x16b;" horiz-adv-x="602" 
d="M292 -10q-105 0 -164 61t-59 169v280h57v-280q0 -81 45 -129.5t126 -48.5q75 0 126 51.5t51 127.5v279h57v-500h-56v92q-26 -47 -74.5 -74.5t-108.5 -27.5zM166 565v50h264v-50h-264z" />
    <glyph glyph-name="Ubreve" unicode="&#x16c;" horiz-adv-x="641" 
d="M320 -10q-106 0 -177 71.5t-71 176.5v492h58v-495q0 -79 55 -134.5t135 -55.5t135.5 55.5t55.5 135.5v494h58v-492q0 -105 -71.5 -176.5t-177.5 -71.5zM317 791q-78 0 -119.5 45t-41.5 112h49q0 -49 29.5 -81t82.5 -32q52 0 81.5 32.5t29.5 80.5h51q0 -65 -44.5 -111
t-117.5 -46z" />
    <glyph glyph-name="ubreve" unicode="&#x16d;" horiz-adv-x="602" 
d="M292 -10q-105 0 -164 61t-59 169v280h57v-280q0 -81 45 -129.5t126 -48.5q75 0 126 51.5t51 127.5v279h57v-500h-56v92q-26 -47 -74.5 -74.5t-108.5 -27.5zM296 558q-78 0 -119.5 45t-41.5 112h49q0 -49 29.5 -81t82.5 -32q52 0 81.5 32.5t29.5 80.5h51q0 -65 -44.5 -111
t-117.5 -46z" />
    <glyph glyph-name="Uring" unicode="&#x16e;" horiz-adv-x="641" 
d="M315 791q-41 0 -69.5 29t-28.5 70q0 42 28.5 71t69.5 29q43 0 72 -29t29 -71q0 -41 -29 -70t-72 -29zM315 836q23 0 39.5 16t16.5 38q0 23 -16.5 39t-39.5 16q-22 0 -38 -16.5t-16 -38.5t16 -38t38 -16zM320 -10q-106 0 -177 71.5t-71 176.5v492h58v-495q0 -79 55 -134.5
t135 -55.5t135.5 55.5t55.5 135.5v494h58v-492q0 -105 -71.5 -176.5t-177.5 -71.5z" />
    <glyph glyph-name="uring" unicode="&#x16f;" horiz-adv-x="602" 
d="M292 -10q-105 0 -164 61t-59 169v280h57v-280q0 -81 45 -129.5t126 -48.5q75 0 126 51.5t51 127.5v279h57v-500h-56v92q-26 -47 -74.5 -74.5t-108.5 -27.5zM296 561q-41 0 -69.5 29t-28.5 70q0 42 28.5 71t69.5 29q43 0 72 -29t29 -71q0 -41 -29 -70t-72 -29zM296 606
q23 0 39.5 16t16.5 38q0 23 -16.5 39t-39.5 16q-22 0 -38 -16.5t-16 -38.5t16 -38t38 -16z" />
    <glyph glyph-name="Uhungarumlaut" unicode="&#x170;" horiz-adv-x="641" 
d="M320 -10q-106 0 -177 71.5t-71 176.5v492h58v-495q0 -79 55 -134.5t135 -55.5t135.5 55.5t55.5 135.5v494h58v-492q0 -105 -71.5 -176.5t-177.5 -71.5zM217 795l119 155h71l-140 -155h-50zM338 795l120 155h71l-140 -155h-51z" />
    <glyph glyph-name="uhungarumlaut" unicode="&#x171;" horiz-adv-x="602" 
d="M292 -10q-105 0 -164 61t-59 169v280h57v-280q0 -81 45 -129.5t126 -48.5q75 0 126 51.5t51 127.5v279h57v-500h-56v92q-26 -47 -74.5 -74.5t-108.5 -27.5zM326 565l120 155h71l-140 -155h-51zM205 565l119 155h71l-140 -155h-50z" />
    <glyph glyph-name="Uogonek" unicode="&#x172;" horiz-adv-x="641" 
d="M322 -210q-57 0 -93 27t-36 68q0 60 79 110q-88 16 -144 83.5t-56 159.5v492h58v-495q0 -79 55 -134.5t135 -55.5t135.5 55.5t55.5 135.5v494h58v-492q0 -93 -57 -161t-147 -83q-65 -36 -89.5 -59t-24.5 -47t20 -37.5t51 -13.5q41 0 86 39l45 -31q-61 -55 -131 -55z" />
    <glyph glyph-name="uogonek" unicode="&#x173;" horiz-adv-x="602" 
d="M508 -218q-55 0 -84 29t-29 72q0 62 80 130v79q-26 -47 -74.5 -74.5t-108.5 -27.5q-105 0 -164 61t-59 169v280h57v-280q0 -81 45 -129.5t126 -48.5q75 0 126 51.5t51 127.5v279h57v-500q-82 -67 -82 -115q0 -24 16 -39t43 -15q36 0 73 32l33 -40q-50 -41 -106 -41z" />
    <glyph glyph-name="Wcircumflex" unicode="&#x174;" horiz-adv-x="1072" 
d="M389 795l119 155h49l119 -155h-61l-83 110l-83 -110h-60zM257 0l-215 730h61l186 -641l218 641h55l216 -641l193 641h60l-223 -730h-59l-216 640l-217 -640h-59z" />
    <glyph glyph-name="wcircumflex" unicode="&#x175;" horiz-adv-x="845" 
d="M280 565l119 155h49l119 -155h-61l-83 110l-83 -110h-60zM201 0l-162 500h61l132 -416l163 416h54l161 -417l136 417h60l-167 -500h-54l-164 419l-165 -419h-55z" />
    <glyph glyph-name="Ycircumflex" unicode="&#x176;" horiz-adv-x="612" 
d="M278 0v347l-245 383h65l208 -328l208 328h65l-243 -381v-349h-58zM161 795l119 155h49l119 -155h-61l-83 110l-83 -110h-60z" />
    <glyph glyph-name="ycircumflex" unicode="&#x177;" horiz-adv-x="559" 
d="M141 -231l115 259l-221 472h63l189 -407l176 407h62l-323 -731h-61zM134 565l119 155h49l119 -155h-61l-83 110l-83 -110h-60z" />
    <glyph glyph-name="Ydieresis" unicode="&#x178;" horiz-adv-x="612" 
d="M278 0v347l-245 383h65l208 -328l208 328h65l-243 -381v-349h-58zM219 800v139h56v-139h-56zM336 800v139h56v-139h-56z" />
    <glyph glyph-name="Zacute" unicode="&#x179;" horiz-adv-x="600" 
d="M58 0v53l415 622h-399v55h467v-53l-415 -622h417v-55h-485zM267 795l119 155h75l-140 -155h-54z" />
    <glyph glyph-name="zacute" unicode="&#x17a;" horiz-adv-x="536" 
d="M49 0v54l363 393h-351v53h422v-54l-364 -394h368v-52h-438zM237 565l119 155h75l-140 -155h-54z" />
    <glyph glyph-name="Zdotaccent" unicode="&#x17b;" horiz-adv-x="600" 
d="M58 0v53l415 622h-399v55h467v-53l-415 -622h417v-55h-485zM277 800v139h57v-139h-57z" />
    <glyph glyph-name="zdotaccent" unicode="&#x17c;" horiz-adv-x="536" 
d="M49 0v54l363 393h-351v53h422v-54l-364 -394h368v-52h-438zM244 570v139h57v-139h-57z" />
    <glyph glyph-name="Zcaron" unicode="&#x17d;" horiz-adv-x="600" 
d="M58 0v53l415 622h-399v55h467v-53l-415 -622h417v-55h-485zM279 795l-119 155h60l82 -109l84 109h60l-119 -155h-48z" />
    <glyph glyph-name="zcaron" unicode="&#x17e;" horiz-adv-x="536" 
d="M49 0v54l363 393h-351v53h422v-54l-364 -394h368v-52h-438zM249 565l-119 155h60l82 -109l84 109h60l-119 -155h-48z" />
    <glyph glyph-name="florin" unicode="&#x192;" 
d="M122 352v51h159l43 141q31 105 75.5 145.5t121.5 40.5h4v-52q-58 0 -88.5 -29t-54.5 -111l-41 -135h148v-51h-164l-50 -166q-32 -108 -73.5 -147t-133.5 -39h-5v53q69 0 99 27.5t55 111.5l48 160h-143z" />
    <glyph glyph-name="Aringacute" unicode="&#x1fa;" horiz-adv-x="698" 
d="M37 0l268 697q-26 11 -42.5 36.5t-16.5 55.5q0 42 28.5 71t69.5 29q43 0 72 -29t29 -71q0 -61 -54 -88l270 -701h-61l-79 204h-345l-78 -204h-61zM349 653l-152 -394h303zM315 921l119 155h75l-140 -155h-54zM344 735q23 0 39.5 16t16.5 38q0 23 -16.5 39t-39.5 16
q-22 0 -38 -16.5t-16 -38.5t16 -38t38 -16z" />
    <glyph glyph-name="aringacute" unicode="&#x1fb;" horiz-adv-x="637" 
d="M307 -10q-109 0 -183 76t-74 184t74 184t183 76q59 0 115.5 -30.5t86.5 -83.5v104h57v-500h-57v104q-30 -53 -86.5 -83.5t-115.5 -30.5zM310 42q87 0 146 60.5t59 147.5q0 86 -59.5 147t-145.5 61q-85 0 -144 -61t-59 -147t59 -147t144 -61zM284 792l119 155h75
l-140 -155h-54zM315 558q-41 0 -69.5 29t-28.5 70q0 42 28.5 71t69.5 29q43 0 72 -29t29 -71q0 -41 -29 -70t-72 -29zM315 603q23 0 39.5 16t16.5 38q0 23 -16.5 39t-39.5 16q-22 0 -38 -16.5t-16 -38.5t16 -38t38 -16z" />
    <glyph glyph-name="AEacute" unicode="&#x1fc;" horiz-adv-x="1088" 
d="M60 0l370 730h561v-55h-485l63 -282h422v-54h-410l63 -284h347v-55h-393l-45 199h-327l-100 -199h-66zM453 647l-200 -395h288zM572 795l119 155h75l-140 -155h-54z" />
    <glyph glyph-name="aeacute" unicode="&#x1fd;" horiz-adv-x="974" 
d="M670 -10q-76 0 -135.5 33t-92.5 90q-28 -51 -85 -87t-133 -36q-89 0 -131.5 37t-43.5 98q0 35 13.5 61.5t41 44t58 28t72.5 19.5l29.5 6t30 6.5l27.5 6.5t26.5 7.5l22 8.5t19 10.5t13.5 12.5t10 15.5t3 18.5q0 42 -37 68t-107 26q-74 0 -116.5 -36t-42.5 -95v-3h-53v2
q0 81 57 129.5t154 48.5q75 0 124 -26.5t66 -73.5q35 47 89 73.5t117 26.5q110 0 183.5 -71.5t73.5 -182.5v-22h-461q5 -84 63.5 -138.5t144.5 -54.5q69 0 119 36.5t72 96.5l51 -23q-29 -75 -92 -118t-150 -43zM666 459q-77 0 -133 -48.5t-68 -124.5h399q-9 78 -62.5 125.5
t-135.5 47.5zM226 38q70 0 121 39.5t71 89.5q-11 39 -11 80q0 21 3 42q-14 -18 -47.5 -29t-104.5 -25q-76 -14 -113.5 -37t-37.5 -72q0 -39 29 -63.5t90 -24.5zM443 565l119 155h75l-140 -155h-54z" />
    <glyph glyph-name="Oslashacute" unicode="&#x1fe;" horiz-adv-x="855" 
d="M120 0l62 82q-60 53 -94.5 126.5t-34.5 156.5q0 155 110 265t265 110q111 0 203 -60l38 50h68l-63 -83q60 -53 94.5 -126t34.5 -156q0 -155 -110 -265t-265 -110q-113 0 -203 59l-37 -49h-68zM112 365q0 -70 27 -132t76 -106l383 508q-77 50 -170 50q-133 0 -224.5 -93.5
t-91.5 -226.5zM428 45q133 0 224 93.5t91 226.5q0 142 -103 237l-382 -508q77 -49 170 -49zM392 795l119 155h75l-140 -155h-54z" />
    <glyph glyph-name="oslashacute" unicode="&#x1ff;" horiz-adv-x="619" 
d="M309 -10q-74 0 -136 38l-21 -28h-62l43 57q-83 76 -83 193q0 109 75.5 184.5t183.5 75.5q73 0 136 -38l21 28h63l-44 -58q84 -76 84 -192q0 -109 -76 -184.5t-184 -75.5zM107 250q0 -88 59 -149l246 328q-48 29 -103 29q-85 0 -143.5 -61t-58.5 -147zM309 42
q85 0 143.5 61t58.5 147t-59 147l-247 -326q46 -29 104 -29zM272 565l119 155h75l-140 -155h-54z" />
    <glyph glyph-name="Scommaaccent" unicode="&#x218;" horiz-adv-x="557" 
d="M253 -256h-40l43 204h55zM273 -10q-154 0 -243 120l48 37q71 -104 195 -104q75 0 125 42.5t50 111.5q0 35 -14 61.5t-45 45.5t-56 29t-71 25q-38 12 -61 21t-54 26t-48 36t-29.5 48.5t-12.5 65.5q0 80 62.5 132.5t154.5 52.5q136 0 215 -100l-45 -35q-59 84 -170 84
q-67 0 -112.5 -37.5t-45.5 -96.5q0 -23 6 -41.5t21.5 -33.5t27.5 -24.5t39 -20.5t40.5 -16t47.5 -16q38 -13 62 -22.5t54.5 -27t48.5 -37.5t30.5 -50.5t12.5 -68.5q0 -87 -66 -147t-167 -60z" />
    <glyph glyph-name="scommaaccent" unicode="&#x219;" horiz-adv-x="467" 
d="M202 -259h-40l43 204h55zM230 -10q-63 0 -115.5 25.5t-84.5 68.5l45 36q59 -80 157 -80q62 0 95.5 29t33.5 71q0 21 -10 36t-30.5 25t-39.5 15.5t-50 13.5q-9 2 -13 3q-37 9 -60.5 17.5t-50.5 24t-40 40t-13 57.5q0 58 48.5 98.5t126.5 40.5q114 0 179 -74l-43 -35
q-52 60 -136 60q-55 0 -87 -25t-32 -64q0 -17 8.5 -30.5t18.5 -21.5t33.5 -17t35.5 -12l43 -11q39 -10 62 -18t51 -23.5t41.5 -40.5t13.5 -59q0 -58 -48 -104t-139 -46z" />
    <glyph glyph-name="dotlessj" unicode="&#x237;" horiz-adv-x="200" 
d="M-58 -229v55q81 0 105 23t24 105v546h58v-547q0 -107 -37 -144.5t-141 -37.5h-9z" />
    <glyph glyph-name="circumflex" unicode="&#x2c6;" horiz-adv-x="502" 
d="M108 565l119 155h49l119 -155h-61l-83 110l-83 -110h-60z" />
    <glyph glyph-name="caron" unicode="&#x2c7;" horiz-adv-x="502" 
d="M227 565l-119 155h60l82 -109l84 109h60l-119 -155h-48z" />
    <glyph glyph-name="breve" unicode="&#x2d8;" horiz-adv-x="502" 
d="M250 558q-78 0 -119.5 45t-41.5 112h49q0 -49 29.5 -81t82.5 -32q52 0 81.5 32.5t29.5 80.5h51q0 -65 -44.5 -111t-117.5 -46z" />
    <glyph glyph-name="dotaccent" unicode="&#x2d9;" horiz-adv-x="506" 
d="M215 570v139h57v-139h-57z" />
    <glyph glyph-name="ring" unicode="&#x2da;" horiz-adv-x="502" 
d="M247 561q-41 0 -69.5 29t-28.5 70q0 42 28.5 71t69.5 29q43 0 72 -29t29 -71q0 -41 -29 -70t-72 -29zM247 606q23 0 39.5 16t16.5 38q0 23 -16.5 39t-39.5 16q-22 0 -38 -16.5t-16 -38.5t16 -38t38 -16z" />
    <glyph glyph-name="ogonek" unicode="&#x2db;" horiz-adv-x="502" 
d="M244 -209q-57 0 -93 27t-36 68q0 76 134 139l46 -26q-70 -38 -96 -62t-26 -48t20 -37.5t51 -13.5q41 0 86 39l45 -31q-61 -55 -131 -55z" />
    <glyph glyph-name="tilde" unicode="&#x2dc;" horiz-adv-x="502" 
d="M76 565q0 49 26 78.5t67 29.5q37 0 86 -30q52 -31 72 -31q50 0 50 58h46q0 -51 -25 -80t-70 -29q-35 0 -94 35q-4 2 -13 7.5t-13.5 8t-11.5 5.5t-13.5 4.5t-13.5 1.5q-21 0 -33.5 -15t-12.5 -43h-47z" />
    <glyph glyph-name="hungarumlaut" unicode="&#x2dd;" horiz-adv-x="502" 
d="M93 565l119 155h71l-140 -155h-50zM214 565l120 155h71l-140 -155h-51z" />
    <glyph glyph-name="uni0328" unicode="&#x328;" horiz-adv-x="502" 
d="M274 -218q-55 0 -84 29t-29 72q0 67 93 141l43 -24q-82 -67 -82 -115q0 -24 16 -39t43 -15q36 0 73 32l33 -40q-50 -41 -106 -41z" />
    <glyph glyph-name="pi" unicode="&#x3c0;" horiz-adv-x="741" 
d="M43 674v56h656v-56h-143v-499q0 -61 22.5 -91t74.5 -30h41v-54h-45q-151 0 -151 175v499h-266v-674h-58v674h-131z" />
    <glyph glyph-name="uni0E3F" unicode="&#xe3f;" horiz-adv-x="536" 
d="M66 67v596h175v67h51v-67h3q80 0 129.5 -43t49.5 -113q0 -95 -84 -132q44 -17 68.5 -54t24.5 -88q0 -75 -50.5 -120.5t-132.5 -45.5h-8v-67h-51v67h-175zM123 347v-227h118v227h-118zM299 347h-7v-227h9q56 0 90.5 32t34.5 82q0 51 -33.5 82t-93.5 31zM123 611v-210h118
v210h-118zM295 611h-3v-210h10q53 0 84.5 30t31.5 76t-34 75t-89 29z" />
    <glyph glyph-name="Wgrave" unicode="&#x1e80;" horiz-adv-x="1072" 
d="M257 0l-215 730h61l186 -641l218 641h55l216 -641l193 641h60l-223 -730h-59l-216 640l-217 -640h-59zM505 795l-140 155h74l120 -155h-54z" />
    <glyph glyph-name="wgrave" unicode="&#x1e81;" horiz-adv-x="845" 
d="M201 0l-162 500h61l132 -416l163 416h54l161 -417l136 417h60l-167 -500h-54l-164 419l-165 -419h-55zM394 565l-140 155h74l120 -155h-54z" />
    <glyph glyph-name="Wacute" unicode="&#x1e82;" horiz-adv-x="1072" 
d="M502 795l119 155h75l-140 -155h-54zM257 0l-215 730h61l186 -641l218 641h55l216 -641l193 641h60l-223 -730h-59l-216 640l-217 -640h-59z" />
    <glyph glyph-name="wacute" unicode="&#x1e83;" horiz-adv-x="845" 
d="M395 565l119 155h75l-140 -155h-54zM201 0l-162 500h61l132 -416l163 416h54l161 -417l136 417h60l-167 -500h-54l-164 419l-165 -419h-55z" />
    <glyph glyph-name="Wdieresis" unicode="&#x1e84;" horiz-adv-x="1072" 
d="M565 800v139h56v-139h-56zM448 800v139h56v-139h-56zM257 0l-215 730h61l186 -641l218 641h55l216 -641l193 641h60l-223 -730h-59l-216 640l-217 -640h-59z" />
    <glyph glyph-name="wdieresis" unicode="&#x1e85;" horiz-adv-x="845" 
d="M456 570v139h56v-139h-56zM339 570v139h56v-139h-56zM201 0l-162 500h61l132 -416l163 416h54l161 -417l136 417h60l-167 -500h-54l-164 419l-165 -419h-55z" />
    <glyph glyph-name="Ygrave" unicode="&#x1ef2;" horiz-adv-x="612" 
d="M278 0v347l-245 383h65l208 -328l208 328h65l-243 -381v-349h-58zM279 795l-140 155h74l120 -155h-54z" />
    <glyph glyph-name="ygrave" unicode="&#x1ef3;" horiz-adv-x="559" 
d="M141 -231l115 259l-221 472h63l189 -407l176 407h62l-323 -731h-61zM257 565l-140 155h74l120 -155h-54z" />
    <glyph glyph-name="figuredash" unicode="&#x2012;" horiz-adv-x="676" 
d="M53 226v51h570v-51h-570z" />
    <glyph glyph-name="endash" unicode="&#x2013;" horiz-adv-x="526" 
d="M53 226v51h420v-51h-420z" />
    <glyph glyph-name="emdash" unicode="&#x2014;" horiz-adv-x="726" 
d="M53 226v51h620v-51h-620z" />
    <glyph glyph-name="uni2015" unicode="&#x2015;" horiz-adv-x="1026" 
d="M53 226v51h920v-51h-920z" />
    <glyph glyph-name="quoteleft" unicode="&#x2018;" horiz-adv-x="189" 
d="M99 730l44 -204h-40l-61 204h57z" />
    <glyph glyph-name="quoteright" unicode="&#x2019;" horiz-adv-x="189" 
d="M83 526h-39l44 204h57z" />
    <glyph glyph-name="quotesinglbase" unicode="&#x201a;" horiz-adv-x="190" 
d="M73 -117h-40l44 204h57z" />
    <glyph glyph-name="quotedblleft" unicode="&#x201c;" horiz-adv-x="293" 
d="M99 730l44 -204h-38l-61 204h55zM204 730l44 -204h-39l-59 204h54z" />
    <glyph glyph-name="quotedblright" unicode="&#x201d;" horiz-adv-x="293" 
d="M83 526h-39l44 204h57zM189 526h-40l44 204h57z" />
    <glyph glyph-name="quotedblbase" unicode="&#x201e;" horiz-adv-x="295" 
d="M75 -117h-40l44 204h57zM180 -117h-40l45 204h57z" />
    <glyph glyph-name="dagger" unicode="&#x2020;" horiz-adv-x="585" 
d="M66 449v51h196v230h58v-230h199v-51h-199v-449h-58v449h-196z" />
    <glyph glyph-name="daggerdbl" unicode="&#x2021;" horiz-adv-x="585" 
d="M66 468v51h196v211h58v-211h199v-51h-199v-199h199v-50h-199v-219h-58v219h-196v50h196v199h-196z" />
    <glyph glyph-name="bullet" unicode="&#x2022;" horiz-adv-x="305" 
d="M153 191q-25 0 -42.5 17.5t-17.5 42.5t17.5 42.5t42.5 17.5t42.5 -17.5t17.5 -42.5t-17.5 -42.5t-42.5 -17.5z" />
    <glyph glyph-name="ellipsis" unicode="&#x2026;" horiz-adv-x="459" 
d="M66 0v137h58v-137h-58zM200 0v137h59v-137h-59zM335 0v137h58v-137h-58z" />
    <glyph glyph-name="perthousand" unicode="&#x2030;" horiz-adv-x="1272" 
d="M87 0l627 730h73l-627 -730h-73zM632 -11q-69 0 -117.5 49t-48.5 118t48 117.5t118 48.5q69 0 117.5 -48.5t48.5 -117.5t-48.5 -118t-117.5 -49zM632 38q48 0 82 34.5t34 83.5q0 48 -34 82.5t-82 34.5t-82 -34t-34 -83t34 -83.5t82 -34.5zM242 407q-69 0 -117.5 49
t-48.5 118t48.5 117.5t117.5 48.5t117.5 -48.5t48.5 -117.5t-48.5 -118t-117.5 -49zM242 456q48 0 82 34.5t34 83.5t-34 83t-82 34t-82 -34.5t-34 -82.5q0 -49 34.5 -83.5t81.5 -34.5zM1030 -11q-69 0 -117.5 49t-48.5 118t48.5 117.5t117.5 48.5t118 -48.5t49 -117.5
t-49 -118t-118 -49zM1030 38q48 0 82 34.5t34 83.5q0 48 -34 82.5t-82 34.5q-47 0 -81 -34t-34 -83t34 -83.5t81 -34.5z" />
    <glyph glyph-name="minute" unicode="&#x2032;" horiz-adv-x="189" 
d="M83 526h-39l44 204h57z" />
    <glyph glyph-name="second" unicode="&#x2033;" horiz-adv-x="293" 
d="M83 526h-39l44 204h57zM189 526h-40l44 204h57z" />
    <glyph glyph-name="guilsinglleft" unicode="&#x2039;" horiz-adv-x="289" 
d="M220 112l-150 119v38l150 119v-48l-115 -91l115 -89v-48z" />
    <glyph glyph-name="guilsinglright" unicode="&#x203a;" horiz-adv-x="289" 
d="M70 112v48l114 90l-114 90v49l150 -119v-39z" />
    <glyph glyph-name="fraction" unicode="&#x2044;" horiz-adv-x="649" 
d="M28 0l527 730h68l-527 -730h-68z" />
    <glyph glyph-name="uni2070" unicode="&#x2070;" horiz-adv-x="497" 
d="M248 302q-90 0 -153 63.5t-63 153.5t63 153.5t153 63.5t153.5 -63.5t63.5 -153.5t-63.5 -153.5t-153.5 -63.5zM248 352q69 0 117 49t48 118t-48 118t-117 49t-116.5 -49t-47.5 -118t47.5 -118t116.5 -49z" />
    <glyph glyph-name="uni2074" unicode="&#x2074;" horiz-adv-x="375" 
d="M229 308v97h-195v48l193 277h54v-277h61v-48h-61v-97h-52zM91 453h138v196z" />
    <glyph glyph-name="uni2075" unicode="&#x2075;" horiz-adv-x="353" 
d="M177 302q-49 0 -86 22t-56 58l48 28q29 -60 95 -60q38 0 64.5 26t26.5 67q0 43 -27 68t-65 25q-62 0 -92 -58l-47 21l31 231h229v-49h-187l-18 -132q36 34 88 34q59 0 100 -37t41 -103q0 -62 -41 -101.5t-104 -39.5z" />
    <glyph glyph-name="uni2076" unicode="&#x2076;" horiz-adv-x="362" 
d="M179 302q-64 0 -106.5 42t-42.5 103q0 59 32 104l121 179h61l-99 -145q22 8 43 8q58 0 98.5 -42t40.5 -103q0 -63 -42.5 -104.5t-105.5 -41.5zM178 350q40 0 69 29t29 70q0 40 -29 69t-69 29q-41 0 -69.5 -29t-28.5 -70t28.5 -69.5t69.5 -28.5z" />
    <glyph glyph-name="uni2077" unicode="&#x2077;" horiz-adv-x="327" 
d="M70 308l171 372h-207v50h262v-45l-170 -377h-56z" />
    <glyph glyph-name="uni2078" unicode="&#x2078;" horiz-adv-x="343" 
d="M171 302q-61 0 -97.5 36.5t-36.5 89.5q0 72 65 105q-49 29 -49 89q0 48 33 81t85 33t85.5 -33.5t33.5 -80.5q0 -58 -51 -88q66 -31 66 -106q0 -53 -36 -89.5t-98 -36.5zM171 350q37 0 59.5 22.5t22.5 55.5q0 34 -22 57t-60 23q-37 0 -59.5 -23.5t-22.5 -56.5t22.5 -55.5
t59.5 -22.5zM171 557q30 0 48.5 18.5t18.5 46.5t-18.5 47t-48.5 19q-29 0 -47 -19t-18 -47t18 -46.5t47 -18.5z" />
    <glyph glyph-name="uni2079" unicode="&#x2079;" horiz-adv-x="355" 
d="M111 308l99 149q-18 -7 -42 -7q-57 0 -97 41t-40 102t42 102t104 41q63 0 105 -41.5t42 -101.5q0 -54 -29 -98l-121 -187h-63zM178 496q40 0 68 28.5t28 68.5t-28 68t-68 28t-68 -28.5t-28 -68.5t28 -68t68 -28z" />
    <glyph glyph-name="uni207A" unicode="&#x207a;" horiz-adv-x="284" 
d="M35 497v44h86v84h43v-84h84v-44h-84v-85h-43v85h-86z" />
    <glyph glyph-name="uni207B" unicode="&#x207b;" horiz-adv-x="284" 
d="M35 497v45h213v-45h-213z" />
    <glyph glyph-name="uni207C" unicode="&#x207c;" horiz-adv-x="284" 
d="M35 543v44h213v-44h-213zM35 448v44h213v-44h-213z" />
    <glyph glyph-name="uni207D" unicode="&#x207d;" horiz-adv-x="272" 
d="M195 233q-159 110 -159 290t156 290l33 -43q-135 -91 -135 -247q0 -154 137 -246z" />
    <glyph glyph-name="uni207E" unicode="&#x207e;" horiz-adv-x="273" 
d="M78 233l-33 44q137 92 137 246q0 156 -135 247l34 43q155 -113 155 -290q0 -179 -158 -290z" />
    <glyph glyph-name="uni2080" unicode="&#x2080;" horiz-adv-x="497" 
d="M248 -6q-90 0 -153 63.5t-63 153.5t63 153.5t153 63.5t153.5 -63.5t63.5 -153.5t-63.5 -153.5t-153.5 -63.5zM248 44q69 0 117 49t48 118t-48 118t-117 49t-116.5 -49t-47.5 -118t47.5 -118t116.5 -49z" />
    <glyph glyph-name="uni2081" unicode="&#x2081;" horiz-adv-x="286" 
d="M37 0v49h84v285q-9 -15 -29.5 -25.5t-40.5 -10.5h-6v55h3q38 0 56 21t18 48h51v-373h81v-49h-217z" />
    <glyph glyph-name="uni2082" unicode="&#x2082;" horiz-adv-x="344" 
d="M39 0v50q0 25 9.5 46.5t30 42t35 32.5t43.5 32q33 22 49 34.5t32 33.5t16 41q0 31 -22 50.5t-60 19.5q-62 0 -93 -65l-45 23q42 88 138 88q61 0 98 -33t37 -83q0 -31 -19 -60t-38 -44t-56 -41q-27 -18 -39 -27t-30 -25.5t-25.5 -32t-7.5 -32.5h216v-50h-269z" />
    <glyph glyph-name="uni2083" unicode="&#x2083;" horiz-adv-x="329" 
d="M158 -6q-85 0 -133 57l44 34q32 -43 89 -43q38 0 62.5 21t24.5 55q0 35 -25.5 55.5t-66.5 20.5h-42v48h42q40 0 62.5 20t22.5 52q0 31 -22.5 49.5t-59.5 18.5q-55 0 -83 -44l-44 25q19 29 52.5 47t74.5 18q61 0 96.5 -31t35.5 -83q0 -63 -57 -95q66 -30 66 -101
q0 -55 -37.5 -89.5t-101.5 -34.5z" />
    <glyph glyph-name="uni2084" unicode="&#x2084;" horiz-adv-x="375" 
d="M229 0v97h-195v48l193 277h54v-277h61v-48h-61v-97h-52zM91 145h138v196z" />
    <glyph glyph-name="uni2085" unicode="&#x2085;" horiz-adv-x="353" 
d="M177 -6q-49 0 -86 22t-56 58l48 28q29 -60 95 -60q38 0 64.5 26t26.5 67q0 43 -27 68t-65 25q-62 0 -92 -58l-47 21l31 231h229v-49h-187l-18 -132q36 34 88 34q59 0 100 -37t41 -103q0 -62 -41 -101.5t-104 -39.5z" />
    <glyph glyph-name="uni2086" unicode="&#x2086;" horiz-adv-x="365" 
d="M183 -6q-64 0 -106.5 42t-42.5 103q0 59 32 104l121 179h61l-99 -145q22 8 43 8q58 0 98.5 -42t40.5 -103q0 -63 -42.5 -104.5t-105.5 -41.5zM182 42q40 0 69 29t29 70q0 40 -29 69t-69 29q-41 0 -69.5 -29t-28.5 -70t28.5 -69.5t69.5 -28.5z" />
    <glyph glyph-name="uni2087" unicode="&#x2087;" horiz-adv-x="327" 
d="M70 0l171 372h-207v50h262v-45l-170 -377h-56z" />
    <glyph glyph-name="uni2088" unicode="&#x2088;" horiz-adv-x="343" 
d="M171 -6q-61 0 -97.5 36.5t-36.5 89.5q0 72 65 105q-49 29 -49 89q0 48 33 81t85 33t85.5 -33.5t33.5 -80.5q0 -58 -51 -88q66 -31 66 -106q0 -53 -36 -89.5t-98 -36.5zM171 42q37 0 59.5 22.5t22.5 55.5q0 34 -22 57t-60 23q-37 0 -59.5 -23.5t-22.5 -56.5t22.5 -55.5
t59.5 -22.5zM171 249q30 0 48.5 18.5t18.5 46.5t-18.5 47t-48.5 19q-29 0 -47 -19t-18 -47t18 -46.5t47 -18.5z" />
    <glyph glyph-name="uni2089" unicode="&#x2089;" horiz-adv-x="355" 
d="M111 0l99 149q-18 -7 -42 -7q-57 0 -97 41t-40 102t42 102t104 41q63 0 105 -41.5t42 -101.5q0 -54 -29 -98l-121 -187h-63zM178 188q40 0 68 28.5t28 68.5t-28 68t-68 28t-68 -28.5t-28 -68.5t28 -68t68 -28z" />
    <glyph glyph-name="uni208A" unicode="&#x208a;" horiz-adv-x="284" 
d="M35 189v44h86v84h43v-84h84v-44h-84v-85h-43v85h-86z" />
    <glyph glyph-name="uni208B" unicode="&#x208b;" horiz-adv-x="284" 
d="M35 189v45h213v-45h-213z" />
    <glyph glyph-name="uni208C" unicode="&#x208c;" horiz-adv-x="284" 
d="M35 235v44h213v-44h-213zM35 140v44h213v-44h-213z" />
    <glyph glyph-name="uni208D" unicode="&#x208d;" horiz-adv-x="272" 
d="M195 -75q-159 110 -159 290t156 290l33 -43q-135 -91 -135 -247q0 -154 137 -246z" />
    <glyph glyph-name="uni208E" unicode="&#x208e;" horiz-adv-x="273" 
d="M78 -75l-33 44q137 92 137 246q0 156 -135 247l34 43q155 -113 155 -290q0 -179 -158 -290z" />
    <glyph glyph-name="uni20A1" unicode="&#x20a1;" horiz-adv-x="797" 
d="M188 -120h-49l73 179q-73 52 -115.5 132t-42.5 174q0 155 110 265t265 110q27 0 60 -5l43 105h51l-48 -116q35 -10 67 -27l59 143h51l-69 -168q68 -47 108 -116l-49 -29q-32 54 -81 93l-235 -572q21 -3 43 -3q94 0 167.5 45.5t114.5 122.5l51 -26q-49 -91 -136.5 -144
t-196.5 -53q-33 0 -65 6l-47 -116h-50l52 126q-29 8 -68 28zM114 365q0 -76 32 -142t88 -111l234 571q-20 3 -39 3q-133 0 -224 -94t-91 -227zM273 86q34 -19 67 -29l241 589q-35 20 -66 28z" />
    <glyph glyph-name="uni20A2" unicode="&#x20a2;" horiz-adv-x="797" 
d="M429 -10q-155 0 -265 110t-110 265t110 265t265 110q101 0 186.5 -50t135.5 -134l-49 -29q-42 72 -114 115.5t-159 43.5q-133 0 -224 -94t-91 -227q0 -122 78.5 -213t197.5 -105v351h56v-99q45 99 164 99h59v-53h-59q-80 0 -121.5 -48t-41.5 -138v-114q88 4 156.5 49
t107.5 119l51 -26q-49 -91 -136.5 -144t-196.5 -53z" />
    <glyph glyph-name="franc" unicode="&#x20a3;" horiz-adv-x="544" 
d="M66 0v730h413v-55h-355v-206h355v-53h-355v-107h355v-53h-355v-256h-58z" />
    <glyph glyph-name="lira" unicode="&#x20a4;" horiz-adv-x="697" 
d="M75 340v90h108q-22 56 -22 114q0 89 57.5 142.5t151.5 53.5q140 0 208 -106l-47 -36q-50 92 -161 92q-69 0 -110.5 -40t-41.5 -105q0 -57 25 -115h232v-90h-185q54 -100 54 -169q0 -37 -12 -68q77 -66 140 -66q58 0 85 31t27 109v18h58v-25q0 -94 -41 -137t-124 -43
q-49 0 -87 19t-79 53q-49 -72 -140 -72q-62 0 -93.5 28t-31.5 75q0 44 31 72t84 29q61 0 132 -58q3 15 3 32q0 31 -11 64t-21 52t-33 56h-156zM171 35q70 0 105 58q-64 55 -113 55q-32 0 -49 -15t-17 -41t19.5 -41.5t54.5 -15.5z" />
    <glyph glyph-name="uni20A6" unicode="&#x20a6;" horiz-adv-x="815" 
d="M31 411v46h81v273h61l200 -273h272v273h58v-273h80v-46h-80v-93h80v-45h-80v-273h-59l-201 273h-274v-273h-57v273h-81v45h81v93h-81zM169 411v-93h241l-68 93h-173zM407 411l68 -93h170v93h-238zM308 457l-139 189v-189h139zM508 273l137 -186v186h-137z" />
    <glyph glyph-name="peseta" unicode="&#x20a7;" horiz-adv-x="1266" 
d="M1013 0h-184q-109 0 -150 41.5t-41 150.5v257h-86q-12 -96 -84 -156t-181 -60h-163v-233h-58v730h221q114 0 187 -64.5t79 -165.5h85v119l58 31v-150h122v-51h-122v-256q0 -83 28.5 -111t111.5 -28h180q71 0 106.5 24.5t35.5 66.5q0 21 -9.5 35.5t-30.5 24.5t-39.5 15
l-50.5 13q-6 1 -9 2q-38 9 -61 16.5t-51 22.5t-41.5 39.5t-13.5 58.5q0 58 48.5 98.5t126.5 40.5q114 0 179 -74l-42 -35q-52 60 -137 60q-55 0 -87 -25t-32 -64q0 -16 8 -29t16.5 -21t30 -16t33.5 -11l40 -10l12 -3q31 -7 50 -12.5t44.5 -16.5t39.5 -24.5t24.5 -35
t10.5 -49.5q0 -65 -49.5 -105t-154.5 -40zM284 677h-160v-390h160q96 0 153.5 55t57.5 140q0 86 -57 140.5t-154 54.5z" />
    <glyph glyph-name="uni20A8" unicode="&#x20a8;" horiz-adv-x="987" 
d="M729 -11q-182 0 -297.5 88.5t-191.5 247.5h44q81 0 134 53t53 124q0 75 -52 125t-134 50h-161v-677h-58v730h223q102 0 171 -66.5t69 -161.5q0 -84 -55.5 -148t-144.5 -75q139 -240 398 -240q75 0 114.5 29t39.5 72q0 48 -67 72q-18 7 -75 21q-31 8 -49 13.5t-43.5 17
t-39 25t-24 35t-10.5 48.5q0 58 48.5 98.5t126.5 40.5q114 0 179 -74l-42 -35q-52 60 -137 60q-55 0 -87 -25t-32 -64q0 -48 69 -72q19 -7 71 -20q31 -8 49.5 -13.5t44 -17t40 -25t25 -35.5t10.5 -50q0 -63 -52.5 -107t-156.5 -44z" />
    <glyph glyph-name="uni20A9" unicode="&#x20a9;" horiz-adv-x="1091" 
d="M31 411v46h102l-81 273h62l79 -273h232l93 273h54l92 -273h236l82 273h59l-84 -273h102v-46h-116l-28 -93h144v-45h-158l-83 -273h-58l-92 273h-249l-92 -273h-59l-81 273h-156v45h143l-28 93h-115zM466 411l-31 -93h218l-32 93h-155zM679 411l32 -93h147l28 93h-207z
M206 411l27 -93h145l32 93h-204zM544 640l-62 -183h124zM726 273l63 -186l56 186h-119zM246 273l54 -184l63 184h-117z" />
    <glyph glyph-name="uni20AA" unicode="&#x20aa;" horiz-adv-x="671" 
d="M66 0v730h177q104 0 153 -53.5t49 -165.5v-304q0 -32 -12.5 -45.5t-44.5 -13.5v363q0 85 -33 125t-110 40h-121v-676h-58zM226 0v574q32 0 45 -14t13 -46v-460h123q74 0 107 40t33 125v511h58v-511q0 -219 -200 -219h-179z" />
    <glyph glyph-name="Euro" unicode="&#x20ac;" 
d="M31 457v47h67q1 104 64.5 170t163.5 66q110 0 172 -74l-40 -36q-45 57 -131 57q-79 0 -124.5 -49.5t-46.5 -133.5h283l-8 -47h-275v-184h245l-8 -47h-237v-3q0 -85 44.5 -132.5t124.5 -47.5q96 0 139 63l45 -37q-60 -79 -183 -79q-107 0 -167.5 62.5t-60.5 170.5v3h-67
v47h67v184h-67z" />
    <glyph glyph-name="uni20AE" unicode="&#x20ae;" horiz-adv-x="624" 
d="M148 354v46l136 56v221h-229v53h514v-53h-228v-198l139 58v-47l-139 -57v-92l139 57v-47l-139 -57v-294h-57v270l-136 -55v47l136 55v92z" />
    <glyph glyph-name="uni20B1" unicode="&#x20b1;" horiz-adv-x="702" 
d="M31 529v45h81v156h220q91 0 157 -42.5t93 -113.5h88v-45h-75q4 -30 4 -47q0 -16 -4 -46h75v-46h-88q-27 -72 -93 -114.5t-157 -42.5h-163v-233h-57v390h-81v46h81v93h-81zM541 482q0 22 -5 47h-367v-93h367q5 23 5 46zM329 677h-160v-103h350q-25 48 -74 75.5t-116 27.5z
M329 287q67 0 116 27.5t74 75.5h-350v-103h160z" />
    <glyph glyph-name="servicemark" unicode="&#x2120;" horiz-adv-x="653" 
d="M278 440v290h39l120 -159l123 159h37v-290h-44v217l-116 -148l-117 148v-217h-42zM128 435q-64 0 -98 45l38 28q24 -34 60 -34q22 0 36.5 13.5t14.5 34.5q0 17 -14.5 28t-34.5 17.5t-40.5 15t-35 27t-14.5 46.5q0 33 25 53.5t62 20.5q55 0 88 -39l-39 -25q-17 25 -50 25
q-20 0 -32.5 -10.5t-12.5 -25.5q0 -16 14.5 -26t35.5 -17t41.5 -15.5t35 -27t14.5 -47.5q0 -37 -26 -62t-68 -25z" />
    <glyph glyph-name="trademark" unicode="&#x2122;" horiz-adv-x="681" 
d="M306 440v290h40l119 -158l123 158h37v-290h-43v217l-117 -148l-117 149v-218h-42zM132 440v251h-95v39h232v-39h-94v-251h-43z" />
    <glyph glyph-name="ohm" unicode="&#x2126;" horiz-adv-x="829" 
d="M26 0v55h248q-181 188 -181 362q0 134 94 229t227 95t228 -94.5t95 -229.5q0 -55 -16 -108t-46.5 -100.5t-57.5 -80.5t-64 -73h250v-55h-299l-27 49q4 5 38.5 44t42.5 49.5l34.5 45.5t35.5 54l24 51t20 62t5 62q0 116 -76.5 194.5t-187.5 78.5q-109 0 -184.5 -78.5
t-75.5 -194.5q0 -37 7 -71.5t25.5 -71t31.5 -59.5t44.5 -61.5t42.5 -51l48 -53.5l-26 -49h-300z" />
    <glyph glyph-name="uni2153" unicode="&#x2153;" horiz-adv-x="823" 
d="M105 0l527 730h68l-527 -730h-68zM651 -6q-85 0 -133 57l44 34q32 -43 89 -43q38 0 62.5 21t24.5 55q0 35 -25.5 55.5t-66.5 20.5h-42v48h42q40 0 62.5 20t22.5 52q0 31 -22.5 49.5t-59.5 18.5q-55 0 -83 -44l-44 25q19 29 52.5 47t74.5 18q61 0 96.5 -31t35.5 -83
q0 -63 -57 -95q66 -30 66 -101q0 -55 -37.5 -89.5t-101.5 -34.5zM37 308v49h84v285q-9 -15 -29.5 -25.5t-40.5 -10.5h-6v55h3q38 0 56 21t18 48h51v-373h81v-49h-217z" />
    <glyph glyph-name="uni2154" unicode="&#x2154;" horiz-adv-x="838" 
d="M129 0l527 730h68l-527 -730h-68zM39 308v50q0 25 9.5 46.5t30 42t35 32.5t43.5 32q33 22 49 34.5t32 33.5t16 41q0 31 -22 50.5t-60 19.5q-62 0 -93 -65l-45 23q42 88 138 88q61 0 98 -33t37 -83q0 -31 -19 -60t-38 -44t-56 -41q-27 -18 -39 -27t-30 -25.5t-25.5 -32
t-7.5 -32.5h216v-50h-269zM666 -6q-85 0 -133 57l44 34q32 -43 89 -43q38 0 62.5 21t24.5 55q0 35 -25.5 55.5t-66.5 20.5h-42v48h42q40 0 62.5 20t22.5 52q0 31 -22.5 49.5t-59.5 18.5q-55 0 -83 -44l-44 25q19 29 52.5 47t74.5 18q61 0 96.5 -31t35.5 -83q0 -63 -57 -95
q66 -30 66 -101q0 -55 -37.5 -89.5t-101.5 -34.5z" />
    <glyph glyph-name="uni2155" unicode="&#x2155;" horiz-adv-x="836" 
d="M659 -6q-49 0 -86 22t-56 58l48 28q29 -60 95 -60q38 0 64.5 26t26.5 67q0 43 -27 68t-65 25q-62 0 -92 -58l-47 21l31 231h229v-49h-187l-18 -132q36 34 88 34q59 0 100 -37t41 -103q0 -62 -41 -101.5t-104 -39.5zM105 0l527 730h68l-527 -730h-68zM37 308v49h84v285
q-9 -15 -29.5 -25.5t-40.5 -10.5h-6v55h3q38 0 56 21t18 48h51v-373h81v-49h-217z" />
    <glyph glyph-name="uni2156" unicode="&#x2156;" horiz-adv-x="851" 
d="M674 -6q-49 0 -86 22t-56 58l48 28q29 -60 95 -60q38 0 64.5 26t26.5 67q0 43 -27 68t-65 25q-62 0 -92 -58l-47 21l31 231h229v-49h-187l-18 -132q36 34 88 34q59 0 100 -37t41 -103q0 -62 -41 -101.5t-104 -39.5zM125 0l527 730h68l-527 -730h-68zM39 308v50
q0 25 9.5 46.5t30 42t35 32.5t43.5 32q33 22 49 34.5t32 33.5t16 41q0 31 -22 50.5t-60 19.5q-62 0 -93 -65l-45 23q42 88 138 88q61 0 98 -33t37 -83q0 -31 -19 -60t-38 -44t-56 -41q-27 -18 -39 -27t-30 -25.5t-25.5 -32t-7.5 -32.5h216v-50h-269z" />
    <glyph glyph-name="uni2157" unicode="&#x2157;" horiz-adv-x="867" 
d="M690 -6q-49 0 -86 22t-56 58l48 28q29 -60 95 -60q38 0 64.5 26t26.5 67q0 43 -27 68t-65 25q-62 0 -92 -58l-47 21l31 231h229v-49h-187l-18 -132q36 34 88 34q59 0 100 -37t41 -103q0 -62 -41 -101.5t-104 -39.5zM136 0l527 730h68l-527 -730h-68zM158 302
q-85 0 -133 57l44 34q32 -43 89 -43q38 0 62.5 21t24.5 55q0 35 -25.5 55.5t-66.5 20.5h-42v48h42q40 0 62.5 20t22.5 52q0 31 -22.5 49.5t-59.5 18.5q-55 0 -83 -44l-44 25q19 29 52.5 47t74.5 18q61 0 96.5 -31t35.5 -83q0 -63 -57 -95q66 -30 66 -101q0 -55 -37.5 -89.5
t-101.5 -34.5z" />
    <glyph glyph-name="uni2158" unicode="&#x2158;" horiz-adv-x="850" 
d="M673 -6q-49 0 -86 22t-56 58l48 28q29 -60 95 -60q38 0 64.5 26t26.5 67q0 43 -27 68t-65 25q-62 0 -92 -58l-47 21l31 231h229v-49h-187l-18 -132q36 34 88 34q59 0 100 -37t41 -103q0 -62 -41 -101.5t-104 -39.5zM119 0l527 730h68l-527 -730h-68zM229 308v97h-195v48
l193 277h54v-277h61v-48h-61v-97h-52zM91 453h138v196z" />
    <glyph glyph-name="uni2159" unicode="&#x2159;" horiz-adv-x="787" 
d="M603 -6q-64 0 -106.5 42t-42.5 103q0 59 32 104l121 179h61l-99 -145q22 8 43 8q58 0 98.5 -42t40.5 -103q0 -63 -42.5 -104.5t-105.5 -41.5zM105 0l527 730h68l-527 -730h-68zM37 308v49h84v285q-9 -15 -29.5 -25.5t-40.5 -10.5h-6v55h3q38 0 56 21t18 48h51v-373h81
v-49h-217zM602 42q40 0 69 29t29 70q0 40 -29 69t-69 29q-41 0 -69.5 -29t-28.5 -70t28.5 -69.5t69.5 -28.5z" />
    <glyph glyph-name="uni215A" unicode="&#x215a;" horiz-adv-x="823" 
d="M640 -6q-64 0 -106.5 42t-42.5 103q0 59 32 104l121 179h61l-99 -145q22 8 43 8q58 0 98.5 -42t40.5 -103q0 -63 -42.5 -104.5t-105.5 -41.5zM177 302q-49 0 -86 22t-56 58l48 28q29 -60 95 -60q38 0 64.5 26t26.5 67q0 43 -27 68t-65 25q-62 0 -92 -58l-47 21l31 231
h229v-49h-187l-18 -132q36 34 88 34q59 0 100 -37t41 -103q0 -62 -41 -101.5t-104 -39.5zM142 0l527 730h68l-527 -730h-68zM639 42q40 0 69 29t29 70q0 40 -29 69t-69 29q-41 0 -69.5 -29t-28.5 -70t28.5 -69.5t69.5 -28.5z" />
    <glyph glyph-name="uni215B" unicode="&#x215b;" horiz-adv-x="839" 
d="M666 -6q-61 0 -97.5 36.5t-36.5 89.5q0 72 65 105q-49 29 -49 89q0 48 33 81t85 33t85.5 -33.5t33.5 -80.5q0 -58 -51 -88q66 -31 66 -106q0 -53 -36 -89.5t-98 -36.5zM104 0l527 730h68l-527 -730h-68zM37 308v49h84v285q-9 -15 -29.5 -25.5t-40.5 -10.5h-6v55h3
q38 0 56 21t18 48h51v-373h81v-49h-217zM666 42q37 0 59.5 22.5t22.5 55.5q0 34 -22 57t-60 23q-37 0 -59.5 -23.5t-22.5 -56.5t22.5 -55.5t59.5 -22.5zM666 249q30 0 48.5 18.5t18.5 46.5t-18.5 47t-48.5 19q-29 0 -47 -19t-18 -47t18 -46.5t47 -18.5z" />
    <glyph glyph-name="uni215C" unicode="&#x215c;" horiz-adv-x="870" 
d="M698 -6q-61 0 -97.5 36.5t-36.5 89.5q0 72 65 105q-49 29 -49 89q0 48 33 81t85 33t85.5 -33.5t33.5 -80.5q0 -58 -51 -88q66 -31 66 -106q0 -53 -36 -89.5t-98 -36.5zM136 0l527 730h68l-527 -730h-68zM158 302q-85 0 -133 57l44 34q32 -43 89 -43q38 0 62.5 21t24.5 55
q0 35 -25.5 55.5t-66.5 20.5h-42v48h42q40 0 62.5 20t22.5 52q0 31 -22.5 49.5t-59.5 18.5q-55 0 -83 -44l-44 25q19 29 52.5 47t74.5 18q61 0 96.5 -31t35.5 -83q0 -63 -57 -95q66 -30 66 -101q0 -55 -37.5 -89.5t-101.5 -34.5zM698 42q37 0 59.5 22.5t22.5 55.5
q0 34 -22 57t-60 23q-37 0 -59.5 -23.5t-22.5 -56.5t22.5 -55.5t59.5 -22.5zM698 249q30 0 48.5 18.5t18.5 46.5t-18.5 47t-48.5 19q-29 0 -47 -19t-18 -47t18 -46.5t47 -18.5z" />
    <glyph glyph-name="uni215D" unicode="&#x215d;" horiz-adv-x="876" 
d="M704 -6q-61 0 -97.5 36.5t-36.5 89.5q0 72 65 105q-49 29 -49 89q0 48 33 81t85 33t85.5 -33.5t33.5 -80.5q0 -58 -51 -88q66 -31 66 -106q0 -53 -36 -89.5t-98 -36.5zM177 302q-49 0 -86 22t-56 58l48 28q29 -60 95 -60q38 0 64.5 26t26.5 67q0 43 -27 68t-65 25
q-62 0 -92 -58l-47 21l31 231h229v-49h-187l-18 -132q36 34 88 34q59 0 100 -37t41 -103q0 -62 -41 -101.5t-104 -39.5zM142 0l527 730h68l-527 -730h-68zM704 42q37 0 59.5 22.5t22.5 55.5q0 34 -22 57t-60 23q-37 0 -59.5 -23.5t-22.5 -56.5t22.5 -55.5t59.5 -22.5z
M704 249q30 0 48.5 18.5t18.5 46.5t-18.5 47t-48.5 19q-29 0 -47 -19t-18 -47t18 -46.5t47 -18.5z" />
    <glyph glyph-name="uni215E" unicode="&#x215e;" horiz-adv-x="792" 
d="M620 -6q-61 0 -97.5 36.5t-36.5 89.5q0 72 65 105q-49 29 -49 89q0 48 33 81t85 33t85.5 -33.5t33.5 -80.5q0 -58 -51 -88q66 -31 66 -106q0 -53 -36 -89.5t-98 -36.5zM58 0l527 730h68l-527 -730h-68zM91 308l171 372h-207v50h262v-45l-170 -377h-56zM620 42
q37 0 59.5 22.5t22.5 55.5q0 34 -22 57t-60 23q-37 0 -59.5 -23.5t-22.5 -56.5t22.5 -55.5t59.5 -22.5zM620 249q30 0 48.5 18.5t18.5 46.5t-18.5 47t-48.5 19q-29 0 -47 -19t-18 -47t18 -46.5t47 -18.5z" />
    <glyph glyph-name="uni215F" unicode="&#x215f;" horiz-adv-x="727" 
d="M105 0l527 730h68l-527 -730h-68zM37 308v49h84v285q-9 -15 -29.5 -25.5t-40.5 -10.5h-6v55h3q38 0 56 21t18 48h51v-373h81v-49h-217z" />
    <glyph glyph-name="arrowleft" unicode="&#x2190;" horiz-adv-x="896" 
d="M258 127q-30 66 -89.5 128.5t-119.5 93.5v35q60 31 119.5 93.5t89.5 128.5l48 -30q-25 -51 -72.5 -101.5t-93.5 -80.5h686v-55h-688q47 -31 95 -80.5t73 -100.5z" />
    <glyph glyph-name="arrowup" unicode="&#x2191;" horiz-adv-x="896" 
d="M412 0v670q-30 -46 -80 -92.5t-100 -70.5l-30 48q64 29 126.5 89t94.5 119h35q32 -60 94.5 -119.5t127.5 -88.5l-30 -48q-50 24 -100 71.5t-81 93.5v-672h-57z" />
    <glyph glyph-name="arrowright" unicode="&#x2192;" horiz-adv-x="896" 
d="M620 127l-47 30q23 51 71 101t95 81h-686v55h686q-47 30 -94.5 80t-71.5 101l49 31q29 -65 88.5 -128t119.5 -95v-34q-60 -31 -120 -94t-90 -128z" />
    <glyph glyph-name="arrowdown" unicode="&#x2193;" horiz-adv-x="896" 
d="M423 -33q-31 60 -94 119.5t-128 88.5l30 48q49 -24 99 -70.5t81 -92.5v670h57v-674q29 46 79.5 94t101.5 73l31 -48q-65 -29 -127.5 -89t-94.5 -119h-35z" />
    <glyph glyph-name="uni2196" unicode="&#x2196;" horiz-adv-x="896" 
d="M692 72l-485 485q12 -47 10.5 -119.5t-20.5 -125.5l-55 13q25 67 26.5 154.5t-18.5 148.5l25 26q63 -21 150.5 -18.5t154.5 27.5l12 -55q-53 -19 -126.5 -21t-119.5 10l486 -486z" />
    <glyph glyph-name="uni2197" unicode="&#x2197;" horiz-adv-x="896" 
d="M182 72l-38 39l483 484q-46 -11 -119 -9t-125 21l13 55q67 -25 154.5 -27t149.5 18l25 -25q-20 -62 -18 -149.5t27 -154.5l-55 -13q-19 53 -21 127t10 120z" />
    <glyph glyph-name="uni2198" unicode="&#x2198;" horiz-adv-x="896" 
d="M700 78q-63 21 -150.5 18.5t-154.5 -27.5l-12 55q53 19 126.5 21t119.5 -10l-486 486l39 39l485 -486q-12 46 -9.5 119.5t20.5 126.5l55 -13q-25 -67 -27 -154.5t18 -148.5z" />
    <glyph glyph-name="uni2199" unicode="&#x2199;" horiz-adv-x="896" 
d="M479 70q-67 25 -155 27t-149 -18l-25 25q20 62 18 149.5t-27 154.5l55 13q18 -54 20 -128t-10 -120l486 487l39 -39l-484 -485q47 12 119.5 9.5t125.5 -20.5z" />
    <glyph glyph-name="partialdiff" unicode="&#x2202;" horiz-adv-x="611" 
d="M305 -7q-106 0 -179.5 72t-73.5 178q0 105 72.5 177.5t174.5 72.5q106 0 163 -71q-73 142 -305 308h88q314 -243 314 -487q0 -105 -73.5 -177.5t-180.5 -72.5zM306 46q81 0 138 57.5t57 139.5q0 81 -57 138.5t-138 57.5q-80 0 -138 -57.5t-58 -138.5t58 -139t138 -58z
" />
    <glyph glyph-name="increment" unicode="&#x2206;" horiz-adv-x="897" 
d="M877 0h-857l429 742zM449 630l-331 -575h661z" />
    <glyph glyph-name="product" unicode="&#x220f;" horiz-adv-x="741" 
d="M43 674v56h656v-56h-132v-674h-58v674h-277v-674h-58v674h-131z" />
    <glyph glyph-name="summation" unicode="&#x2211;" horiz-adv-x="575" 
d="M43 0v59l268 320l-261 293v58h480v-55h-408l262 -297l-271 -323h417v-55h-487z" />
    <glyph glyph-name="minus" unicode="&#x2212;" horiz-adv-x="475" 
d="M53 341v50h370v-50h-370z" />
    <glyph glyph-name="radical" unicode="&#x221a;" horiz-adv-x="776" 
d="M311 0l-171 443h-95v57h137l165 -438l317 668h63l-350 -730h-66z" />
    <glyph glyph-name="infinity" unicode="&#x221e;" horiz-adv-x="940" 
d="M260 232q-63 0 -108 44.5t-45 107.5t45 107.5t108 44.5q51 0 100.5 -30t113.5 -86q63 56 112.5 86t100.5 30q63 0 108 -44.5t45 -107.5t-45 -107.5t-108 -44.5q-51 0 -101 30.5t-112 85.5q-61 -55 -112 -85.5t-102 -30.5zM261 283q38 0 78 25.5t97 74.5q-57 49 -97 74.5
t-78 25.5q-40 0 -70.5 -30t-30.5 -70t30.5 -70t70.5 -30zM687 285q40 0 70 30t29 70q0 40 -29.5 70t-69.5 30q-38 0 -77.5 -25.5t-96.5 -75.5q54 -48 95 -73.5t79 -25.5z" />
    <glyph glyph-name="integral" unicode="&#x222b;" horiz-adv-x="343" 
d="M-6 -204v53q82 0 105 23.5t23 106.5v569q0 108 37 145t143 37h5v-53q-82 0 -105 -23.5t-23 -106.5v-568q0 -108 -37.5 -145.5t-142.5 -37.5h-5z" />
    <glyph glyph-name="approxequal" unicode="&#x2248;" horiz-adv-x="467" 
d="M48 411v52q54 26 97 26q31 0 91.5 -19t85.5 -19q43 0 96 25v-52q-44 -25 -96 -25q-29 0 -90.5 19t-86.5 19q-41 0 -97 -26zM48 247v52q54 26 95 26q31 0 93.5 -18.5t87.5 -18.5q43 0 94 24v-52q-40 -23 -94 -23q-29 0 -92.5 18.5t-88.5 18.5q-37 0 -95 -27z" />
    <glyph glyph-name="notequal" unicode="&#x2260;" horiz-adv-x="475" 
d="M344 536l-33 -67h112v-50h-136l-54 -112h190v-49h-214l-32 -67h-53l32 67h-103v49h126l54 112h-180v50h204l33 67h54z" />
    <glyph glyph-name="equivalence" unicode="&#x2261;" horiz-adv-x="475" 
d="M53 338v49h370v-49h-370zM53 178v49h370v-49h-370zM53 499v50h370v-50h-370z" />
    <glyph glyph-name="lessequal" unicode="&#x2264;" horiz-adv-x="475" 
d="M422 273l-370 145v50l370 141v-52l-309 -114l309 -118v-52zM52 175v50h370v-50h-370z" />
    <glyph glyph-name="greaterequal" unicode="&#x2265;" horiz-adv-x="475" 
d="M52 273v52l310 118l-310 114v52l370 -141v-50zM52 175v50h370v-50h-370z" />
    <glyph glyph-name="squaremultiply" unicode="&#x22a0;" horiz-adv-x="926" 
d="M100 0v730h726v-730h-726zM158 675v-620h610v620h-610zM295 154l-34 35l170 177l-169 175l34 34l169 -175l167 175l34 -35l-168 -174l169 -174l-34 -34l-168 173z" />
    <glyph glyph-name="house" unicode="&#x2302;" horiz-adv-x="874" 
d="M774 0h-674v427l337 323l337 -323v-427z" />
    <glyph glyph-name="blacksquare" unicode="&#x25a0;" horiz-adv-x="926" 
d="M100 0v730h726v-730h-726z" />
    <glyph glyph-name="whitesquare" unicode="&#x25a1;" horiz-adv-x="926" 
d="M100 0v730h726v-730h-726zM158 675v-620h610v620h-610z" />
    <glyph glyph-name="blacksmallsquare" unicode="&#x25aa;" horiz-adv-x="700" 
d="M100 0v500h500v-500h-500z" />
    <glyph glyph-name="whitesmallsquare" unicode="&#x25ab;" horiz-adv-x="700" 
d="M100 0v500h500v-500h-500zM158 445v-390h384v390h-384z" />
    <glyph glyph-name="triagup" unicode="&#x25b2;" horiz-adv-x="897" 
d="M877 0h-857l429 742z" />
    <glyph glyph-name="triagrt" unicode="&#x25ba;" horiz-adv-x="897" 
d="M100 -57v857l742 -428z" />
    <glyph glyph-name="triagdn" unicode="&#x25bc;" horiz-adv-x="897" 
d="M20 730h857l-428 -742z" />
    <glyph glyph-name="triaglf" unicode="&#x25c4;" horiz-adv-x="897" 
d="M797 800v-857l-742 429z" />
    <glyph glyph-name="lozenge" unicode="&#x25ca;" horiz-adv-x="843" 
d="M415 -16l-382 382l380 380l382 -382zM106 366l309 -308l307 307l-309 308z" />
    <glyph glyph-name="whitecircle" unicode="&#x25cb;" horiz-adv-x="927" 
d="M464 -10q-155 0 -265 110t-110 265t110 265t265 110t265 -110t110 -265t-110 -265t-265 -110zM464 45q133 0 224.5 93.5t91.5 226.5t-91.5 226.5t-224.5 93.5t-224.5 -93.5t-91.5 -226.5t91.5 -226.5t224.5 -93.5z" />
    <glyph glyph-name="bullseye" unicode="&#x25ce;" horiz-adv-x="927" 
d="M464 -10q-155 0 -265 110t-110 265t110 265t265 110t265 -110t110 -265t-110 -265t-265 -110zM464 45q133 0 224.5 93.5t91.5 226.5t-91.5 226.5t-224.5 93.5t-224.5 -93.5t-91.5 -226.5t91.5 -226.5t224.5 -93.5zM464 150q-89 0 -151 62t-62 152t62 152t151 62
t151.5 -62t62.5 -152t-62.5 -152t-151.5 -62zM464 204q66 0 112 46.5t46 113.5t-46 113.5t-112 46.5t-111 -46t-45 -114t45 -114t111 -46zM411 365q0 23 15.5 38.5t37.5 15.5t38 -15.5t16 -38.5q0 -22 -15.5 -37.5t-38.5 -15.5q-22 0 -37.5 15t-15.5 38z" />
    <glyph glyph-name="blackcircle" unicode="&#x25cf;" horiz-adv-x="927" 
d="M464 -10q-155 0 -265 110t-110 265t110 265t265 110t265 -110t110 -265t-110 -265t-265 -110z" />
    <glyph glyph-name="uni25E2" unicode="&#x25e2;" horiz-adv-x="897" 
d="M873 533l-606 -606l-222 828z" />
    <glyph glyph-name="uni25E3" unicode="&#x25e3;" horiz-adv-x="897" 
d="M632 -73l-606 606l828 222z" />
    <glyph glyph-name="uni25E4" unicode="&#x25e4;" horiz-adv-x="897" 
d="M857 -54l-828 222l606 606z" />
    <glyph glyph-name="uni25E5" unicode="&#x25e5;" horiz-adv-x="897" 
d="M872 163l-828 -221l223 828z" />
    <glyph glyph-name="uni2605" unicode="&#x2605;" horiz-adv-x="900" 
d="M562 303l72 -218l-187 135l-186 -135l72 219l-186 135l229 -1l72 218l71 -218l230 -1z" />
    <glyph glyph-name="uni263C" unicode="&#x263c;" horiz-adv-x="928" 
d="M287 365q0 71 51.5 122.5t122.5 51.5t122.5 -51.5t51.5 -122.5t-51.5 -122.5t-122.5 -51.5t-122.5 51.5t-51.5 122.5zM451 577l-17 142h54l-17 -142h-20zM471 155l17 -142h-54l17 142h20zM250 356l-142 -17v54l142 -17v-20zM672 376l142 17v-54l-142 17v20zM273 464
l-133 55l28 47l115 -87zM649 268l133 -55l-28 -47l-115 87zM348 544l-87 115l47 28l55 -133zM574 188l87 -115l-47 -28l-55 133zM559 554l55 133l47 -28l-87 -115zM363 178l-55 -133l-47 28l87 115zM639 480l113 86l30 -46l-133 -56zM283 252l-113 -86l-30 46l133 56z" />
    <glyph glyph-name="uni263E" unicode="&#x263e;" horiz-adv-x="787" 
d="M534 616q-99 0 -169 -73.5t-70 -177.5t70 -177.5t169 -73.5q32 0 71 12q-81 -57 -178 -57q-122 0 -209 87t-87 209t87 209t209 87q97 0 178 -57q-46 12 -71 12z" />
    <glyph glyph-name="spade" unicode="&#x2660;" horiz-adv-x="920" 
d="M594 0h-259q27 50 39.5 75.5t33.5 92.5t21 122q-21 -59 -64 -97.5t-106 -38.5q-70 0 -120.5 47t-50.5 111q0 82 52 150t183 173l140 112h1l140 -112q128 -103 178 -171t50 -152q0 -64 -46 -110.5t-111 -46.5q-69 0 -114.5 38.5t-66.5 96.5q0 -29 6 -61t13 -55.5t21.5 -56
t21 -45.5t22.5 -42t16 -30z" />
    <glyph glyph-name="club" unicode="&#x2663;" horiz-adv-x="920" 
d="M595 0h-259q80 150 91 248q-22 -53 -66.5 -85.5t-100.5 -32.5q-74 0 -125.5 52t-51.5 125t51.5 125t125.5 52q19 0 42 -7q-19 41 -19 87q0 73 51 124.5t124 51.5t124.5 -51.5t51.5 -124.5q0 -45 -19 -88q22 8 46 8q73 0 124.5 -51.5t51.5 -125.5q0 -73 -51.5 -125
t-125.5 -52q-56 0 -99 32t-64 85q3 -25 10.5 -52t15.5 -48t20 -46.5t19 -39l19 -35.5t14 -26z" />
    <glyph glyph-name="heart" unicode="&#x2665;" horiz-adv-x="920" 
d="M89 550q0 78 53 134t130 56q75 0 126 -45.5t59 -115.5q9 70 59.5 115.5t125.5 45.5q77 0 133 -56.5t56 -133.5q0 -85 -52.5 -177t-179.5 -233l-142 -157l-141 157q-125 139 -176 231.5t-51 178.5z" />
    <glyph glyph-name="diamond" unicode="&#x2666;" horiz-adv-x="920" 
d="M133 390l327 401l327 -401l-327 -400z" />
    <glyph glyph-name="uni267B" unicode="&#x267b;" horiz-adv-x="921" 
d="M821 246l1 -2l-91 -157q-13 -19 -19.5 -27.5t-23 -16.5t-39.5 -8h-54v-47l-106 128l106 127v-46h136q25 0 47.5 12.5t32.5 24.5zM184 111h-2l-90 158q-10 19 -14 29.5t-3 28.5t13 38l27 46l-40 23l164 29l55 -156l-38 23q-66 -113 -68 -118q-12 -21 -13 -46.5t4 -39.5z
M389 728v1h182q22 -1 33.5 -2.5t26.5 -11.5t26 -30l26 -46l41 23l-58 -157l-162 30l38 22l-67 118q-13 22 -34.5 35t-36.5 16zM197 558l63 112q11 18 32 29q43 22 91 9t64 -42l-109 -189zM429 35h-127q-23 0 -42 12q-40 23 -53.5 74t4.5 76h218v-162zM767 491l65 -110
q9 -14 9 -41q1 -45 -35.5 -81.5t-69.5 -36.5l-109 189z" />
    <glyph glyph-name="uni267C" unicode="&#x267c;" horiz-adv-x="921" 
d="M837 366q0 -156 -110 -265.5t-265 -109.5q-157 0 -267 109.5t-110 265.5t110 266.5t267 110.5q155 0 265 -110.5t110 -266.5zM304 606l-49 -86l109 -63l84 146q-12 23 -49.5 33t-70.5 -7q-19 -12 -24 -23zM399 652v-1q46 -4 67 -41l53 -91l-30 -18l126 -23l44 122
l-31 -18l-21 36q-13 22 -27.5 28t-39.5 6h-141zM332 114h99v126h-170q-14 -20 -3 -59.5t42 -57.5q16 -9 32 -9zM243 173h1q-18 41 3 79l53 91l30 -18l-43 121l-127 -22l31 -18l-21 -36q-9 -15 -10 -29.5t2 -21.5t11 -24zM746 383l-49 85l-110 -63l85 -147q26 0 54.5 28.5
t27.5 64.5q0 18 -8 32zM739 276l-1 1q-26 -37 -70 -37h-105v35l-83 -98l83 -99v36h41q26 0 39 9.5t25 30.5z" />
    <glyph glyph-name="uni267D" unicode="&#x267d;" horiz-adv-x="921" 
d="M837 366q0 -156 -110 -265.5t-265 -109.5q-157 0 -267 109.5t-110 265.5t110 266.5t267 110.5q155 0 265 -110.5t110 -266.5zM818 366q0 149 -104 253.5t-252 104.5q-149 0 -254 -104.5t-105 -253.5q0 -148 105 -252.5t254 -104.5q148 0 252 104.5t104 252.5zM255 520
l49 86q5 11 24 23q33 17 70.5 7t49.5 -33l-84 -146zM399 651v1h141q25 0 39.5 -6t27.5 -28l21 -36l31 18l-44 -122l-126 23l30 18l-53 91q-9 16 -26 26.5t-29 12.5zM431 114h-99q-16 0 -32 9q-31 18 -42 57.5t3 59.5h170v-126zM244 173h-1l-70 122q-8 17 -11 24t-2 21.5
t10 29.5l21 36l-31 18l127 22l43 -121l-30 18l-53 -91q-9 -17 -10 -36.5t3 -31.5zM697 468l49 -85q8 -14 8 -32q1 -36 -27.5 -64.5t-54.5 -28.5l-85 147zM738 277l1 -1l-71 -122q-8 -14 -14 -21t-19 -13t-31 -6h-41v-36l-83 99l83 98v-35h105q20 0 37.5 9t24.5 19z" />
    <glyph glyph-name="anglebracketleft" unicode="&#x3008;" horiz-adv-x="360" 
d="M265 -230l-228 480l228 480h62l-228 -480l228 -480h-62z" />
    <glyph glyph-name="anglebracketright" unicode="&#x3009;" horiz-adv-x="360" 
d="M96 -230h-62l228 480l-228 480h62l228 -480z" />
    <glyph glyph-name="fi" unicode="&#xfb01;" horiz-adv-x="509" 
d="M36 449v51h85v48q0 108 37.5 145t142.5 37h6v-53q-82 0 -105 -23.5t-23 -106.5v-47h128v-51h-128v-449h-58v449h-85zM385 0v500h57v-500h-57zM385 585v145h57v-145h-57z" />
    <glyph glyph-name="fl" unicode="&#xfb02;" horiz-adv-x="510" 
d="M36 449v51h85v48q0 108 37.5 145t142.5 37h6v-53q-82 0 -105 -23.5t-23 -106.5v-47h128v-51h-128v-449h-58v449h-85zM385 0v730h57v-730h-57z" />
    <glyph glyph-name="underscoremonospace" unicode="&#xff3f;" 
d="M53 -60v50h483v-50h-483z" />
    <glyph glyph-name="guillemotleft.cap" horiz-adv-x="451" 
d="M222 229l-155 117v36l155 117v-45l-119 -91l119 -90v-44zM383 229l-154 117v36l154 117v-45l-118 -91l118 -90v-44z" />
    <glyph glyph-name="guillemotright.cap" horiz-adv-x="451" 
d="M67 229v44l119 90l-119 91v45l155 -117v-36zM229 229v44l118 90l-118 91v45l154 -117v-36z" />
    <glyph glyph-name="guilsinglleft.cap" horiz-adv-x="289" 
d="M220 226l-150 119v38l150 119v-48l-115 -91l115 -89v-48z" />
    <glyph glyph-name="guilsinglright.cap" horiz-adv-x="289" 
d="M70 226v47l114 90l-114 91v48l150 -119v-38z" />
    <glyph glyph-name="bullet.cap" horiz-adv-x="305" 
d="M153 303q-25 0 -42.5 17.5t-17.5 42.5t17.5 42.5t42.5 17.5t42.5 -17.5t17.5 -42.5t-17.5 -42.5t-42.5 -17.5z" />
    <glyph glyph-name="bar.cap" horiz-adv-x="190" 
d="M66 -120v960h58v-960h-58z" />
    <glyph glyph-name="brokenbar.cap" horiz-adv-x="216" 
d="M66 420v420h58v-420h-58zM66 -120v420h58v-420h-58z" />
    <glyph glyph-name="parenleft.cap" horiz-adv-x="419" 
d="M328 -136q-274 190 -274 498q0 304 270 498l40 -45q-248 -172 -248 -452q0 -282 251 -453z" />
    <glyph glyph-name="parenright.cap" horiz-adv-x="419" 
d="M91 -136l-39 46q251 171 251 452t-248 453l40 45q270 -194 270 -498q0 -308 -274 -498z" />
    <glyph glyph-name="bracketleft.cap" horiz-adv-x="378" 
d="M53 -120v960h273v-54h-215v-852h215v-54h-273z" />
    <glyph glyph-name="bracketright.cap" horiz-adv-x="378" 
d="M53 -120v53h215v853h-215v54h273v-960h-273z" />
    <glyph glyph-name="braceleft.cap" horiz-adv-x="405" 
d="M363 -120h-11q-125 0 -172.5 47t-47.5 170v128q0 62 -17 84t-77 22v55q60 0 77 22.5t17 84.5v130q0 123 47.5 170t172.5 47h11v-52q-105 0 -139.5 -33.5t-34.5 -132.5v-130q0 -56 -14 -87.5t-50 -45.5q37 -14 50.5 -45t13.5 -88v-128q0 -99 34.5 -132.5t139.5 -33.5v-52z
" />
    <glyph glyph-name="braceright.cap" horiz-adv-x="405" 
d="M43 -120v53q105 0 139.5 33.5t34.5 131.5v128q0 56 13.5 87.5t49.5 45.5q-35 14 -49 45.5t-14 87.5v130q0 98 -34.5 131.5t-139.5 33.5v53h11q125 0 172.5 -47t47.5 -170v-130q0 -62 17 -84.5t77 -22.5v-55q-60 0 -77 -22t-17 -84v-128q0 -123 -47.5 -170t-172.5 -47h-11
z" />
    <glyph glyph-name="commaaccent" horiz-adv-x="506" 
d="M234 -249h-40l43 204h55z" />
    <glyph glyph-name="a.alt" horiz-adv-x="545" 
d="M217 -10q-83 0 -125 36.5t-42 94.5q-1 68 49.5 104t155.5 57q98 20 124 34q38 20 38 54q0 93 -142 93q-74 0 -112.5 -31t-38.5 -87v-3h-57v2q0 78 55 122t152 44q102 0 152 -43t50 -115v-352h-55v85q-81 -95 -204 -95zM217 38q128 0 205 122v130q-23 -29 -166 -58
q-76 -15 -112.5 -38t-36.5 -69q0 -39 27.5 -63t82.5 -24z" />
    <glyph glyph-name="g.alt" horiz-adv-x="581" 
d="M282 -263q-233 0 -233 131q0 65 67 96q-67 22 -67 86q0 39 27 64t74 33q-86 54 -86 163q0 83 58.5 141.5t141.5 58.5q57 0 103 -29t70 -77q14 91 105 91h13v-62h-15q-40 0 -57.5 -23.5t-17.5 -99.5q0 -85 -57 -143.5t-141 -58.5h-64q-51 0 -76.5 -15.5t-25.5 -39.5
q0 -52 98 -52h144q89 0 137.5 -31t48.5 -90q0 -65 -63.5 -104t-183.5 -39zM263 158q62 0 105.5 44t43.5 108q0 62 -43.5 105.5t-105.5 43.5q-60 0 -103.5 -44t-43.5 -105q0 -62 43.5 -107t103.5 -45zM341 -48h-119q-53 1 -87 -21t-34 -60q0 -84 169 -84h26q89 0 134.5 25.5
t45.5 64.5q0 75 -135 75z" />
    <glyph glyph-name="aacute.alt" horiz-adv-x="545" 
d="M235 565l119 155h75l-140 -155h-54zM217 -10q-83 0 -125 36.5t-42 94.5q-1 68 49.5 104t155.5 57q98 20 124 34q38 20 38 54q0 93 -142 93q-74 0 -112.5 -31t-38.5 -87v-3h-57v2q0 78 55 122t152 44q102 0 152 -43t50 -115v-352h-55v85q-81 -95 -204 -95zM217 38
q128 0 205 122v130q-23 -29 -166 -58q-76 -15 -112.5 -38t-36.5 -69q0 -39 27.5 -63t82.5 -24z" />
    <glyph glyph-name="agrave.alt" horiz-adv-x="545" 
d="M217 -10q-83 0 -125 36.5t-42 94.5q-1 68 49.5 104t155.5 57q98 20 124 34q38 20 38 54q0 93 -142 93q-74 0 -112.5 -31t-38.5 -87v-3h-57v2q0 78 55 122t152 44q102 0 152 -43t50 -115v-352h-55v85q-81 -95 -204 -95zM217 38q128 0 205 122v130q-23 -29 -166 -58
q-76 -15 -112.5 -38t-36.5 -69q0 -39 27.5 -63t82.5 -24zM252 565l-140 155h74l120 -155h-54z" />
    <glyph glyph-name="acircumflex.alt" horiz-adv-x="545" 
d="M217 -10q-83 0 -125 36.5t-42 94.5q-1 68 49.5 104t155.5 57q98 20 124 34q38 20 38 54q0 93 -142 93q-74 0 -112.5 -31t-38.5 -87v-3h-57v2q0 78 55 122t152 44q102 0 152 -43t50 -115v-352h-55v85q-81 -95 -204 -95zM217 38q128 0 205 122v130q-23 -29 -166 -58
q-76 -15 -112.5 -38t-36.5 -69q0 -39 27.5 -63t82.5 -24zM126 565l119 155h49l119 -155h-61l-83 110l-83 -110h-60z" />
    <glyph glyph-name="adieresis.alt" horiz-adv-x="545" 
d="M297 570v139h56v-139h-56zM180 570v139h56v-139h-56zM217 -10q-83 0 -125 36.5t-42 94.5q-1 68 49.5 104t155.5 57q98 20 124 34q38 20 38 54q0 93 -142 93q-74 0 -112.5 -31t-38.5 -87v-3h-57v2q0 78 55 122t152 44q102 0 152 -43t50 -115v-352h-55v85q-81 -95 -204 -95
zM217 38q128 0 205 122v130q-23 -29 -166 -58q-76 -15 -112.5 -38t-36.5 -69q0 -39 27.5 -63t82.5 -24z" />
    <glyph glyph-name="atilde.alt" horiz-adv-x="545" 
d="M217 -10q-83 0 -125 36.5t-42 94.5q-1 68 49.5 104t155.5 57q98 20 124 34q38 20 38 54q0 93 -142 93q-74 0 -112.5 -31t-38.5 -87v-3h-57v2q0 78 55 122t152 44q102 0 152 -43t50 -115v-352h-55v85q-81 -95 -204 -95zM217 38q128 0 205 122v130q-23 -29 -166 -58
q-76 -15 -112.5 -38t-36.5 -69q0 -39 27.5 -63t82.5 -24zM105 565q0 49 26 78.5t67 29.5q37 0 86 -30q52 -31 72 -31q50 0 50 58h46q0 -51 -25 -80t-70 -29q-35 0 -94 35q-4 2 -13 7.5t-13.5 8t-11.5 5.5t-13.5 4.5t-13.5 1.5q-21 0 -33.5 -15t-12.5 -43h-47z" />
    <glyph glyph-name="aring.alt" horiz-adv-x="545" 
d="M265 558q-41 0 -69.5 29t-28.5 70q0 42 28.5 71t69.5 29q43 0 72 -29t29 -71q0 -41 -29 -70t-72 -29zM265 603q23 0 39.5 16t16.5 38q0 23 -16.5 39t-39.5 16q-22 0 -38 -16.5t-16 -38.5t16 -38t38 -16zM217 -10q-83 0 -125 36.5t-42 94.5q-1 68 49.5 104t155.5 57
q98 20 124 34q38 20 38 54q0 93 -142 93q-74 0 -112.5 -31t-38.5 -87v-3h-57v2q0 78 55 122t152 44q102 0 152 -43t50 -115v-352h-55v85q-81 -95 -204 -95zM217 38q128 0 205 122v130q-23 -29 -166 -58q-76 -15 -112.5 -38t-36.5 -69q0 -39 27.5 -63t82.5 -24z" />
    <glyph glyph-name="amacron.alt" horiz-adv-x="545" 
d="M217 -10q-83 0 -125 36.5t-42 94.5q-1 68 49.5 104t155.5 57q98 20 124 34q38 20 38 54q0 93 -142 93q-74 0 -112.5 -31t-38.5 -87v-3h-57v2q0 78 55 122t152 44q102 0 152 -43t50 -115v-352h-55v85q-81 -95 -204 -95zM217 38q128 0 205 122v130q-23 -29 -166 -58
q-76 -15 -112.5 -38t-36.5 -69q0 -39 27.5 -63t82.5 -24zM143 565v50h264v-50h-264z" />
    <glyph glyph-name="abreve.alt" horiz-adv-x="545" 
d="M217 -10q-83 0 -125 36.5t-42 94.5q-1 68 49.5 104t155.5 57q98 20 124 34q38 20 38 54q0 93 -142 93q-74 0 -112.5 -31t-38.5 -87v-3h-57v2q0 78 55 122t152 44q102 0 152 -43t50 -115v-352h-55v85q-81 -95 -204 -95zM217 38q128 0 205 122v130q-23 -29 -166 -58
q-76 -15 -112.5 -38t-36.5 -69q0 -39 27.5 -63t82.5 -24zM271 558q-78 0 -119.5 45t-41.5 112h49q0 -49 29.5 -81t82.5 -32q52 0 81.5 32.5t29.5 80.5h51q0 -65 -44.5 -111t-117.5 -46z" />
    <glyph glyph-name="aogonek.alt" horiz-adv-x="545" 
d="M453 -218q-55 0 -84 29t-29 72q0 64 81 131v71q-81 -95 -204 -95q-83 0 -125 36.5t-42 94.5q-1 68 49.5 104t155.5 57q98 20 124 34q38 20 38 54q0 93 -142 93q-74 0 -112.5 -31t-38.5 -87v-3h-57v2q0 78 55 122t152 44q102 0 152 -43t50 -115v-352q-82 -67 -82 -115
q0 -24 16 -39t43 -15q36 0 73 32l33 -40q-50 -41 -106 -41zM217 38q128 0 205 122v130q-23 -29 -166 -58q-76 -15 -112.5 -38t-36.5 -69q0 -39 27.5 -63t82.5 -24z" />
    <glyph glyph-name="aringacute.alt" horiz-adv-x="545" 
d="M244 794l119 155h75l-140 -155h-54zM271 561q-41 0 -69.5 29t-28.5 70q0 42 28.5 71t69.5 29q43 0 72 -29t29 -71q0 -41 -29 -70t-72 -29zM271 606q23 0 39.5 16t16.5 38q0 23 -16.5 39t-39.5 16q-22 0 -38 -16.5t-16 -38.5t16 -38t38 -16zM217 -10q-83 0 -125 36.5
t-42 94.5q-1 68 49.5 104t155.5 57q98 20 124 34q38 20 38 54q0 93 -142 93q-74 0 -112.5 -31t-38.5 -87v-3h-57v2q0 78 55 122t152 44q102 0 152 -43t50 -115v-352h-55v85q-81 -95 -204 -95zM217 38q128 0 205 122v130q-23 -29 -166 -58q-76 -15 -112.5 -38t-36.5 -69
q0 -39 27.5 -63t82.5 -24z" />
    <glyph glyph-name="gcircumflex.alt" horiz-adv-x="581" 
d="M282 -263q-233 0 -233 131q0 65 67 96q-67 22 -67 86q0 39 27 64t74 33q-86 54 -86 163q0 83 58.5 141.5t141.5 58.5q57 0 103 -29t70 -77q14 91 105 91h13v-62h-15q-40 0 -57.5 -23.5t-17.5 -99.5q0 -85 -57 -143.5t-141 -58.5h-64q-51 0 -76.5 -15.5t-25.5 -39.5
q0 -52 98 -52h144q89 0 137.5 -31t48.5 -90q0 -65 -63.5 -104t-183.5 -39zM263 158q62 0 105.5 44t43.5 108q0 62 -43.5 105.5t-105.5 43.5q-60 0 -103.5 -44t-43.5 -105q0 -62 43.5 -107t103.5 -45zM341 -48h-119q-53 1 -87 -21t-34 -60q0 -84 169 -84h26q89 0 134.5 25.5
t45.5 64.5q0 75 -135 75zM111 565l119 155h49l119 -155h-61l-83 110l-83 -110h-60z" />
    <glyph glyph-name="gbreve.alt" horiz-adv-x="581" 
d="M282 -263q-233 0 -233 131q0 65 67 96q-67 22 -67 86q0 39 27 64t74 33q-86 54 -86 163q0 83 58.5 141.5t141.5 58.5q57 0 103 -29t70 -77q14 91 105 91h13v-62h-15q-40 0 -57.5 -23.5t-17.5 -99.5q0 -85 -57 -143.5t-141 -58.5h-64q-51 0 -76.5 -15.5t-25.5 -39.5
q0 -52 98 -52h144q89 0 137.5 -31t48.5 -90q0 -65 -63.5 -104t-183.5 -39zM263 158q62 0 105.5 44t43.5 108q0 62 -43.5 105.5t-105.5 43.5q-60 0 -103.5 -44t-43.5 -105q0 -62 43.5 -107t103.5 -45zM341 -48h-119q-53 1 -87 -21t-34 -60q0 -84 169 -84h26q89 0 134.5 25.5
t45.5 64.5q0 75 -135 75zM265 558q-78 0 -119.5 45t-41.5 112h49q0 -49 29.5 -81t82.5 -32q52 0 81.5 32.5t29.5 80.5h51q0 -65 -44.5 -111t-117.5 -46z" />
    <glyph glyph-name="gdotaccent.alt" horiz-adv-x="581" 
d="M282 -263q-233 0 -233 131q0 65 67 96q-67 22 -67 86q0 39 27 64t74 33q-86 54 -86 163q0 83 58.5 141.5t141.5 58.5q57 0 103 -29t70 -77q14 91 105 91h13v-62h-15q-40 0 -57.5 -23.5t-17.5 -99.5q0 -85 -57 -143.5t-141 -58.5h-64q-51 0 -76.5 -15.5t-25.5 -39.5
q0 -52 98 -52h144q89 0 137.5 -31t48.5 -90q0 -65 -63.5 -104t-183.5 -39zM263 158q62 0 105.5 44t43.5 108q0 62 -43.5 105.5t-105.5 43.5q-60 0 -103.5 -44t-43.5 -105q0 -62 43.5 -107t103.5 -45zM217 -48h-5q-49 -2 -80 -23.5t-31 -57.5q0 -84 169 -84h26
q89 0 134.5 25.5t45.5 64.5q0 75 -135 75h-119h-5zM238 570v139h57v-139h-57z" />
    <glyph glyph-name="gcommaaccent.alt" horiz-adv-x="581" 
d="M282 -263q-233 0 -233 131q0 65 67 96q-67 22 -67 86q0 39 27 64t74 33q-86 54 -86 163q0 83 58.5 141.5t141.5 58.5q57 0 103 -29t70 -77q14 91 105 91h13v-62h-15q-40 0 -57.5 -23.5t-17.5 -99.5q0 -85 -57 -143.5t-141 -58.5h-64q-51 0 -76.5 -15.5t-25.5 -39.5
q0 -52 98 -52h144q89 0 137.5 -31t48.5 -90q0 -65 -63.5 -104t-183.5 -39zM263 158q62 0 105.5 44t43.5 108q0 62 -43.5 105.5t-105.5 43.5q-60 0 -103.5 -44t-43.5 -105q0 -62 43.5 -107t103.5 -45zM217 -48h-5q-49 -2 -80 -23.5t-31 -57.5q0 -84 169 -84h26
q89 0 134.5 25.5t45.5 64.5q0 75 -135 75h-119h-5zM284 569h-40l43 204h55z" />
    <glyph glyph-name="a.smcp" horiz-adv-x="576" 
d="M32 0l226 596h60l226 -596h-58l-58 153h-279l-58 -153h-59zM288 521l-118 -313h237z" />
    <glyph glyph-name="b.smcp" horiz-adv-x="538" 
d="M72 0v596h222q80 0 129.5 -43t49.5 -113q0 -44 -21 -78t-60 -52q46 -17 71.5 -55t25.5 -89q0 -75 -50.5 -120.5t-132.5 -45.5h-234zM305 280h-176v-228h178q56 0 90.5 32.5t34.5 82.5q0 51 -33.5 82t-93.5 31zM294 544h-165v-210h172q54 0 85 29.5t31 76.5q0 46 -34 75
t-89 29z" />
    <glyph glyph-name="c.smcp" horiz-adv-x="661" 
d="M357 -9q-130 0 -218.5 90t-88.5 217q0 128 89.5 217t215.5 89q85 0 157 -43t111 -114l-51 -26q-32 59 -89 94.5t-127 35.5q-105 0 -176.5 -74t-71.5 -179t72 -179t175 -74q75 0 132.5 38t89.5 102l53 -24q-41 -78 -113 -124t-160 -46z" />
    <glyph glyph-name="d.smcp" horiz-adv-x="598" 
d="M72 0v596h167q135 0 222 -85t87 -213q0 -127 -88 -212.5t-219 -85.5h-169zM234 543h-105v-489h107q110 0 181.5 69.5t71.5 174.5q0 106 -70.5 175.5t-184.5 69.5z" />
    <glyph glyph-name="e.smcp" horiz-adv-x="492" 
d="M73 0v596h362v-53h-306v-218h306v-53h-306v-218h306v-54h-362z" />
    <glyph glyph-name="f.smcp" horiz-adv-x="460" 
d="M72 0v596h337v-53h-280v-218h280v-53h-280v-272h-57z" />
    <glyph glyph-name="g.smcp" horiz-adv-x="706" 
d="M358 -9q-130 0 -219 90t-89 217t89.5 216.5t218.5 89.5q86 0 156 -40.5t109 -109.5l-50 -29q-32 59 -88 92.5t-127 33.5q-106 0 -178 -74t-72 -179q0 -104 71 -178.5t179 -74.5q100 0 164.5 61t76.5 155h-248v54h307v-18q0 -128 -83 -217t-217 -89z" />
    <glyph glyph-name="h.smcp" horiz-adv-x="586" 
d="M457 0v272h-328v-272h-57v596h57v-270h328v270h57v-596h-57z" />
    <glyph glyph-name="i.smcp" horiz-adv-x="213" 
d="M77 0v596h58v-596h-58z" />
    <glyph glyph-name="j.smcp" horiz-adv-x="408" 
d="M184 -9q-55 0 -96.5 25.5t-59.5 69.5l53 27q30 -68 102 -68q46 0 72.5 30.5t26.5 79.5v441h57v-438q0 -78 -41.5 -122.5t-113.5 -44.5z" />
    <glyph glyph-name="k.smcp" horiz-adv-x="554" 
d="M456 0l-207 319l-120 -135v-184h-56v596h56v-339l304 339h71l-214 -237l231 -359h-65z" />
    <glyph glyph-name="l.smcp" horiz-adv-x="451" 
d="M72 0v596h57v-542h274v-54h-331z" />
    <glyph glyph-name="m.smcp" horiz-adv-x="729" 
d="M72 0v596h56l236 -327l238 327h54v-596h-56v498l-236 -323l-235 326v-501h-57z" />
    <glyph glyph-name="n.smcp" horiz-adv-x="630" 
d="M72 0v596h63l366 -507v507h57v-596h-61l-368 509v-509h-57z" />
    <glyph glyph-name="o.smcp" horiz-adv-x="711" 
d="M355 -9q-127 0 -216 90t-89 217t89 216.5t216 89.5t216.5 -89.5t89.5 -216.5t-89.5 -217t-216.5 -90zM355 45q104 0 175.5 74t71.5 179q0 104 -71.5 178.5t-175.5 74.5t-175.5 -74.5t-71.5 -178.5q0 -105 71.5 -179t175.5 -74z" />
    <glyph glyph-name="p.smcp" horiz-adv-x="524" 
d="M72 0v596h184q96 0 156.5 -58t60.5 -146t-60.5 -146t-157.5 -58h-127v-188h-56zM252 543h-124v-302h124q74 0 118.5 43t44.5 108q0 66 -44.5 108.5t-118.5 42.5z" />
    <glyph glyph-name="q.smcp" horiz-adv-x="711" 
d="M355 -9q-127 0 -216 90t-89 217t89 216.5t216 89.5t216.5 -89.5t89.5 -216.5q0 -122 -85 -212l72 -86h-72l-211 254h71l104 -125q62 72 62 169q0 104 -71.5 178.5t-175.5 74.5t-175.5 -74.5t-71.5 -178.5q0 -105 71.5 -179t175.5 -74q62 0 117 30l34 -43
q-72 -41 -151 -41z" />
    <glyph glyph-name="r.smcp" horiz-adv-x="505" 
d="M72 0v596h184q85 0 142 -55t57 -134q0 -65 -40 -115.5t-108 -64.5l154 -227h-68l-179 270h35q65 0 106 41.5t41 95.5q0 60 -38.5 98t-104.5 38h-123v-543h-58z" />
    <glyph glyph-name="s.smcp" horiz-adv-x="471" 
d="M231 -9q-123 0 -201 97l49 39q57 -83 151 -83q58 0 96 34t38 85q0 28 -11 48t-36.5 35t-44 22t-56.5 20q-40 14 -62.5 23.5t-50.5 28.5t-41 46t-13 64q0 67 52 110.5t128 43.5q113 0 179 -81l-46 -35q-46 66 -133 66q-52 0 -86.5 -29t-34.5 -74q0 -24 10.5 -42.5t30 -31
t42 -21.5t51.5 -19q7 -2 10 -3q40 -14 63 -24t52 -30t42.5 -49t13.5 -68q0 -71 -54 -121.5t-138 -50.5z" />
    <glyph glyph-name="t.smcp" horiz-adv-x="512" 
d="M228 0v542h-183v54h422v-54h-182v-542h-57z" />
    <glyph glyph-name="u.smcp" horiz-adv-x="545" 
d="M272 -9q-89 0 -146 55.5t-57 145.5v404h57v-406q0 -64 41.5 -104.5t105.5 -40.5q63 0 104.5 40.5t41.5 105.5v405h57v-403q0 -90 -57.5 -146t-146.5 -56z" />
    <glyph glyph-name="v.smcp" horiz-adv-x="562" 
d="M251 0l-219 596h60l188 -516l189 516h61l-221 -596h-58z" />
    <glyph glyph-name="w.smcp" horiz-adv-x="876" 
d="M207 0l-173 596h61l144 -507l168 507h55l168 -513l153 513h58l-181 -596h-58l-167 507l-169 -507h-59z" />
    <glyph glyph-name="x.smcp" horiz-adv-x="537" 
d="M443 0l-173 259l-173 -259h-67l208 305l-194 291h63l164 -245l159 245h67l-194 -290l204 -306h-64z" />
    <glyph glyph-name="y.smcp" horiz-adv-x="522" 
d="M233 0v282l-199 314h63l163 -259l164 259h64l-199 -314v-282h-56z" />
    <glyph glyph-name="z.smcp" horiz-adv-x="496" 
d="M50 0v53l328 489h-318v54h385v-52l-328 -489h328v-55h-395z" />
    <glyph glyph-name="ampersand.smcp" horiz-adv-x="660" 
d="M526 0l-62 61q-81 -70 -181 -70q-112 0 -171 58t-59 136q0 59 31 105.5t83 73.5q-37 49 -37 103q0 58 42 97.5t111 39.5q99 0 144 -78l-50 -27q-32 55 -94 55q-43 0 -68.5 -25.5t-25.5 -61.5q0 -35 20.5 -64t79.5 -87l178 -179q65 77 76 172h-124v55h181v-24
q0 -59 -25.5 -123t-70.5 -116l100 -101h-78zM283 45q80 0 144 53l-184 184q-24 22 -43 43q-88 -47 -88 -138q0 -57 44 -99.5t127 -42.5z" />
    <glyph glyph-name="slash.smcp" horiz-adv-x="417" 
d="M37 0l283 596h61l-283 -596h-61z" />
    <glyph glyph-name="backslash.smcp" horiz-adv-x="417" 
d="M320 0l-283 596h61l283 -596h-61z" />
    <glyph glyph-name="bar.smcp" horiz-adv-x="190" 
d="M66 -98v784h58v-784h-58z" />
    <glyph glyph-name="parenleft.smcp" horiz-adv-x="315" 
d="M265 -83q-211 146 -211 380q0 233 203 375l36 -44q-182 -124 -182 -331t185 -332z" />
    <glyph glyph-name="parenright.smcp" horiz-adv-x="315" 
d="M50 -83l-31 48q186 126 186 332q0 207 -183 331l36 44q203 -142 203 -375q0 -234 -211 -380z" />
    <glyph glyph-name="bracketleft.smcp" horiz-adv-x="343" 
d="M66 -98v784h223v-55h-166v-675h166v-54h-223z" />
    <glyph glyph-name="bracketright.smcp" horiz-adv-x="343" 
d="M55 -98v54h164v675h-164v55h222v-784h-222z" />
    <glyph glyph-name="braceleft.smcp" horiz-adv-x="375" 
d="M312 -98q-102 0 -141 38.5t-39 138.5v100q0 51 -14 69t-63 18v53q49 0 63 18t14 69v103q0 100 39 138.5t141 38.5h9v-52q-81 0 -107 -25.5t-26 -100.5v-103q0 -91 -55 -112q31 -11 43 -38t12 -75v-100q0 -76 26 -101t107 -25v-52h-9z" />
    <glyph glyph-name="braceright.smcp" horiz-adv-x="375" 
d="M55 -98v53q81 0 106.5 25t25.5 100v100q0 48 12 74.5t42 38.5q-54 21 -54 112v103q0 75 -26 100t-106 25v53h9q102 0 141 -38.5t39 -138.5v-103q0 -51 14 -69t63 -18v-53q-49 0 -63 -18t-14 -69v-100q0 -100 -39 -138.5t-141 -38.5h-9z" />
    <glyph glyph-name="aacute.smcp" horiz-adv-x="576" 
d="M259 661l119 155h75l-140 -155h-54zM32 0l226 596h60l226 -596h-58l-58 153h-279l-58 -153h-59zM288 521l-118 -313h237z" />
    <glyph glyph-name="agrave.smcp" horiz-adv-x="576" 
d="M32 0l226 596h60l226 -596h-58l-58 153h-279l-58 -153h-59zM288 521l-118 -313h237zM259 661l-140 155h74l120 -155h-54z" />
    <glyph glyph-name="acircumflex.smcp" horiz-adv-x="576" 
d="M143 653l119 155h49l119 -155h-61l-83 110l-83 -110h-60zM32 0l226 596h60l226 -596h-58l-58 153h-279l-58 -153h-59zM288 521l-118 -313h237z" />
    <glyph glyph-name="adieresis.smcp" horiz-adv-x="576" 
d="M318 666v139h56v-139h-56zM201 666v139h56v-139h-56zM32 0l226 596h60l226 -596h-58l-58 153h-279l-58 -153h-59zM288 521l-118 -313h237z" />
    <glyph glyph-name="atilde.smcp" horiz-adv-x="576" 
d="M32 0l226 596h60l226 -596h-58l-58 153h-279l-58 -153h-59zM288 521l-118 -313h237zM115 661q0 49 26 78.5t67 29.5q37 0 86 -30q52 -31 72 -31q50 0 50 58h46q0 -51 -25 -80t-70 -29q-35 0 -94 35q-4 2 -13 7.5t-13.5 8t-11.5 5.5t-13.5 4.5t-13.5 1.5q-21 0 -33.5 -15
t-12.5 -43h-47z" />
    <glyph glyph-name="aring.smcp" horiz-adv-x="576" 
d="M32 0l214 564q-27 11 -43 36t-16 55q0 42 28.5 71t69.5 29q43 0 72 -29t29 -71q0 -30 -15.5 -54t-41.5 -36l215 -565h-58l-58 153h-279l-58 -153h-59zM288 521l-118 -313h237zM285 601q23 0 39.5 16t16.5 38q0 23 -16.5 39t-39.5 16q-22 0 -38 -16.5t-16 -38.5t16 -38
t38 -16z" />
    <glyph glyph-name="amacron.smcp" horiz-adv-x="576" 
d="M154 661v50h264v-50h-264zM32 0l226 596h60l226 -596h-58l-58 153h-279l-58 -153h-59zM288 521l-118 -313h237z" />
    <glyph glyph-name="abreve.smcp" horiz-adv-x="576" 
d="M32 0l226 596h60l226 -596h-58l-58 153h-279l-58 -153h-59zM288 521l-118 -313h237zM286 654q-78 0 -119.5 45t-41.5 112h49q0 -49 29.5 -81t82.5 -32q52 0 81.5 32.5t29.5 80.5h51q0 -65 -44.5 -111t-117.5 -46z" />
    <glyph glyph-name="aogonek.smcp" horiz-adv-x="576" 
d="M32 0l226 596h60l226 -596q-70 -38 -96 -62t-26 -48t20 -37.5t51 -13.5q41 0 86 39l45 -31q-61 -55 -131 -55q-57 0 -93 27t-36 68q0 73 115 130l-51 136h-279l-58 -153h-59zM288 521l-118 -313h237z" />
    <glyph glyph-name="aringacute.smcp" horiz-adv-x="576" 
d="M32 0l214 564q-27 11 -43 36t-16 55q0 42 28.5 71t69.5 29q43 0 72 -29t29 -71q0 -30 -15.5 -54t-41.5 -36l215 -565h-58l-58 153h-279l-58 -153h-59zM288 521l-118 -313h237zM257 795l119 155h75l-140 -155h-54zM285 601q23 0 39.5 16t16.5 38q0 23 -16.5 39t-39.5 16
q-22 0 -38 -16.5t-16 -38.5t16 -38t38 -16z" />
    <glyph glyph-name="ae.smcp" horiz-adv-x="873" 
d="M34 0l302 596h480v-54h-405l44 -216h361v-54h-350l45 -217h305v-55h-352l-32 153h-258l-77 -153h-63zM357 516l-156 -310h220z" />
    <glyph glyph-name="aeacute.smcp" horiz-adv-x="877" 
d="M489 661l119 155h75l-140 -155h-54zM34 0l302 596h480v-54h-405l44 -216h361v-54h-350l45 -217h305v-55h-352l-32 153h-258l-77 -153h-63zM357 516l-156 -310h220z" />
    <glyph glyph-name="cacute.smcp" horiz-adv-x="661" 
d="M326 661l119 155h75l-140 -155h-54zM357 -9q-130 0 -218.5 90t-88.5 217q0 128 89.5 217t215.5 89q85 0 157 -43t111 -114l-51 -26q-32 59 -89 94.5t-127 35.5q-105 0 -176.5 -74t-71.5 -179t72 -179t175 -74q75 0 132.5 38t89.5 102l53 -24q-41 -78 -113 -124t-160 -46z
" />
    <glyph glyph-name="ccircumflex.smcp" horiz-adv-x="661" 
d="M216 658l119 155h49l119 -155h-61l-83 110l-83 -110h-60zM357 -9q-130 0 -218.5 90t-88.5 217q0 128 89.5 217t215.5 89q85 0 157 -43t111 -114l-51 -26q-32 59 -89 94.5t-127 35.5q-105 0 -176.5 -74t-71.5 -179t72 -179t175 -74q75 0 132.5 38t89.5 102l53 -24
q-41 -78 -113 -124t-160 -46z" />
    <glyph glyph-name="ccaron.smcp" horiz-adv-x="661" 
d="M335 661l-119 155h60l82 -109l84 109h60l-119 -155h-48zM357 -9q-130 0 -218.5 90t-88.5 217q0 128 89.5 217t215.5 89q85 0 157 -43t111 -114l-51 -26q-32 59 -89 94.5t-127 35.5q-105 0 -176.5 -74t-71.5 -179t72 -179t175 -74q75 0 132.5 38t89.5 102l53 -24
q-41 -78 -113 -124t-160 -46z" />
    <glyph glyph-name="ccedilla.smcp" horiz-adv-x="661" 
d="M353 -229q-83 0 -139 53l46 28q45 -38 93 -38q35 0 57.5 14t22.5 36q0 20 -22 32t-61 12h-33v86q-116 14 -191.5 100.5t-75.5 203.5q0 128 89.5 217t215.5 89q85 0 157 -43t111 -114l-51 -26q-32 59 -89 94.5t-127 35.5q-105 0 -176.5 -74t-71.5 -179t72 -179t175 -74
q75 0 132.5 38t89.5 102l53 -24q-40 -76 -109 -121.5t-155 -48.5v-46q54 -1 87.5 -22.5t33.5 -56.5q0 -42 -38.5 -68.5t-95.5 -26.5z" />
    <glyph glyph-name="cdotaccent.smcp" horiz-adv-x="661" 
d="M357 -9q-130 0 -218.5 90t-88.5 217q0 128 89.5 217t215.5 89q85 0 157 -43t111 -114l-51 -26q-32 59 -89 94.5t-127 35.5q-105 0 -176.5 -74t-71.5 -179t72 -179t175 -74q75 0 132.5 38t89.5 102l53 -24q-41 -78 -113 -124t-160 -46zM332 666v139h57v-139h-57z" />
    <glyph glyph-name="dcroat.smcp" horiz-adv-x="619" 
d="M27 273v51h67v272h166q136 0 222.5 -85t86.5 -213q0 -127 -88 -212.5t-219 -85.5h-168v273h-67zM304 273h-154v-219h108q109 0 181 69.5t72 174.5q0 106 -70.5 175.5t-184.5 69.5h-106v-219h154v-51z" />
    <glyph glyph-name="eth.smcp" horiz-adv-x="619" 
d="M27 273v51h67v272h166q136 0 222.5 -85t86.5 -213q0 -127 -88 -212.5t-219 -85.5h-168v273h-67zM304 273h-154v-219h108q109 0 181 69.5t72 174.5q0 106 -70.5 175.5t-184.5 69.5h-106v-219h154v-51z" />
    <glyph glyph-name="eacute.smcp" horiz-adv-x="492" 
d="M73 0v596h362v-53h-306v-218h306v-53h-306v-218h306v-54h-362zM212 661l119 155h75l-140 -155h-54z" />
    <glyph glyph-name="egrave.smcp" horiz-adv-x="492" 
d="M73 0v596h362v-53h-306v-218h306v-53h-306v-218h306v-54h-362zM251 661l-140 155h74l120 -155h-54z" />
    <glyph glyph-name="ecircumflex.smcp" horiz-adv-x="492" 
d="M73 0v596h362v-53h-306v-218h306v-53h-306v-218h306v-54h-362zM115 661l119 155h49l119 -155h-61l-83 110l-83 -110h-60z" />
    <glyph glyph-name="edieresis.smcp" horiz-adv-x="492" 
d="M73 0v596h362v-53h-306v-218h306v-53h-306v-218h306v-54h-362zM174 666v139h56v-139h-56zM291 666v139h56v-139h-56z" />
    <glyph glyph-name="ecaron.smcp" horiz-adv-x="492" 
d="M73 0v596h362v-53h-306v-218h306v-53h-306v-218h306v-54h-362zM233 661l-119 155h60l82 -109l84 109h60l-119 -155h-48z" />
    <glyph glyph-name="emacron.smcp" horiz-adv-x="492" 
d="M73 0v596h362v-53h-306v-218h306v-53h-306v-218h306v-54h-362zM123 663v50h264v-50h-264z" />
    <glyph glyph-name="ebreve.smcp" horiz-adv-x="492" 
d="M73 0v596h362v-53h-306v-218h306v-53h-306v-218h306v-54h-362zM255 656q-78 0 -119.5 45t-41.5 112h49q0 -49 29.5 -81t82.5 -32q52 0 81.5 32.5t29.5 80.5h51q0 -65 -44.5 -111t-117.5 -46z" />
    <glyph glyph-name="eogonek.smcp" horiz-adv-x="492" 
d="M73 0v596h362v-53h-306v-218h306v-53h-306v-218h306v-54q-70 -38 -96 -62t-26 -48t20 -37.5t51 -13.5q41 0 86 39l45 -31q-61 -55 -131 -55q-57 0 -93 27t-36 68q0 63 85 113h-267z" />
    <glyph glyph-name="edotaccent.smcp" horiz-adv-x="492" 
d="M73 0v596h362v-53h-306v-218h306v-53h-306v-218h306v-54h-362zM234 666v139h57v-139h-57z" />
    <glyph glyph-name="gcircumflex.smcp" horiz-adv-x="706" 
d="M358 -9q-130 0 -219 90t-89 217t89.5 216.5t218.5 89.5q86 0 156 -40.5t109 -109.5l-50 -29q-32 59 -88 92.5t-127 33.5q-106 0 -178 -74t-72 -179q0 -104 71 -178.5t179 -74.5q100 0 164.5 61t76.5 155h-248v54h307v-18q0 -128 -83 -217t-217 -89zM213 660l119 155h49
l119 -155h-61l-83 110l-83 -110h-60z" />
    <glyph glyph-name="gbreve.smcp" horiz-adv-x="706" 
d="M358 -9q-130 0 -219 90t-89 217t89.5 216.5t218.5 89.5q86 0 156 -40.5t109 -109.5l-50 -29q-32 59 -88 92.5t-127 33.5q-106 0 -178 -74t-72 -179q0 -104 71 -178.5t179 -74.5q100 0 164.5 61t76.5 155h-248v54h307v-18q0 -128 -83 -217t-217 -89zM356 660
q-78 0 -119.5 45t-41.5 112h49q0 -49 29.5 -81t82.5 -32q52 0 81.5 32.5t29.5 80.5h51q0 -65 -44.5 -111t-117.5 -46z" />
    <glyph glyph-name="gdotaccent.smcp" horiz-adv-x="706" 
d="M358 -9q-130 0 -219 90t-89 217t89.5 216.5t218.5 89.5q86 0 156 -40.5t109 -109.5l-50 -29q-32 59 -88 92.5t-127 33.5q-106 0 -178 -74t-72 -179q0 -104 71 -178.5t179 -74.5q100 0 164.5 61t76.5 155h-248v54h307v-18q0 -128 -83 -217t-217 -89zM331 666v139h57v-139
h-57z" />
    <glyph glyph-name="gcommaaccent.smcp" horiz-adv-x="706" 
d="M358 -9q-130 0 -219 90t-89 217t89.5 216.5t218.5 89.5q86 0 156 -40.5t109 -109.5l-50 -29q-32 59 -88 92.5t-127 33.5q-106 0 -178 -74t-72 -179q0 -104 71 -178.5t179 -74.5q100 0 164.5 61t76.5 155h-248v54h307v-18q0 -128 -83 -217t-217 -89zM327 -277h-40l43 204
h55z" />
    <glyph glyph-name="hbar.smcp" horiz-adv-x="626" 
d="M477 0v272h-328v-272h-57v443h-66v54h66v99h57v-99h328v99h57v-99h66v-54h-66v-443h-57zM149 443v-118h328v118h-328z" />
    <glyph glyph-name="hcircumflex.smcp" horiz-adv-x="586" 
d="M457 0v272h-328v-272h-57v596h57v-270h328v270h57v-596h-57zM148 660l119 155h49l119 -155h-61l-83 110l-83 -110h-60z" />
    <glyph glyph-name="iacute.smcp" horiz-adv-x="213" 
d="M75 661l119 155h75l-140 -155h-54zM77 0v596h58v-596h-58z" />
    <glyph glyph-name="igrave.smcp" horiz-adv-x="213" 
d="M79 661l-140 155h74l120 -155h-54zM77 0v596h58v-596h-58z" />
    <glyph glyph-name="icircumflex.smcp" horiz-adv-x="213" 
d="M-38 652l119 155h49l119 -155h-61l-83 110l-83 -110h-60zM77 0v596h58v-596h-58z" />
    <glyph glyph-name="idieresis.smcp" horiz-adv-x="213" 
d="M176 666v139h57v-139h-57zM-19 666v139h56v-139h-56zM77 0v596h58v-596h-58z" />
    <glyph glyph-name="itilde.smcp" horiz-adv-x="213" 
d="M77 0v596h58v-596h-58zM-67 660q0 49 26 78.5t67 29.5q37 0 86 -30q52 -31 72 -31q50 0 50 58h46q0 -51 -25 -80t-70 -29q-35 0 -94 35q-4 2 -13 7.5t-13.5 8t-11.5 5.5t-13.5 4.5t-13.5 1.5q-21 0 -33.5 -15t-12.5 -43h-47z" />
    <glyph glyph-name="imacron.smcp" horiz-adv-x="213" 
d="M-27 661v50h264v-50h-264zM77 0v596h58v-596h-58z" />
    <glyph glyph-name="ibreve.smcp" horiz-adv-x="213" 
d="M77 0v596h58v-596h-58zM106 656q-78 0 -119.5 45t-41.5 112h49q0 -49 29.5 -81t82.5 -32q52 0 81.5 32.5t29.5 80.5h51q0 -65 -44.5 -111t-117.5 -46z" />
    <glyph glyph-name="iogonek.smcp" horiz-adv-x="213" 
d="M113 -218q-55 0 -84 29t-29 72q0 62 77 127v586h58v-596h1q-82 -67 -82 -115q0 -24 16 -39t43 -15q36 0 73 32l33 -40q-50 -41 -106 -41z" />
    <glyph glyph-name="jcircumflex.smcp" horiz-adv-x="408" 
d="M162 652l119 155h49l119 -155h-61l-83 110l-83 -110h-60zM184 -9q-55 0 -96.5 25.5t-59.5 69.5l53 27q30 -68 102 -68q46 0 72.5 30.5t26.5 79.5v441h57v-438q0 -78 -41.5 -122.5t-113.5 -44.5z" />
    <glyph glyph-name="kcommaaccent.smcp" horiz-adv-x="554" 
d="M258 -261h-40l43 204h55zM456 0l-207 319l-120 -135v-184h-56v596h56v-339l304 339h71l-214 -237l231 -359h-65z" />
    <glyph glyph-name="lacute.smcp" horiz-adv-x="451" 
d="M72 0v596h57v-542h274v-54h-331zM72 661l119 155h75l-140 -155h-54z" />
    <glyph glyph-name="lcommaaccent.smcp" horiz-adv-x="451" 
d="M72 0v596h57v-542h274v-54h-331zM211 -264h-40l43 204h55z" />
    <glyph glyph-name="ldot.smcp" horiz-adv-x="459" 
d="M72 0v596h57v-542h274v-54h-331zM345 242v139h57v-139h-57z" />
    <glyph glyph-name="lslash.smcp" horiz-adv-x="469" 
d="M20 231v50l69 29v286h57v-262l179 76v-50l-179 -76v-230h274v-54h-331v260z" />
    <glyph glyph-name="nacute.smcp" horiz-adv-x="630" 
d="M290 648l119 155h75l-140 -155h-54zM72 0v596h63l366 -507v507h57v-596h-61l-368 509v-509h-57z" />
    <glyph glyph-name="ntilde.smcp" horiz-adv-x="630" 
d="M72 0v596h63l366 -507v507h57v-596h-61l-368 509v-509h-57zM144 660q0 49 26 78.5t67 29.5q37 0 86 -30q52 -31 72 -31q50 0 50 58h46q0 -51 -25 -80t-70 -29q-35 0 -94 35q-4 2 -13 7.5t-13.5 8t-11.5 5.5t-13.5 4.5t-13.5 1.5q-21 0 -33.5 -15t-12.5 -43h-47z" />
    <glyph glyph-name="ncaron.smcp" horiz-adv-x="630" 
d="M72 0v596h63l366 -507v507h57v-596h-61l-368 509v-509h-57zM293 651l-119 155h60l82 -109l84 109h60l-119 -155h-48z" />
    <glyph glyph-name="ncommaaccent.smcp" horiz-adv-x="630" 
d="M72 0v596h63l366 -507v507h57v-596h-61l-368 509v-509h-57zM295 -259h-40l43 204h55z" />
    <glyph glyph-name="oacute.smcp" horiz-adv-x="711" 
d="M355 -9q-127 0 -216 90t-89 217t89 216.5t216 89.5t216.5 -89.5t89.5 -216.5t-89.5 -217t-216.5 -90zM355 45q104 0 175.5 74t71.5 179q0 104 -71.5 178.5t-175.5 74.5t-175.5 -74.5t-71.5 -178.5q0 -105 71.5 -179t175.5 -74zM316 661l119 155h75l-140 -155h-54z" />
    <glyph glyph-name="ograve.smcp" horiz-adv-x="711" 
d="M355 -9q-127 0 -216 90t-89 217t89 216.5t216 89.5t216.5 -89.5t89.5 -216.5t-89.5 -217t-216.5 -90zM355 45q104 0 175.5 74t71.5 179q0 104 -71.5 178.5t-175.5 74.5t-175.5 -74.5t-71.5 -178.5q0 -105 71.5 -179t175.5 -74zM331 661l-140 155h74l120 -155h-54z" />
    <glyph glyph-name="ocircumflex.smcp" horiz-adv-x="711" 
d="M355 -9q-127 0 -216 90t-89 217t89 216.5t216 89.5t216.5 -89.5t89.5 -216.5t-89.5 -217t-216.5 -90zM355 45q104 0 175.5 74t71.5 179q0 104 -71.5 178.5t-175.5 74.5t-175.5 -74.5t-71.5 -178.5q0 -105 71.5 -179t175.5 -74zM212 657l119 155h49l119 -155h-61l-83 110
l-83 -110h-60z" />
    <glyph glyph-name="odieresis.smcp" horiz-adv-x="711" 
d="M355 -9q-127 0 -216 90t-89 217t89 216.5t216 89.5t216.5 -89.5t89.5 -216.5t-89.5 -217t-216.5 -90zM355 45q104 0 175.5 74t71.5 179q0 104 -71.5 178.5t-175.5 74.5t-175.5 -74.5t-71.5 -178.5q0 -105 71.5 -179t175.5 -74zM387 665v139h56v-139h-56zM270 665v139h56
v-139h-56z" />
    <glyph glyph-name="otilde.smcp" horiz-adv-x="711" 
d="M355 -9q-127 0 -216 90t-89 217t89 216.5t216 89.5t216.5 -89.5t89.5 -216.5t-89.5 -217t-216.5 -90zM355 45q104 0 175.5 74t71.5 179q0 104 -71.5 178.5t-175.5 74.5t-175.5 -74.5t-71.5 -178.5q0 -105 71.5 -179t175.5 -74zM182 661q0 49 26 78.5t67 29.5q37 0 86 -30
q52 -31 72 -31q50 0 50 58h46q0 -51 -25 -80t-70 -29q-35 0 -94 35q-4 2 -13 7.5t-13.5 8t-11.5 5.5t-13.5 4.5t-13.5 1.5q-21 0 -33.5 -15t-12.5 -43h-47z" />
    <glyph glyph-name="obreve.smcp" horiz-adv-x="711" 
d="M355 -9q-127 0 -216 90t-89 217t89 216.5t216 89.5t216.5 -89.5t89.5 -216.5t-89.5 -217t-216.5 -90zM355 45q104 0 175.5 74t71.5 179q0 104 -71.5 178.5t-175.5 74.5t-175.5 -74.5t-71.5 -178.5q0 -105 71.5 -179t175.5 -74zM354 660q-78 0 -119.5 45t-41.5 112h49
q0 -49 29.5 -81t82.5 -32q52 0 81.5 32.5t29.5 80.5h51q0 -65 -44.5 -111t-117.5 -46z" />
    <glyph glyph-name="omacron.smcp" horiz-adv-x="711" 
d="M355 -9q-127 0 -216 90t-89 217t89 216.5t216 89.5t216.5 -89.5t89.5 -216.5t-89.5 -217t-216.5 -90zM355 45q104 0 175.5 74t71.5 179q0 104 -71.5 178.5t-175.5 74.5t-175.5 -74.5t-71.5 -178.5q0 -105 71.5 -179t175.5 -74zM223 661v50h264v-50h-264z" />
    <glyph glyph-name="ohungarumlaut.smcp" horiz-adv-x="711" 
d="M355 -9q-127 0 -216 90t-89 217t89 216.5t216 89.5t216.5 -89.5t89.5 -216.5t-89.5 -217t-216.5 -90zM355 45q104 0 175.5 74t71.5 179q0 104 -71.5 178.5t-175.5 74.5t-175.5 -74.5t-71.5 -178.5q0 -105 71.5 -179t175.5 -74zM264 661l119 155h71l-140 -155h-50z
M385 661l120 155h71l-140 -155h-51z" />
    <glyph glyph-name="oslash.smcp" horiz-adv-x="711" 
d="M355 -9q-88 0 -161 46l-28 -37h-67l52 69q-101 91 -101 229q0 127 89 216.5t216 89.5q90 0 166 -49l31 41h66l-55 -73q98 -91 98 -225q0 -127 -89.5 -217t-216.5 -90zM108 298q0 -111 78 -184l301 397q-60 38 -132 38q-104 0 -175.5 -73.5t-71.5 -177.5zM355 47
q104 0 176 73.5t72 177.5q0 107 -75 180l-300 -396q59 -35 127 -35z" />
    <glyph glyph-name="oslashacute.smcp" horiz-adv-x="712" 
d="M321 661l119 155h75l-140 -155h-54zM355 -9q-88 0 -161 46l-28 -37h-67l52 69q-101 91 -101 229q0 127 89 216.5t216 89.5q90 0 166 -49l31 41h66l-55 -73q98 -91 98 -225q0 -127 -89.5 -217t-216.5 -90zM108 298q0 -111 78 -184l301 397q-60 38 -132 38
q-104 0 -175.5 -73.5t-71.5 -177.5zM355 47q104 0 176 73.5t72 177.5q0 107 -75 180l-300 -396q59 -35 127 -35z" />
    <glyph glyph-name="oe.smcp" horiz-adv-x="1021" 
d="M602 0v128q-39 -64 -103.5 -100.5t-143.5 -36.5q-127 0 -216 90t-89 217t89 216.5t216 89.5q78 0 143 -37t104 -100v129h363v-53h-306v-218h306v-53h-306v-218h306v-54h-363zM355 45q104 0 175.5 74t71.5 179q0 104 -71.5 178.5t-175.5 74.5t-175.5 -74.5t-71.5 -178.5
q0 -105 71.5 -179t175.5 -74z" />
    <glyph glyph-name="thorn.smcp" horiz-adv-x="520" 
d="M75 0v596h57v-119h147q83 0 135.5 -50t52.5 -126t-52.5 -126.5t-136.5 -50.5h-146v-124h-57zM276 424h-144v-246h144q60 0 96.5 35t36.5 88t-36.5 88t-96.5 35z" />
    <glyph glyph-name="racute.smcp" horiz-adv-x="505" 
d="M213 661l119 155h75l-140 -155h-54zM72 0v596h184q85 0 142 -55t57 -134q0 -65 -40 -115.5t-108 -64.5l154 -227h-68l-179 270h35q65 0 106 41.5t41 95.5q0 60 -38.5 98t-104.5 38h-123v-543h-58z" />
    <glyph glyph-name="rcaron.smcp" horiz-adv-x="505" 
d="M237 661l-119 155h60l82 -109l84 109h60l-119 -155h-48zM72 0v596h184q85 0 142 -55t57 -134q0 -65 -40 -115.5t-108 -64.5l154 -227h-68l-179 270h35q65 0 106 41.5t41 95.5q0 60 -38.5 98t-104.5 38h-123v-543h-58z" />
    <glyph glyph-name="rcommaaccent.smcp" horiz-adv-x="505" 
d="M232 -260h-40l43 204h55zM72 0v596h184q85 0 142 -55t57 -134q0 -65 -40 -115.5t-108 -64.5l154 -227h-68l-179 270h35q65 0 106 41.5t41 95.5q0 60 -38.5 98t-104.5 38h-123v-543h-58z" />
    <glyph glyph-name="sacute.smcp" horiz-adv-x="471" 
d="M198 661l119 155h75l-140 -155h-54zM231 -9q-123 0 -201 97l49 39q57 -83 151 -83q58 0 96 34t38 85q0 28 -11 48t-36.5 35t-44 22t-56.5 20q-40 14 -62.5 23.5t-50.5 28.5t-41 46t-13 64q0 67 52 110.5t128 43.5q113 0 179 -81l-46 -35q-46 66 -133 66q-52 0 -86.5 -29
t-34.5 -74q0 -24 10.5 -42.5t30 -31t42 -21.5t51.5 -19q7 -2 10 -3q40 -14 63 -24t52 -30t42.5 -49t13.5 -68q0 -71 -54 -121.5t-138 -50.5z" />
    <glyph glyph-name="scircumflex.smcp" horiz-adv-x="471" 
d="M87 659l119 155h49l119 -155h-61l-83 110l-83 -110h-60zM231 -9q-123 0 -201 97l49 39q57 -83 151 -83q58 0 96 34t38 85q0 28 -11 48t-36.5 35t-44 22t-56.5 20q-40 14 -62.5 23.5t-50.5 28.5t-41 46t-13 64q0 67 52 110.5t128 43.5q113 0 179 -81l-46 -35
q-46 66 -133 66q-52 0 -86.5 -29t-34.5 -74q0 -24 10.5 -42.5t30 -31t42 -21.5t51.5 -19q7 -2 10 -3q40 -14 63 -24t52 -30t42.5 -49t13.5 -68q0 -71 -54 -121.5t-138 -50.5z" />
    <glyph glyph-name="scaron.smcp" horiz-adv-x="471" 
d="M231 -9q-123 0 -201 97l49 39q57 -83 151 -83q58 0 96 34t38 85q0 28 -11 48t-36.5 35t-44 22t-56.5 20q-40 14 -62.5 23.5t-50.5 28.5t-41 46t-13 64q0 67 52 110.5t128 43.5q113 0 179 -81l-46 -35q-46 66 -133 66q-52 0 -86.5 -29t-34.5 -74q0 -24 10.5 -42.5t30 -31
t42 -21.5t51.5 -19q7 -2 10 -3q40 -14 63 -24t52 -30t42.5 -49t13.5 -68q0 -71 -54 -121.5t-138 -50.5zM209 661l-119 155h60l82 -109l84 109h60l-119 -155h-48z" />
    <glyph glyph-name="scedilla.smcp" horiz-adv-x="471" 
d="M229 -228q-83 0 -139 53l46 28q45 -38 93 -38q35 0 57.5 14t22.5 36q0 20 -22 32t-61 12h-33v85q-98 12 -163 94l49 39q57 -83 151 -83q58 0 96 34t38 85q0 28 -11 48t-36.5 35t-44 22t-56.5 20q-40 14 -62.5 23.5t-50.5 28.5t-41 46t-13 64q0 67 52 110.5t128 43.5
q113 0 179 -81l-46 -35q-46 66 -133 66q-52 0 -86.5 -29t-34.5 -74q0 -24 10.5 -42.5t30 -31t42 -21.5t51.5 -19q7 -2 10 -3q40 -14 63 -24t52 -30t42.5 -49t13.5 -68q0 -68 -50.5 -118t-130.5 -54v-45q54 -1 87.5 -22.5t33.5 -56.5q0 -42 -38.5 -68.5t-95.5 -26.5z" />
    <glyph glyph-name="scommaaccent.smcp" horiz-adv-x="471" 
d="M201 -264h-40l43 204h55zM231 -9q-123 0 -201 97l49 39q57 -83 151 -83q58 0 96 34t38 85q0 28 -11 48t-36.5 35t-44 22t-56.5 20q-40 14 -62.5 23.5t-50.5 28.5t-41 46t-13 64q0 67 52 110.5t128 43.5q113 0 179 -81l-46 -35q-46 66 -133 66q-52 0 -86.5 -29t-34.5 -74
q0 -24 10.5 -42.5t30 -31t42 -21.5t51.5 -19q7 -2 10 -3q40 -14 63 -24t52 -30t42.5 -49t13.5 -68q0 -71 -54 -121.5t-138 -50.5z" />
    <glyph glyph-name="tcommaaccent.smcp" horiz-adv-x="512" 
d="M230 -264h-40l43 204h55zM228 0v542h-183v54h422v-54h-182v-542h-57z" />
    <glyph glyph-name="uacute.smcp" horiz-adv-x="545" 
d="M229 651l119 155h75l-140 -155h-54zM272 -9q-89 0 -146 55.5t-57 145.5v404h57v-406q0 -64 41.5 -104.5t105.5 -40.5q63 0 104.5 40.5t41.5 105.5v405h57v-403q0 -90 -57.5 -146t-146.5 -56z" />
    <glyph glyph-name="ugrave.smcp" horiz-adv-x="545" 
d="M272 -9q-89 0 -146 55.5t-57 145.5v404h57v-406q0 -64 41.5 -104.5t105.5 -40.5q63 0 104.5 40.5t41.5 105.5v405h57v-403q0 -90 -57.5 -146t-146.5 -56zM250 651l-140 155h74l120 -155h-54z" />
    <glyph glyph-name="ucircumflex.smcp" horiz-adv-x="545" 
d="M125 661l119 155h49l119 -155h-61l-83 110l-83 -110h-60zM272 -9q-89 0 -146 55.5t-57 145.5v404h57v-406q0 -64 41.5 -104.5t105.5 -40.5q63 0 104.5 40.5t41.5 105.5v405h57v-403q0 -90 -57.5 -146t-146.5 -56z" />
    <glyph glyph-name="udieresis.smcp" horiz-adv-x="545" 
d="M303 666v139h56v-139h-56zM186 666v139h56v-139h-56zM272 -9q-89 0 -146 55.5t-57 145.5v404h57v-406q0 -64 41.5 -104.5t105.5 -40.5q63 0 104.5 40.5t41.5 105.5v405h57v-403q0 -90 -57.5 -146t-146.5 -56z" />
    <glyph glyph-name="utilde.smcp" horiz-adv-x="545" 
d="M272 -9q-89 0 -146 55.5t-57 145.5v404h57v-406q0 -64 41.5 -104.5t105.5 -40.5q63 0 104.5 40.5t41.5 105.5v405h57v-403q0 -90 -57.5 -146t-146.5 -56zM99 661q0 49 26 78.5t67 29.5q37 0 86 -30q52 -31 72 -31q50 0 50 58h46q0 -51 -25 -80t-70 -29q-35 0 -94 35
q-4 2 -13 7.5t-13.5 8t-11.5 5.5t-13.5 4.5t-13.5 1.5q-21 0 -33.5 -15t-12.5 -43h-47z" />
    <glyph glyph-name="uring.smcp" horiz-adv-x="545" 
d="M272 -9q-89 0 -146 55.5t-57 145.5v404h57v-406q0 -64 41.5 -104.5t105.5 -40.5q63 0 104.5 40.5t41.5 105.5v405h57v-403q0 -90 -57.5 -146t-146.5 -56zM271 650q-41 0 -69.5 29t-28.5 70q0 42 28.5 71t69.5 29q43 0 72 -29t29 -71q0 -41 -29 -70t-72 -29zM271 695
q23 0 39.5 16t16.5 38q0 23 -16.5 39t-39.5 16q-22 0 -38 -16.5t-16 -38.5t16 -38t38 -16z" />
    <glyph glyph-name="ubreve.smcp" horiz-adv-x="545" 
d="M272 -9q-89 0 -146 55.5t-57 145.5v404h57v-406q0 -64 41.5 -104.5t105.5 -40.5q63 0 104.5 40.5t41.5 105.5v405h57v-403q0 -90 -57.5 -146t-146.5 -56zM273 653q-78 0 -119.5 45t-41.5 112h49q0 -49 29.5 -81t82.5 -32q52 0 81.5 32.5t29.5 80.5h51q0 -65 -44.5 -111
t-117.5 -46z" />
    <glyph glyph-name="umacron.smcp" horiz-adv-x="545" 
d="M272 -9q-89 0 -146 55.5t-57 145.5v404h57v-406q0 -64 41.5 -104.5t105.5 -40.5q63 0 104.5 40.5t41.5 105.5v405h57v-403q0 -90 -57.5 -146t-146.5 -56zM140 661v50h264v-50h-264z" />
    <glyph glyph-name="uhungarumlaut.smcp" horiz-adv-x="545" 
d="M272 -9q-89 0 -146 55.5t-57 145.5v404h57v-406q0 -64 41.5 -104.5t105.5 -40.5q63 0 104.5 40.5t41.5 105.5v405h57v-403q0 -90 -57.5 -146t-146.5 -56zM169 655l119 155h71l-140 -155h-50zM290 655l120 155h71l-140 -155h-51z" />
    <glyph glyph-name="uogonek.smcp" horiz-adv-x="545" 
d="M311 -200q-57 0 -93 27t-36 68q0 54 61 98q-78 9 -126 63t-48 136v404h57v-406q0 -64 41.5 -104.5t105.5 -40.5q63 0 104.5 40.5t41.5 105.5v405h57v-403q0 -65 -31 -113.5t-84 -71.5h1q-70 -38 -96 -62t-26 -48t20 -37.5t51 -13.5q41 0 86 39l45 -31q-61 -55 -131 -55z
" />
    <glyph glyph-name="wacute.smcp" horiz-adv-x="876" 
d="M207 0l-173 596h61l144 -507l168 507h55l168 -513l153 513h58l-181 -596h-58l-167 507l-169 -507h-59zM407 661l119 155h75l-140 -155h-54z" />
    <glyph glyph-name="wgrave.smcp" horiz-adv-x="876" 
d="M207 0l-173 596h61l144 -507l168 507h55l168 -513l153 513h58l-181 -596h-58l-167 507l-169 -507h-59zM408 661l-140 155h74l120 -155h-54z" />
    <glyph glyph-name="wcircumflex.smcp" horiz-adv-x="876" 
d="M207 0l-173 596h61l144 -507l168 507h55l168 -513l153 513h58l-181 -596h-58l-167 507l-169 -507h-59zM291 654l119 155h49l119 -155h-61l-83 110l-83 -110h-60z" />
    <glyph glyph-name="wdieresis.smcp" horiz-adv-x="876" 
d="M207 0l-173 596h61l144 -507l168 507h55l168 -513l153 513h58l-181 -596h-58l-167 507l-169 -507h-59zM467 666v139h56v-139h-56zM350 666v139h56v-139h-56z" />
    <glyph glyph-name="yacute.smcp" horiz-adv-x="522" 
d="M226 655l119 155h75l-140 -155h-54zM233 0v282l-199 314h63l163 -259l164 259h64l-199 -314v-282h-56z" />
    <glyph glyph-name="ygrave.smcp" horiz-adv-x="531" 
d="M237 0v282l-199 314h63l163 -259l164 259h64l-199 -314v-282h-56zM247 655l-140 155h74l120 -155h-54z" />
    <glyph glyph-name="ycircumflex.smcp" horiz-adv-x="522" 
d="M233 0v282l-199 314h63l163 -259l164 259h64l-199 -314v-282h-56zM117 660l119 155h49l119 -155h-61l-83 110l-83 -110h-60z" />
    <glyph glyph-name="ydieresis.smcp" horiz-adv-x="522" 
d="M233 0v282l-199 314h63l163 -259l164 259h64l-199 -314v-282h-56zM294 660v139h56v-139h-56zM177 660v139h56v-139h-56z" />
    <glyph glyph-name="zacute.smcp" horiz-adv-x="496" 
d="M207 661l119 155h75l-140 -155h-54zM50 0v53l328 489h-318v54h385v-52l-328 -489h328v-55h-395z" />
    <glyph glyph-name="zcaron.smcp" horiz-adv-x="496" 
d="M50 0v53l328 489h-318v54h385v-52l-328 -489h328v-55h-395zM227 661l-119 155h60l82 -109l84 109h60l-119 -155h-48z" />
    <glyph glyph-name="zdotaccent.smcp" horiz-adv-x="496" 
d="M50 0v53l328 489h-318v54h385v-52l-328 -489h328v-55h-395zM227 666v139h57v-139h-57z" />
    <glyph glyph-name="numbersign.alt" horiz-adv-x="835" 
d="M410 0l60 159l-229 88l-95 -247h-58l102 266l-138 53l1 58l158 -60l86 224l-244 93v58l264 -100l53 138h58l-60 -158l229 -87l94 245h58l-101 -264l135 -52v-58l-157 59l-86 -224l242 -92v-58l-262 99l-53 -140h-57zM348 522l-86 -224l228 -87l85 224z" />
    <glyph glyph-name="one.LT" 
d="M48 0v55h213v551q-15 -25 -49 -40t-71 -15h-12v59h5q66 0 97.5 37t31.5 83h56v-675h221v-55h-492z" />
    <glyph glyph-name="two.LT" 
d="M63 0v59q0 41 16 77.5t51 71.5t62.5 57t76.5 57q5 3 14 10q45 32 67.5 49.5t53 46.5t43.5 56t13 57q0 65 -46 106t-120 41q-62 0 -108 -32.5t-73 -86.5l-50 27q31 64 92 104t138 40q100 0 163 -57.5t63 -142.5q0 -32 -13.5 -63.5t-29 -53.5t-49.5 -51.5t-53.5 -43.5
l-61.5 -44q-41 -29 -58 -42t-48 -39.5t-44.5 -45t-25.5 -45t-12 -53.5v-4h406v-55h-467z" />
    <glyph glyph-name="three.LT" 
d="M285 -9q-157 0 -238 100l46 38q70 -87 192 -87q81 0 133 44t52 112q0 70 -54 112t-135 42h-75v54h75q77 0 124.5 38.5t47.5 102.5q0 65 -47 103t-124 38q-52 0 -101.5 -23.5t-74.5 -56.5l-47 34q35 41 95 69.5t129 28.5q103 0 165 -53.5t62 -139.5q0 -59 -31 -102.5
t-86 -65.5q63 -22 98.5 -68.5t35.5 -112.5q0 -92 -66 -149.5t-176 -57.5z" />
    <glyph glyph-name="four.LT" 
d="M381 0v178h-332l-2 53l334 499h58v-500h105v-52h-105v-178h-58zM109 230h272v405z" />
    <glyph glyph-name="five.LT" 
d="M291 -10q-76 0 -137.5 32t-95.5 87l53 35q63 -100 180 -100q81 0 133.5 53.5t52.5 136.5q0 90 -57 140t-134 50q-50 0 -94.5 -22.5t-68.5 -57.5l-57 18l56 368h365v-54h-316l-40 -256q66 57 155 57q103 0 176.5 -62.5t73.5 -180.5q0 -107 -68.5 -175.5t-176.5 -68.5z" />
    <glyph glyph-name="six.LT" 
d="M294 -10q-104 0 -173 69.5t-69 169.5q0 83 48 153l228 348h70l-184 -278q42 16 87 16q100 0 167.5 -69t67.5 -170t-69.5 -170t-172.5 -69zM294 43q77 0 131 54.5t54 131.5t-54 131.5t-132 54.5q-76 0 -130 -54t-54 -131t54 -132t131 -55z" />
    <glyph glyph-name="seven.LT" 
d="M164 0l310 675h-425v55h490v-50l-312 -680h-63z" />
    <glyph glyph-name="eight.LT" 
d="M295 -10q-114 0 -178 59.5t-64 152.5q0 62 34.5 111.5t95.5 75.5q-49 24 -76 66.5t-27 95.5q0 82 59 135.5t155 53.5q94 0 154.5 -54t60.5 -135q0 -53 -27.5 -95.5t-76.5 -66.5q61 -26 95.5 -75t34.5 -112q0 -92 -64.5 -152t-175.5 -60zM295 43q84 0 134.5 45.5
t50.5 113.5t-49.5 114t-136.5 46q-86 0 -135.5 -46.5t-49.5 -113.5q0 -68 50.5 -113.5t135.5 -45.5zM294 413q75 0 118 39.5t43 98.5q0 60 -43.5 99t-117.5 39q-73 0 -117 -39.5t-44 -98.5t43 -98.5t118 -39.5z" />
    <glyph glyph-name="nine.LT" 
d="M260 0h-70l182 277q-39 -15 -85 -15q-99 0 -167 69t-68 170q0 100 70.5 169.5t171.5 69.5q103 0 172.5 -69.5t69.5 -169.5q0 -83 -48 -153zM295 315q76 0 130 54t54 131t-54 132t-130 55q-77 0 -131.5 -54.5t-54.5 -131.5t54.5 -131.5t131.5 -54.5z" />
    <glyph glyph-name="zero.LT" 
d="M293 43q81 0 126 46.5t45 129.5v282q0 88 -44.5 137t-124.5 49t-125.5 -50t-45.5 -136v-278q0 -85 44.5 -132.5t124.5 -47.5zM294 -10q-107 0 -167.5 62.5t-60.5 170.5v278q0 106 63.5 172.5t164.5 66.5q103 0 165.5 -67t62.5 -172v-282q0 -108 -61 -168.5t-167 -60.5z
" />
    <glyph glyph-name="copyright.LT" 
d="M294 -10q-107 0 -167.5 62.5t-60.5 170.5v278q0 106 63.5 172.5t164.5 66.5q103 0 165.5 -67t62.5 -172v-282q0 -108 -61 -168.5t-167 -60.5zM293 43q81 0 126 46.5t45 129.5v282q0 88 -44.5 137t-124.5 49t-125.5 -50t-45.5 -136v-278q0 -85 44.5 -132.5t124.5 -47.5z
M296 114q-47 0 -76 28t-29 75v296q0 47 29.5 76t75.5 29t74.5 -29t28.5 -76v-92h-58v89q0 21 -12.5 33.5t-32.5 12.5t-33 -12.5t-13 -33.5v-295q0 -21 12.5 -33t33.5 -12q20 0 32.5 12t12.5 33v102h58v-100q0 -47 -28.5 -75t-74.5 -28z" />
    <glyph glyph-name="registered.LT" 
d="M294 -10q-107 0 -167.5 62.5t-60.5 170.5v278q0 106 63.5 172.5t164.5 66.5q103 0 165.5 -67t62.5 -172v-282q0 -108 -61 -168.5t-167 -60.5zM293 43q81 0 126 46.5t45 129.5v282q0 88 -44.5 137t-124.5 49t-125.5 -50t-45.5 -136v-278q0 -85 44.5 -132.5t124.5 -47.5z
M195 121v493h103q104 0 104 -108v-71q0 -54 -35 -78q31 -25 31 -70v-143q0 -17 10 -23h-58q-10 4 -10 21v139q0 51 -51 51h-36v-211h-58zM293 561h-40v-176h36q55 0 55 58v63q0 55 -51 55z" />
    <glyph glyph-name="dollar.LT" 
d="M540 196q0 -80 -59.5 -138.5t-154.5 -66.5v-111h-57v111q-142 10 -229 113l44 41q68 -91 185 -101v321q-46 14 -75.5 26.5t-63 34.5t-50.5 54.5t-17 75.5q0 77 56.5 127.5t149.5 55.5v101h57v-102q128 -11 201 -106l-46 -35q-54 79 -155 91v-286q49 -16 78 -28.5t65 -36
t53.5 -59t17.5 -82.5zM481 195q0 60 -40.5 93t-114.5 58v-302q69 8 112 49t43 102zM122 556q0 -53 37.5 -82t109.5 -54v269q-65 -5 -106 -41t-41 -92z" />
    <glyph glyph-name="cent.LT" 
d="M277 -130v122q-99 10 -161 80t-62 178t63 178t160 80v122h58v-122q71 -7 126 -47.5t78 -105.5l-52 -22q-21 60 -69 92.5t-111 32.5q-84 0 -139.5 -57.5t-55.5 -150.5q0 -94 56 -151t141 -57q65 0 113 34.5t68 94.5l53 -22q-25 -69 -79 -110t-129 -48v-121h-58z" />
    <glyph glyph-name="sterling.LT" 
d="M75 337v47h97q-58 90 -58 169q0 81 55 134t137 53q132 0 197 -111l-51 -30q-50 88 -148 88q-57 0 -94.5 -37.5t-37.5 -96.5q0 -31 10 -62.5t21 -52.5t32 -54h211v-47h-183q52 -91 52 -170q0 -32 -10 -65q25 -21 37.5 -30.5t33 -19t38.5 -9.5q28 0 39.5 14.5t11.5 45.5v66
h58v-65q0 -61 -28.5 -87.5t-82.5 -26.5q-52 0 -130 66q-44 -66 -122 -66q-52 0 -82 26.5t-30 68.5q0 41 28 67t73 26q55 0 115 -44q2 20 2 30q0 78 -63 173h-128zM159 36q62 0 89 49q-57 46 -96 46q-24 0 -38.5 -13.5t-14.5 -34.5q0 -22 16.5 -34.5t43.5 -12.5z" />
    <glyph glyph-name="yen.LT" 
d="M97 338v48h171v6l-216 338h65l179 -282l179 282h64l-214 -337v-7h169v-48h-169v-120h169v-48h-169v-170h-57v170h-171v48h171v120h-171z" />
    <glyph glyph-name="florin.LT" 
d="M122 352v51h159l43 141q31 105 75.5 145.5t121.5 40.5h4v-52q-58 0 -88.5 -29t-54.5 -111l-41 -135h148v-51h-164l-50 -166q-32 -108 -73.5 -147t-133.5 -39h-5v53q69 0 99 27.5t55 111.5l48 160h-143z" />
    <glyph glyph-name="percent.LT" 
d="M49 0l425 730h66l-426 -730h-65zM184 496q-51 0 -86.5 36t-35.5 86q0 51 35.5 86.5t86.5 35.5q50 0 86 -35.5t36 -86.5q0 -50 -36 -86t-86 -36zM184 553q27 0 46 19t19 46t-19 46t-46 19t-46 -19t-19 -46t19 -46t46 -19zM404 -11q-51 0 -86.5 36t-35.5 86q0 51 35.5 86.5
t86.5 35.5q50 0 86 -35.5t36 -86.5q0 -50 -36 -86t-86 -36zM404 46q27 0 46 19t19 46t-19 46t-46 19t-46 -19t-19 -46t19 -46t46 -19z" />
    <glyph glyph-name="period.T" 
d="M260 0v137h58v-137h-58z" />
    <glyph glyph-name="comma.T" 
d="M255 -117l44 204h62l-59 -204h-47z" />
    <glyph glyph-name="Euro.LT" 
d="M31 457v47h67q1 104 64.5 170t163.5 66q110 0 172 -74l-40 -36q-45 57 -131 57q-79 0 -124.5 -49.5t-46.5 -133.5h283l-8 -47h-275v-184h245l-8 -47h-237v-3q0 -85 44.5 -132.5t124.5 -47.5q96 0 139 63l45 -37q-60 -79 -183 -79q-107 0 -167.5 62.5t-60.5 170.5v3h-67
v47h67v184h-67z" />
    <glyph glyph-name="published" horiz-adv-x="858" 
d="M429 -125q-155 0 -265 110t-110 265t110 265t265 110t265 -110t110 -265t-110 -265t-265 -110zM429 -74q134 0 226.5 95t92.5 229t-92.5 229t-226.5 95t-226.5 -95t-92.5 -229t92.5 -229t226.5 -95zM306 62v381h155q59 0 96.5 -36.5t37.5 -91.5q0 -57 -35.5 -96.5
t-96.5 -39.5h-103v-117h-54zM455 396h-95v-168h95q38 0 62 25.5t24 61.5q0 35 -24.5 58t-61.5 23z" />
    <glyph glyph-name="caronSlovak" horiz-adv-x="502" 
d="M208 551l49 172h55l-63 -172h-41z" />
    <glyph glyph-name="Anocross" horiz-adv-x="698" 
d="M37 0l281 730h62l281 -730h-61l-251 653l-251 -653h-61z" />
    <glyph glyph-name="idotaccent" horiz-adv-x="199" 
d="M71 0v500h57v-500h-57zM71 585v145h57v-145h-57z" />
    <glyph glyph-name="cordinal" horiz-adv-x="405" 
d="M210 435q-62 0 -106 44t-44 106q0 63 44 107t106 44q43 0 79 -22t55 -58l-39 -22q-29 59 -95 59q-45 0 -75.5 -31.5t-30.5 -76.5t30.5 -76t75.5 -31q69 0 97 62l40 -20q-19 -39 -55.5 -62t-81.5 -23z" />
    <glyph glyph-name="ordfeminine.alt" horiz-adv-x="371" 
d="M156 435q-48 0 -77 20.5t-29 57.5q0 40 30 62.5t91 35.5l37.5 7.5t29 7.5t24 12t7.5 16q0 19 -19.5 32t-57.5 13q-41 0 -64 -16t-23 -43v-2h-48v1q0 43 37 70t97 27t92 -25t32 -68v-202h-43v46q-45 -52 -116 -52zM157 473q40 0 71.5 23t43.5 49v63q-15 -17 -92 -33
q-45 -10 -64 -23t-19 -38q0 -18 17 -29.5t43 -11.5z" />
    <glyph glyph-name="anocross.smcp" horiz-adv-x="576" 
d="M32 0l226 596h60l226 -596h-58l-198 521l-197 -521h-59z" />
    <glyph glyph-name="dcaron.smcp" horiz-adv-x="598" 
d="M72 0v596h167q135 0 222 -85t87 -213q0 -127 -88 -212.5t-219 -85.5h-169zM234 543h-105v-489h107q110 0 181.5 69.5t71.5 174.5q0 106 -70.5 175.5t-184.5 69.5zM244 661l-119 155h60l82 -109l84 109h60l-119 -155h-48z" />
    <glyph glyph-name="idotaccent.smcp" horiz-adv-x="213" 
d="M77 0v596h58v-596h-58zM78 660v139h56v-139h-56z" />
    <glyph glyph-name="lcaron.smcp" horiz-adv-x="451" 
d="M272 424l49 172h55l-63 -172h-41zM72 0v596h57v-542h274v-54h-331z" />
    <glyph glyph-name="eng.smcp" horiz-adv-x="630" 
d="M371 -229v55q81 0 105 22.5t24 105.5v42l-371 513v-509h-57v596h63l366 -507v507h57v-643q0 -107 -37.5 -144.5t-141.5 -37.5h-8z" />
    <glyph glyph-name="tbar.smcp" horiz-adv-x="512" 
d="M390 275h-105v-275h-57v275h-106v55h106v212h-183v54h422v-54h-182v-212h105v-55z" />
    <glyph glyph-name="tcaron.smcp" horiz-adv-x="512" 
d="M228 0v542h-183v54h422v-54h-182v-542h-57zM236 660l-119 155h60l82 -109l84 109h60l-119 -155h-48z" />
    <glyph glyph-name="ij.smcp" horiz-adv-x="459" 
d="M209 0v53h28q99 0 99 109v434h56v-433q0 -80 -36.5 -121.5t-117.5 -41.5h-29zM66 0v596h58v-596h-58z" />
    <glyph glyph-name="ordfeminine.smcp" horiz-adv-x="385" 
d="M55 440l114 290h47l115 -290h-47l-26 66h-131l-25 -66h-47zM192 674l-48 -125h97z" />
    <glyph glyph-name="ordmasculine.smcp" horiz-adv-x="421" 
d="M210 435q-62 0 -106 44t-44 106q0 63 44 107t106 44q63 0 107 -44t44 -107q0 -62 -44 -106t-107 -44zM210 478q45 0 75.5 31t30.5 76t-30.5 76.5t-75.5 31.5q-44 0 -74.5 -31.5t-30.5 -76.5q0 -44 31 -75.5t74 -31.5z" />
    <glyph glyph-name="cordinal.smcp" horiz-adv-x="405" 
d="M210 435q-62 0 -106 44t-44 106q0 63 44 107t106 44q43 0 79 -22t55 -58l-39 -22q-29 59 -95 59q-45 0 -75.5 -31.5t-30.5 -76.5t30.5 -76t75.5 -31q69 0 97 62l40 -20q-19 -39 -55.5 -62t-81.5 -23z" />
    <glyph glyph-name="altcedilla" horiz-adv-x="502" 
d="M248 -227q-86 0 -137 53l46 29q42 -39 91 -39q35 0 57.5 14t22.5 36q0 44 -81 44h-16v37h19q61 1 96.5 -21t35.5 -58q0 -42 -37.5 -68.5t-96.5 -26.5z" />
    <glyph glyph-name="dotbelow" horiz-adv-x="506" 
d="M215 -184v139h57v-139h-57z" />
    <glyph glyph-name="doublegrave" horiz-adv-x="502" 
d="M227 565l-137 155h70l117 -155h-50zM352 565l-130 155h69l111 -155h-50z" />
    <glyph glyph-name="invertedbreve" horiz-adv-x="502" 
d="M89 564q0 67 41.5 112t119.5 45q73 0 117.5 -46t44.5 -111h-51q0 49 -29.5 81t-81.5 33q-54 -1 -83 -33t-29 -81h-49z" />
    <glyph glyph-name="anglebracketleft.cap" horiz-adv-x="360" 
d="M265 -120l-228 480l228 480h62l-228 -480l228 -480h-62z" />
    <glyph glyph-name="anglebracketright.cap" horiz-adv-x="360" 
d="M96 -120h-62l228 480l-228 480h62l228 -480z" />
    <glyph glyph-name="anglebracketleft.smcp" horiz-adv-x="339" 
d="M285 -98h-61l-187 392l186 392h62l-186 -392z" />
    <glyph glyph-name="anglebracketright.smcp" horiz-adv-x="339" 
d="M117 -98h-62l187 392l-186 392h61l186 -392z" />
    <glyph glyph-name="doublebar.cap" horiz-adv-x="350" 
d="M66 -120v960h58v-960h-58zM226 -120v960h58v-960h-58z" />
    <glyph glyph-name="doublebar" horiz-adv-x="350" 
d="M66 -230v960h58v-960h-58zM226 -230v960h58v-960h-58z" />
    <glyph glyph-name="at.cap" horiz-adv-x="856" 
d="M427 -11q-155 0 -264 109.5t-109 265.5q0 155 113 265t269 110q157 0 261 -100.5t104 -236.5q0 -86 -40.5 -147.5t-112.5 -61.5q-84 0 -111 69q-42 -71 -134 -71q-67 0 -114.5 49t-39.5 132q11 86 62.5 132.5t117.5 46.5q81 0 116 -63l6 57h55l-20 -181q-7 -62 10 -90
t56 -28q44 0 70 43.5t26 111.5q0 116 -88.5 201.5t-224.5 85.5q-133 0 -228.5 -95t-95.5 -229t91.5 -228.5t224.5 -94.5q136 0 230 99l42 -35q-50 -54 -121 -85t-151 -31zM414 242q51 0 82 38t36 93q6 53 -19 90.5t-75 37.5q-49 0 -86 -35t-43 -93q-8 -54 23 -92.5t82 -38.5
z" />
    <glyph glyph-name="tripleprime" horiz-adv-x="393" 
d="M80 500q-16 100 -16 146v84h51v-84q0 -52 -15 -146h-20zM187 500q-16 100 -16 146v84h51v-84q0 -52 -15 -146h-20zM294 500q-16 100 -16 146v84h51v-84q0 -52 -15 -146h-20z" />
    <glyph glyph-name="at.smcp" horiz-adv-x="856" 
d="M427 -76q-155 0 -264 109.5t-109 265.5q0 155 113 265t269 110q157 0 261 -100.5t104 -236.5q0 -87 -40.5 -148.5t-112.5 -61.5q-84 0 -111 69q-42 -71 -134 -71q-67 0 -114.5 49t-39.5 132q11 86 62.5 132.5t117.5 46.5q81 0 116 -63l6 57h55l-20 -181q-7 -62 10 -89.5
t56 -27.5q44 0 70 43.5t26 110.5q0 116 -88.5 201.5t-224.5 85.5q-134 0 -229 -95t-95 -228q0 -134 91.5 -229t224.5 -95q136 0 230 99l42 -35q-51 -53 -121.5 -84t-150.5 -31zM414 176q51 0 82 38t36 93q6 53 -19 90.5t-75 37.5q-49 0 -86 -35t-43 -93q-8 -54 23 -92.5
t82 -38.5z" />
    <glyph glyph-name="registered.cap" horiz-adv-x="858" 
d="M429 -10q-155 0 -265 110t-110 265t110 265t265 110t265 -110t110 -265t-110 -265t-265 -110zM429 41q134 0 226.5 95t92.5 229t-92.5 229t-226.5 95t-226.5 -95t-92.5 -229t92.5 -229t226.5 -95zM299 184v374h148q62 0 100 -34.5t38 -84.5q0 -44 -24 -78t-66 -44
l90 -133h-64l-109 169h27q39 0 64.5 23.5t25.5 60.5q0 35 -25 54.5t-63 19.5h-88v-327h-54z" />
    <glyph glyph-name="onesixteenth" horiz-adv-x="1075" 
d="M891 -6q-64 0 -106.5 42t-42.5 103q0 59 32 104l121 179h61l-99 -145q22 8 43 8q58 0 98.5 -42t40.5 -103q0 -63 -42.5 -104.5t-105.5 -41.5zM105 0l527 730h68l-527 -730h-68zM494 0v49h85v287q-7 -16 -28 -27t-42 -11h-7v55h3q38 0 56.5 21t18.5 48h51v-373h81v-49
h-218zM37 308v49h84v285q-9 -15 -29.5 -25.5t-40.5 -10.5h-6v55h3q38 0 56 21t18 48h51v-373h81v-49h-217zM890 42q40 0 69 29t29 70q0 40 -29 69t-69 29q-41 0 -69.5 -29t-28.5 -70t28.5 -69.5t69.5 -28.5z" />
    <glyph glyph-name="threesixteenths" horiz-adv-x="1105" 
d="M921 -6q-64 0 -106.5 42t-42.5 103q0 59 32 104l121 179h61l-99 -145q22 8 43 8q58 0 98.5 -42t40.5 -103q0 -63 -42.5 -104.5t-105.5 -41.5zM136 0l527 730h68l-527 -730h-68zM158 302q-85 0 -133 57l44 34q32 -43 89 -43q38 0 62.5 21t24.5 55q0 35 -25.5 55.5
t-66.5 20.5h-42v48h42q40 0 62.5 20t22.5 52q0 31 -22.5 49.5t-59.5 18.5q-55 0 -83 -44l-44 25q19 29 52.5 47t74.5 18q61 0 96.5 -31t35.5 -83q0 -63 -57 -95q66 -30 66 -101q0 -55 -37.5 -89.5t-101.5 -34.5zM525 0v49h84v285q-9 -15 -29.5 -25.5t-40.5 -10.5h-6v55h3
q38 0 56 21t18 48h51v-373h81v-49h-217zM920 42q40 0 69 29t29 70q0 40 -29 69t-69 29q-41 0 -69.5 -29t-28.5 -70t28.5 -69.5t69.5 -28.5z" />
    <glyph glyph-name="fivesixteenths" horiz-adv-x="1111" 
d="M927 -6q-64 0 -106.5 42t-42.5 103q0 59 32 104l121 179h61l-99 -145q22 8 43 8q58 0 98.5 -42t40.5 -103q0 -63 -42.5 -104.5t-105.5 -41.5zM177 302q-49 0 -86 22t-56 58l48 28q29 -60 95 -60q38 0 64.5 26t26.5 67q0 43 -27 68t-65 25q-62 0 -92 -58l-47 21l31 231
h229v-49h-187l-18 -132q36 34 88 34q59 0 100 -37t41 -103q0 -62 -41 -101.5t-104 -39.5zM141 0l527 730h68l-527 -730h-68zM531 0v49h84v285q-9 -15 -29.5 -25.5t-40.5 -10.5h-6v55h3q38 0 56 21t18 48h51v-373h81v-49h-217zM926 42q40 0 69 29t29 70q0 40 -29 69t-69 29
q-41 0 -69.5 -29t-28.5 -70t28.5 -69.5t69.5 -28.5z" />
    <glyph glyph-name="sevensixteenths" horiz-adv-x="1027" 
d="M447 0v49h84v285q-9 -15 -29.5 -25.5t-40.5 -10.5h-6v55h3q38 0 56 21t18 48h51v-373h81v-49h-217zM91 308l171 372h-207v50h262v-45l-170 -377h-56zM843 -6q-64 0 -106.5 42t-42.5 103q0 59 32 104l121 179h61l-99 -145q22 8 43 8q58 0 98.5 -42t40.5 -103
q0 -63 -42.5 -104.5t-105.5 -41.5zM842 42q40 0 69 29t29 70q0 40 -29 69t-69 29q-41 0 -69.5 -29t-28.5 -70t28.5 -69.5t69.5 -28.5zM58 0l527 730h68l-527 -730h-68z" />
    <glyph glyph-name="ninesixteenths" horiz-adv-x="1066" 
d="M882 -6q-64 0 -106.5 42t-42.5 103q0 59 32 104l121 179h61l-99 -145q22 8 43 8q58 0 98.5 -42t40.5 -103q0 -63 -42.5 -104.5t-105.5 -41.5zM111 307l99 149q-18 -7 -42 -7q-57 0 -97 41t-40 102t42 102t104 41q63 0 105 -41.5t42 -101.5q0 -54 -29 -98l-121 -187h-63z
M97 0l527 730h68l-527 -730h-68zM486 0v49h84v285q-9 -15 -29.5 -25.5t-40.5 -10.5h-6v55h3q38 0 56 21t18 48h51v-373h81v-49h-217zM881 42q40 0 69 29t29 70q0 40 -29 69t-69 29q-41 0 -69.5 -29t-28.5 -70t28.5 -69.5t69.5 -28.5zM178 495q40 0 68 28.5t28 68.5t-28 68
t-68 28t-68 -28.5t-28 -68.5t28 -68t68 -28z" />
    <glyph glyph-name="elevensixteenths" horiz-adv-x="1327" 
d="M1143 -6q-63 0 -106 42t-43 103q0 58 33 104l120 179h61l-98 -145q21 8 42 8q58 0 99 -42t41 -103q0 -63 -43 -104.5t-106 -41.5zM358 0l527 730h67l-527 -730h-67zM37 308v49h84v285q-9 -15 -29.5 -25.5t-40.5 -10.5h-6v55h3q38 0 56 21t18 48h51v-373h81v-49h-217z
M747 0v49h84v285q-9 -15 -29.5 -25.5t-40.5 -10.5h-6v55h3q38 0 56 21t18 48h51v-373h81v-49h-217zM289 308v49h84v285q-8 -15 -28.5 -25.5t-40.5 -10.5h-7v55h3q38 0 56.5 21t18.5 48h50v-373h81v-49h-217zM1142 42q41 0 69.5 29t28.5 70t-29 69.5t-69 28.5t-68.5 -29
t-28.5 -70t28 -69.5t69 -28.5z" />
    <glyph glyph-name="thirteensixteenths" horiz-adv-x="1368" 
d="M1184 -6q-63 0 -106 42t-43 103q0 58 33 104l120 179h61l-98 -145q21 8 42 8q58 0 99 -42t41 -103q0 -63 -43 -104.5t-106 -41.5zM399 0l527 730h67l-527 -730h-67zM421 302q-85 0 -134 57l45 34q32 -43 89 -43q38 0 62.5 21t24.5 55q0 35 -26 55.5t-67 20.5h-41v48h41
q40 0 63 20t23 52q0 31 -22.5 49.5t-60.5 18.5q-56 0 -82 -44l-44 25q18 29 51.5 47t74.5 18q61 0 97 -31t36 -83q0 -63 -57 -95q66 -30 66 -101q0 -55 -37.5 -89.5t-101.5 -34.5zM37 308v49h84v285q-9 -15 -29.5 -25.5t-40.5 -10.5h-6v55h3q38 0 56 21t18 48h51v-373h81
v-49h-217zM788 0v49h84v285q-9 -15 -29.5 -25.5t-40.5 -10.5h-6v55h3q38 0 56 21t18 48h51v-373h81v-49h-217zM1183 42q41 0 69.5 29t28.5 70t-28.5 69.5t-69.5 28.5q-40 0 -68.5 -29t-28.5 -70t28 -69.5t69 -28.5z" />
    <glyph glyph-name="fifteensixteenths" horiz-adv-x="1365" 
d="M1182 -6q-64 0 -106.5 42t-42.5 103q0 59 32 104l121 179h61l-99 -145q22 8 43 8q58 0 98.5 -42t40.5 -103q0 -63 -42.5 -104.5t-105.5 -41.5zM431 302q-49 0 -86 22t-56 58l48 28q29 -60 95 -60q38 0 64.5 26t26.5 67q0 43 -27 68t-65 25q-62 0 -92 -58l-47 21l31 231
h229v-49h-187l-18 -132q36 34 88 34q59 0 100 -37t41 -103q0 -62 -41 -101.5t-104 -39.5zM396 0l527 730h68l-527 -730h-68zM785 0v49h85v287q-7 -16 -28 -27t-42 -11h-7v55h3q38 0 56.5 21t18.5 48h51v-373h81v-49h-218zM37 308v49h84v285q-9 -15 -29.5 -25.5t-40.5 -10.5
h-6v55h3q38 0 56 21t18 48h51v-373h81v-49h-217zM1181 42q40 0 69 29t29 70q0 40 -29 69t-69 29q-41 0 -69.5 -29t-28.5 -70t28.5 -69.5t69.5 -28.5z" />
    <glyph glyph-name="doublebar.smcp" horiz-adv-x="350" 
d="M66 -98v784h59v-784h-59zM226 -98v784h59v-784h-59z" />
    <glyph glyph-name="lowline" horiz-adv-x="542" 
d="M53 -150v50h437v-50h-437z" />
    <glyph glyph-name="arrowleft.alt" horiz-adv-x="1068" 
d="M260 127q-30 65 -89.5 127.5t-119.5 93.5v35q60 32 119.5 94.5t89.5 127.5l48 -30q-25 -51 -73.5 -102t-94.5 -80h796v-55h-794q46 -30 93.5 -80.5t72.5 -100.5zM985 146l-77 139h28l91 -139h-42zM795 146l-78 139h28l91 -139h-41zM890 146l-77 139h27l92 -139h-42z
M718 445l75 135h42l-89 -135h-28zM909 445l75 135h42l-90 -135h-27zM813 445l76 135h41l-89 -135h-28z" />
    <glyph glyph-name="mediumwhitecircle" horiz-adv-x="698" 
d="M349 -10q-108 0 -183.5 75.5t-75.5 184.5t75.5 184.5t183.5 75.5t184 -75.5t76 -184.5t-76 -184.5t-184 -75.5zM349 42q85 0 143.5 61t58.5 147t-58.5 147t-143.5 61t-143.5 -61t-58.5 -147t58.5 -147t143.5 -61z" />
    <glyph glyph-name="mediumblackcircle" horiz-adv-x="698" 
d="M349 -10q-108 0 -183.5 76t-75.5 184t75.5 184t183.5 76t183.5 -76t75.5 -184t-75.5 -184t-183.5 -76z" />
    <glyph glyph-name="arrowright.alt" horiz-adv-x="1068" 
d="M818 605q29 -65 89 -127.5t119 -94.5v-35q-60 -31 -119.5 -94t-88.5 -128l-48 30q24 51 71.5 101.5t93.5 80.5h-794v55h796q-47 29 -95 79.5t-72 101.5zM283 585l77 -139h-28l-91 139h42zM92 585l77 -139h-27l-92 139h42zM187 585l78 -139h-28l-91 139h41zM264 287
l-75 -136h-42l89 136h28zM359 287l-75 -136h-42l90 136h27zM169 287l-76 -136h-41l89 136h28z" />
    <glyph glyph-name="arrowup.alt" horiz-adv-x="1068" 
d="M300 555q64 29 126.5 89t94.5 119h35q32 -60 94.5 -119.5t127.5 -88.5l-30 -48q-51 24 -102 72.5t-80 94.5v-674h-55v672q-30 -46 -80.5 -93.5t-100.5 -71.5zM319 -49l139 77v-28l-139 -91v42zM319 141l139 78v-28l-139 -91v41zM319 46l139 77v-27l-139 -92v42zM618 218
l135 -75v-42l-135 89v28zM618 27l135 -75v-42l-135 90v27zM618 123l135 -76v-41l-135 89v28z" />
    <glyph glyph-name="arrowdown.alt" horiz-adv-x="1068" 
d="M778 175q-65 -29 -127.5 -89t-94.5 -119h-35q-31 60 -94 119.5t-128 88.5l30 48q51 -25 101.5 -72.5t80.5 -93.5v673h55v-674q29 46 79.5 94t101.5 73zM758 779l-139 -77v28l139 91v-42zM758 589l-139 -78v28l139 91v-41zM758 684l-139 -77v27l139 92v-42zM460 512
l-136 75v42l136 -89v-28zM460 703l-136 75v42l136 -90v-27zM460 607l-136 76v41l136 -89v-28z" />
    <glyph glyph-name="ballotboxwithx" horiz-adv-x="700" 
d="M100 0v500h500v-500h-500zM158 445v-390h384v390h-384zM243 386l105 -104l104 107l34 -34l-103 -106l106 -104l-34 -35l-106 104l-103 -106l-34 34l103 106l-106 104z" />
    <glyph glyph-name="questiondown.cap" horiz-adv-x="539" 
d="M267 -10q-91 0 -151 49t-60 128q0 44 14.5 76.5t37 50.5l48 39.5t48 43t37 61t14.5 93.5v8h53v-8q0 -70 -20 -119t-48.5 -75t-57 -47.5t-48.5 -51.5t-20 -72q0 -55 44 -90t109 -35q109 0 163 97l51 -24q-28 -55 -83.5 -89.5t-130.5 -34.5zM252 593v137h58v-137h-58z" />
    <glyph glyph-name="exclamdown.cap" horiz-adv-x="242" 
d="M93 0v117q0 241 12 411h34q12 -170 12 -411v-117h-58zM93 593v137h58v-137h-58z" />
    <glyph glyph-name="interrobangdown.cap" horiz-adv-x="539" 
d="M269 -10q-91 0 -151 49.5t-60 128.5q0 51 20 86.5t48 57l56 45t48 67.5t20 107v8h47q2 -89 2 -422v-74q88 11 134 95l51 -24q-28 -55 -84 -89.5t-131 -34.5zM117 167q0 -49 35 -83t91 -42v75q0 84 6 248q-16 -25 -41.5 -50t-44 -40t-32.5 -43t-14 -65zM303 730v-137h-58
v137h58z" />
    <glyph glyph-name="reversequoteleft" horiz-adv-x="189" 
d="M83 526h-39l44 204h57z" />
    <glyph glyph-name="reversequotedblleft" horiz-adv-x="293" 
d="M83 526h-39l44 204h57zM189 526h-40l44 204h57z" />
    <glyph glyph-name="onethirdemdash" horiz-adv-x="426" 
d="M53 226v51h320v-51h-320z" />
    <glyph glyph-name="threequarteremdash" horiz-adv-x="626" 
d="M53 226v51h520v-51h-520z" />
    <glyph glyph-name="periodcentered.cap" horiz-adv-x="191" 
d="M66 219v137h58v-137h-58z" />
    <glyph glyph-name="hyphen.cap" horiz-adv-x="475" 
d="M53 264v51h370v-51h-370z" />
    <glyph glyph-name="onethirdemdash.cap" horiz-adv-x="426" 
d="M53 264v51h320v-51h-320z" />
    <glyph glyph-name="endash.cap" horiz-adv-x="526" 
d="M53 264v51h420v-51h-420z" />
    <glyph glyph-name="threequarteremdash.cap" horiz-adv-x="626" 
d="M53 264v51h520v-51h-520z" />
    <glyph glyph-name="emdash.cap" horiz-adv-x="726" 
d="M53 264v51h620v-51h-620z" />
    <glyph glyph-name="figuredash.cap" horiz-adv-x="676" 
d="M53 264v51h570v-51h-570z" />
    <glyph glyph-name="uni2015.cap" horiz-adv-x="1026" 
d="M53 264v51h920v-51h-920z" />
    <glyph glyph-name="colon.T" 
d="M261 0v137h57v-137h-57zM261 363v137h57v-137h-57z" />
    <glyph glyph-name="semicolon.T" 
d="M290 363v137h57v-137h-57zM255 -117l44 204h62l-59 -204h-47z" />
    <glyph glyph-name="zero.inf" horiz-adv-x="497" 
d="M248 -6q-90 0 -153 63.5t-63 153.5t63 153.5t153 63.5t153.5 -63.5t63.5 -153.5t-63.5 -153.5t-153.5 -63.5zM248 44q69 0 117 49t48 118t-48 118t-117 49t-116.5 -49t-47.5 -118t47.5 -118t116.5 -49z" />
    <glyph glyph-name="one.inf" horiz-adv-x="286" 
d="M37 0v49h84v285q-9 -15 -29.5 -25.5t-40.5 -10.5h-6v55h3q38 0 56 21t18 48h51v-373h81v-49h-217z" />
    <glyph glyph-name="two.inf" horiz-adv-x="344" 
d="M39 0v50q0 25 9.5 46.5t30 42t35 32.5t43.5 32q33 22 49 34.5t32 33.5t16 41q0 31 -22 50.5t-60 19.5q-62 0 -93 -65l-45 23q42 88 138 88q61 0 98 -33t37 -83q0 -31 -19 -60t-38 -44t-56 -41q-27 -18 -39 -27t-30 -25.5t-25.5 -32t-7.5 -32.5h216v-50h-269z" />
    <glyph glyph-name="three.inf" horiz-adv-x="329" 
d="M158 -6q-85 0 -133 57l44 34q32 -43 89 -43q38 0 62.5 21t24.5 55q0 35 -25.5 55.5t-66.5 20.5h-42v48h42q40 0 62.5 20t22.5 52q0 31 -22.5 49.5t-59.5 18.5q-55 0 -83 -44l-44 25q19 29 52.5 47t74.5 18q61 0 96.5 -31t35.5 -83q0 -63 -57 -95q66 -30 66 -101
q0 -55 -37.5 -89.5t-101.5 -34.5z" />
    <glyph glyph-name="four.inf" horiz-adv-x="375" 
d="M229 0v97h-195v48l193 277h54v-277h61v-48h-61v-97h-52zM91 145h138v196z" />
    <glyph glyph-name="five.inf" horiz-adv-x="353" 
d="M177 -6q-49 0 -86 22t-56 58l48 28q29 -60 95 -60q38 0 64.5 26t26.5 67q0 43 -27 68t-65 25q-62 0 -92 -58l-47 21l31 231h229v-49h-187l-18 -132q36 34 88 34q59 0 100 -37t41 -103q0 -62 -41 -101.5t-104 -39.5z" />
    <glyph glyph-name="six.inf" horiz-adv-x="365" 
d="M183 -6q-64 0 -106.5 42t-42.5 103q0 59 32 104l121 179h61l-99 -145q22 8 43 8q58 0 98.5 -42t40.5 -103q0 -63 -42.5 -104.5t-105.5 -41.5zM182 42q40 0 69 29t29 70q0 40 -29 69t-69 29q-41 0 -69.5 -29t-28.5 -70t28.5 -69.5t69.5 -28.5z" />
    <glyph glyph-name="seven.inf" horiz-adv-x="327" 
d="M70 0l171 372h-207v50h262v-45l-170 -377h-56z" />
    <glyph glyph-name="eight.inf" horiz-adv-x="343" 
d="M171 -6q-61 0 -97.5 36.5t-36.5 89.5q0 72 65 105q-49 29 -49 89q0 48 33 81t85 33t85.5 -33.5t33.5 -80.5q0 -58 -51 -88q66 -31 66 -106q0 -53 -36 -89.5t-98 -36.5zM171 42q37 0 59.5 22.5t22.5 55.5q0 34 -22 57t-60 23q-37 0 -59.5 -23.5t-22.5 -56.5t22.5 -55.5
t59.5 -22.5zM171 249q30 0 48.5 18.5t18.5 46.5t-18.5 47t-48.5 19q-29 0 -47 -19t-18 -47t18 -46.5t47 -18.5z" />
    <glyph glyph-name="nine.inf" horiz-adv-x="355" 
d="M111 0l99 149q-18 -7 -42 -7q-57 0 -97 41t-40 102t42 102t104 41q63 0 105 -41.5t42 -101.5q0 -54 -29 -98l-121 -187h-63zM178 188q40 0 68 28.5t28 68.5t-28 68t-68 28t-68 -28.5t-28 -68.5t28 -68t68 -28z" />
    <glyph glyph-name="plus.inf" horiz-adv-x="284" 
d="M35 189v44h86v84h43v-84h84v-44h-84v-85h-43v85h-86z" />
    <glyph glyph-name="minus.inf" horiz-adv-x="284" 
d="M35 189v45h213v-45h-213z" />
    <glyph glyph-name="equal.inf" horiz-adv-x="284" 
d="M35 235v44h213v-44h-213zM35 140v44h213v-44h-213z" />
    <glyph glyph-name="parenleft.inf" horiz-adv-x="272" 
d="M195 -75q-159 110 -159 290t156 290l33 -43q-135 -91 -135 -247q0 -154 137 -246z" />
    <glyph glyph-name="parenright.inf" horiz-adv-x="273" 
d="M78 -75l-33 44q137 92 137 246q0 156 -135 247l34 43q155 -113 155 -290q0 -179 -158 -290z" />
    <glyph glyph-name="zero.LP" horiz-adv-x="859" 
d="M429 -10q-155 0 -265 110t-110 265t110 265t265 110t265 -110t110 -265t-110 -265t-265 -110zM429 45q133 0 224.5 93.5t91.5 226.5t-91.5 226.5t-224.5 93.5t-224 -93.5t-91 -226.5t91 -226.5t224 -93.5z" />
    <glyph glyph-name="one.LP" horiz-adv-x="452" 
d="M53 0v55h147v551q-14 -25 -48.5 -40t-72.5 -15h-11v59h5q66 0 97.5 37t31.5 83h56v-675h147v-55h-352z" />
    <glyph glyph-name="two.LP" horiz-adv-x="587" 
d="M65 0v59q0 41 16.5 77.5t52 71.5t63 57t77.5 57l72 52.5t55.5 47.5t47 59.5t13.5 59.5q0 65 -46 106t-122 41q-121 0 -181 -116l-50 27q31 64 91.5 102.5t138.5 38.5q102 0 165 -57t63 -143q0 -40 -16 -75.5t-50.5 -70t-61.5 -55.5t-76 -56l-72.5 -52.5t-57 -49t-47 -60
t-14.5 -62.5v-4h405v-55h-466z" />
    <glyph glyph-name="three.LP" horiz-adv-x="573" 
d="M278 -9q-72 0 -132.5 25.5t-98.5 72.5l46 38q67 -85 185 -85q81 0 131 45t50 113q0 69 -53.5 110.5t-134.5 41.5h-68v55h68q77 0 124 38.5t47 101.5q0 65 -46.5 103t-125.5 38q-52 0 -95.5 -23t-69.5 -58l-47 33q35 44 90 72t124 28q105 0 166 -53.5t61 -139.5
q0 -59 -30.5 -102t-86.5 -65q63 -22 99 -67.5t36 -112.5q0 -93 -65 -151t-174 -58z" />
    <glyph glyph-name="four.LP" horiz-adv-x="614" 
d="M403 0v168h-354l-2 53l356 509h58v-510h107v-52h-107v-168h-58zM109 220h294v419z" />
    <glyph glyph-name="five.LP" horiz-adv-x="611" 
d="M308 -10q-82 0 -146.5 35.5t-98.5 99.5l54 33q59 -114 191 -114q82 0 137 53t55 137q0 90 -57.5 140t-134.5 50q-132 0 -189 -118l-56 19l59 405h384v-54h-336l-40 -277q68 78 178 78q103 0 176.5 -63t73.5 -180q0 -107 -70.5 -175.5t-179.5 -68.5z" />
    <glyph glyph-name="six.LP" horiz-adv-x="622" 
d="M308 -10q-110 0 -183.5 73.5t-73.5 179.5q0 95 57 172l221 315h70l-177 -250q42 18 95 18q104 0 176 -73.5t72 -180.5t-74.5 -180.5t-182.5 -73.5zM308 43q83 0 141.5 59t58.5 142q0 84 -58.5 142.5t-141.5 58.5t-141.5 -59t-58.5 -142t58.5 -142t141.5 -59z" />
    <glyph glyph-name="seven.LP" horiz-adv-x="534" 
d="M105 0l326 675h-385v55h446v-50l-325 -680h-62z" />
    <glyph glyph-name="eight.LP" horiz-adv-x="571" 
d="M285 -10q-106 0 -168.5 60.5t-62.5 151.5q0 62 34.5 112t92.5 75q-45 24 -72.5 67t-27.5 95q0 81 57.5 135t146.5 54q88 0 147 -54.5t59 -134.5q0 -52 -28 -94.5t-74 -66.5q58 -24 93 -75t35 -113q0 -91 -63 -151.5t-169 -60.5zM285 43q79 0 127 45.5t48 113.5
q0 67 -47.5 113.5t-127.5 46.5q-78 0 -126 -46.5t-48 -113.5q0 -68 48 -113.5t126 -45.5zM285 413q67 0 109 40t42 98q0 59 -41.5 98.5t-109.5 39.5q-66 0 -107.5 -39.5t-41.5 -98.5q0 -58 41.5 -98t107.5 -40z" />
    <glyph glyph-name="nine.LP" horiz-adv-x="608" 
d="M213 0l177 258q-42 -18 -94 -18q-103 0 -174 72.5t-71 177.5q0 106 73 178t180 72q106 0 179.5 -72.5t73.5 -176.5q0 -89 -51 -161l-224 -330h-69zM304 294q82 0 139 57t57 139q0 81 -57.5 139t-138.5 58q-80 0 -138 -58t-58 -139t57.5 -138.5t138.5 -57.5z" />
    <glyph glyph-name="slash.cap" horiz-adv-x="463" 
d="M28 0l346 730h62l-346 -730h-62z" />
    <glyph glyph-name="backslash.cap" horiz-adv-x="463" 
d="M374 0l-346 730h62l346 -730h-62z" />
    <glyph glyph-name="Euro.LP" horiz-adv-x="859" 
d="M30 456v48h105q43 105 137.5 170.5t210.5 65.5q166 0 276 -123l-40 -37q-93 106 -236 106q-94 0 -170 -50t-114 -132h414l-12 -48h-421q-13 -42 -13 -91q0 -47 12 -91h372l-12 -48h-341q38 -82 114.5 -131.5t172.5 -49.5q151 0 243 115l45 -34q-52 -64 -126.5 -100
t-161.5 -36q-118 0 -213 65t-137 171h-105v48h89q-10 41 -10 91q0 45 11 91h-90z" />
    <glyph glyph-name="dollar.LP" horiz-adv-x="556" 
d="M508 196q0 -80 -54.5 -137.5t-145.5 -66.5v-112h-55v111q-136 11 -215 118l48 37q28 -42 72.5 -69.5t95.5 -32.5v320q-45 14 -72 26t-58 34t-46 54.5t-15 77.5q0 75 54 125t136 58v101h55v-101q114 -10 184 -99l-46 -35q-51 73 -138 83v-285q45 -15 74 -28t61.5 -36.5
t48.5 -59t16 -83.5zM449 195q0 61 -36.5 94t-104.5 57v-301q63 9 102 49.5t39 100.5zM122 556q0 -53 34 -82.5t98 -52.5v267q-58 -7 -95 -42.5t-37 -89.5z" />
    <glyph glyph-name="cent.LP" horiz-adv-x="602" 
d="M280 -130v122q-100 10 -164.5 83t-64.5 175q0 101 65.5 173.5t163.5 84.5v122h59v-122q72 -7 128 -47t82 -104l-53 -22q-25 57 -73 89.5t-111 32.5q-85 0 -143.5 -60.5t-58.5 -146.5q0 -88 58.5 -147.5t144.5 -59.5q64 0 112 34.5t72 91.5l53 -22q-29 -66 -83.5 -107
t-127.5 -48v-122h-59z" />
    <glyph glyph-name="sterling.LP" horiz-adv-x="697" 
d="M83 330v47h112q-52 81 -52 163q0 89 59 144.5t154 55.5q141 0 211 -111l-46 -35q-53 96 -166 96q-68 0 -110.5 -42t-42.5 -107q0 -72 58 -164h214v-47h-184q57 -88 57 -159q0 -38 -13 -70q77 -64 138 -64q58 0 85 31t27 109v18h58v-25q0 -94 -41 -137t-124 -43
q-82 0 -165 71q-51 -71 -141 -71q-62 0 -93.5 28t-31.5 75q0 44 31 72t84 29q61 0 132 -58q3 15 3 32q0 29 -11.5 60t-23 49.5t-35.5 52.5h-143zM171 35q70 0 105 58q-64 55 -113 55q-32 0 -49 -15t-17 -41t19.5 -41.5t54.5 -15.5z" />
    <glyph glyph-name="florin.LP" horiz-adv-x="560" 
d="M110 352v51h156l37 142q26 105 68.5 145t120.5 40h5v-52q-59 0 -87.5 -27t-48.5 -109l-36 -139h146v-51h-159l-43 -167q-28 -108 -68.5 -146.5t-132.5 -38.5h-5v53q70 0 97.5 26t49.5 109l42 164h-142z" />
    <glyph glyph-name="yen.LP" horiz-adv-x="660" 
d="M131 320v48h169l-243 362h66l208 -316l207 316h65l-241 -362h166v-48h-168v-121h168v-48h-168v-151h-58v151h-171v48h171v121h-171z" />
    <glyph glyph-name="Aumlaut" horiz-adv-x="698" 
d="M502 591v139h57v-139h-57zM142 591v139h56v-139h-56zM37 0l281 730h62l281 -730h-61l-79 204h-345l-78 -204h-61zM349 653l-152 -394h303z" />
    <glyph glyph-name="Oumlaut" horiz-adv-x="855" 
d="M69 610v120h57v-68q-17 -15 -42 -52h-15zM763 610q-21 35 -41 52v68h57v-120h-16zM428 -10q-155 0 -265 110t-110 265t110 265t265 110t265 -110t110 -265t-110 -265t-265 -110zM428 45q133 0 224 93.5t91 226.5t-91 226.5t-224 93.5t-224.5 -93.5t-91.5 -226.5
t91.5 -226.5t224.5 -93.5z" />
    <glyph glyph-name="Uumlaut" horiz-adv-x="651" 
d="M379 591v139h53v-139h-53zM219 591v139h53v-139h-53zM325 -9q-110 0 -181 69.5t-71 181.5v488h57v-489q0 -87 55 -141.5t141 -54.5q85 0 140 54.5t55 141.5v489h57v-487q0 -112 -71.5 -182t-181.5 -70z" />
    <glyph glyph-name="aumlaut.smcp" horiz-adv-x="576" 
d="M433 457v139h57v-139h-57zM85 457v139h56v-139h-56zM32 0l226 596h60l226 -596h-58l-58 153h-279l-58 -153h-59zM288 521l-118 -313h237z" />
    <glyph glyph-name="oumlaut.smcp" horiz-adv-x="711" 
d="M628 510q-16 26 -41 46v40h57v-86h-16zM71 510v86h57v-40q-24 -19 -42 -46h-15zM355 -9q-127 0 -216 90t-89 217t89 216.5t216 89.5t216.5 -89.5t89.5 -216.5t-89.5 -217t-216.5 -90zM355 45q104 0 175.5 74t71.5 179q0 104 -71.5 178.5t-175.5 74.5t-175.5 -74.5
t-71.5 -178.5q0 -105 71.5 -179t175.5 -74z" />
    <glyph glyph-name="uumlaut.smcp" horiz-adv-x="592" 
d="M350 457v139h53v-139h-53zM189 457v139h52v-139h-52zM295 -9q-103 0 -170 65t-67 170v370h57v-371q0 -80 51 -130t131 -50q79 0 129.5 50t50.5 130v371h57v-369q0 -106 -67.5 -171t-171.5 -65z" />
    </font>
</defs>
</svg>
